<svg xmlns="http://www.w3.org/2000/svg" viewBox="0 0 451.53 451.53"><defs><style>.cls-1{fill:#fbfbfb;}.cls-2{fill:#232323;}.cls-3{fill:none;stroke:#d6d6d6;stroke-miterlimit:10;stroke-width:2px;}.cls-4{fill:#c62525;opacity:0.85;}</style></defs><g id="Layer_2" data-name="Layer 2"><g id="Layer_2-2" data-name="Layer 2"><path class="cls-1" d="M225.76,449.53a223.76,223.76,0,0,1-158.22-382A223.76,223.76,0,1,1,384,384,222.34,222.34,0,0,1,225.76,449.53Z"/><path class="cls-2" d="M225.76,4A221.69,221.69,0,0,1,382.57,382.57,221.76,221.76,0,1,1,139.44,21.43,220.26,220.26,0,0,1,225.76,4m0-4C101.08,0,0,101.08,0,225.76S101.08,451.53,225.76,451.53,451.53,350.45,451.53,225.76,350.45,0,225.76,0Z"/><circle class="cls-3" cx="225.76" cy="225.76" r="219.62"/><circle class="cls-3" cx="225.76" cy="225.76" r="175.7"/><circle class="cls-3" cx="225.76" cy="225.76" r="131.77"/><circle class="cls-3" cx="225.76" cy="225.76" r="87.85"/><circle class="cls-3" cx="225.76" cy="225.76" r="43.92"/><line class="cls-3" x1="225.76" y1="225.76" x2="225.76" y2="445.38"/><line class="cls-3" x1="225.76" y1="225.76" x2="415.96" y2="335.57"/><line class="cls-3" x1="225.76" y1="225.76" x2="415.96" y2="115.95"/><line class="cls-3" x1="225.76" y1="225.76" x2="225.76" y2="6.14"/><line class="cls-3" x1="225.76" y1="225.76" x2="35.57" y2="115.95"/><line class="cls-3" x1="225.76" y1="225.76" x2="35.57" y2="335.57"/><polygon class="cls-4" points="225.76 181.84 187.71 203.79 187.71 247.73 225.76 269.69 263.81 247.73 263.81 203.79 225.76 181.84"/><polygon class="cls-4" points="225.76 50.07 35.57 115.95 111.61 291.67 225.76 357.53 301.88 269.69 377.92 137.91 225.76 50.07"/></g></g></svg>