<svg xmlns="http://www.w3.org/2000/svg" viewBox="0 0 1280 1080">
<defs>
<style>
.cls-1{fill:none;}
.cls-2{font-size:80px;fill:#232323;font-family:SuncheonB, Suncheon;}
</style>
</defs>
<g id="Layer_2" data-name="Layer 2">
<g id="Layer_1-2" data-name="Layer 1">
<g id="eng">
<rect class="cls-1" width="1280" height="1080"/><text class="cls-2" transform="translate(313.12 524.28) rotate(-84.72)">I</text><text class="cls-2" transform="matrix(0.2, -0.98, 0.98, 0.2, 315.23, 496.08)">n</text><text class="cls-2" transform="matrix(0.32, -0.95, 0.95, 0.32, 323.96, 453.62)">s</text><text class="cls-2" transform="matrix(0.41, -0.91, 0.91, 0.41, 337.07, 416.37)">i</text><text class="cls-2" transform="matrix(0.5, -0.87, 0.87, 0.5, 344.91, 397.25)">d</text><text class="cls-2" transform="translate(366.99 358.72) rotate(-52.45)">e</text><text class="cls-2" transform="matrix(0.69, -0.73, 0.73, 0.69, 393.88, 324.49)"> </text><text class="cls-2" transform="translate(409.05 307.52) rotate(-40.87)">Y</text><text class="cls-2" transform="translate(441.92 278.83) rotate(-33.1)">o</text><text class="cls-2" transform="matrix(0.9, -0.43, 0.43, 0.9, 480.07, 253.92)">u</text><text class="cls-2" transform="matrix(0.95, -0.32, 0.32, 0.95, 519.42, 235.55)">r</text><text class="cls-2" transform="translate(551.18 225.07) rotate(-13.6)"> </text><text class="cls-2" transform="translate(573.02 219.02) rotate(-7.45)">S</text><text class="cls-2" transform="translate(619.87 212.75) rotate(0.93)">c</text><text class="cls-2" transform="translate(659.08 213.18) rotate(6.3)">r</text><text class="cls-2" transform="translate(692 216.41) rotate(13)">e</text><text class="cls-2" transform="translate(734.1 226.02) rotate(20.62)">e</text><text class="cls-2" transform="translate(774.58 241.13) rotate(28.22)">n</text><text class="cls-2" transform="matrix(0.83, 0.56, -0.56, 0.83, 812.82, 262.25)">.</text><text class="cls-2" transform="matrix(0.28, -0.96, 0.96, 0.28, 232.02, 449.5)">B</text><text class="cls-2" transform="translate(246.1 400.96) rotate(-67.45)">u</text><text class="cls-2" transform="matrix(0.45, -0.89, 0.89, 0.45, 263.33, 360.54)">i</text><text class="cls-2" transform="translate(272.98 341.59) rotate(-60.07)">l</text><text class="cls-2" transform="matrix(0.57, -0.82, 0.82, 0.57, 282.8, 323.49)">d</text><text class="cls-2" transform="translate(308.59 286.59) rotate(-50.91)"> </text><text class="cls-2" transform="matrix(0.68, -0.73, 0.73, 0.68, 323.08, 268.51)">t</text><text class="cls-2" transform="matrix(0.74, -0.67, 0.67, 0.74, 343.71, 245.69)">h</text><text class="cls-2" transform="translate(376.53 215.99) rotate(-36.08)">e</text><text class="cls-2" transform="translate(412.17 190.48) rotate(-31.5)"> </text><text class="cls-2" transform="translate(430.89 177.56) rotate(-25.38)">W</text><text class="cls-2" transform="translate(490.71 149.8) rotate(-17.68)">o</text><text class="cls-2" transform="translate(534.63 136.06) rotate(-12.19)">r</text><text class="cls-2" transform="translate(567.61 129.12) rotate(-8.44)">l</text><text class="cls-2" transform="matrix(1, -0.07, 0.07, 1, 587.91, 125.59)">d</text>
</g>
</g>
</g>
</svg>