<svg xmlns="http://www.w3.org/2000/svg" viewBox="0 0 1664 1212.06"><defs><style>.cls-1{font-size:150px;fill:#232323;font-family:SuncheonB, Suncheon;}.cls-2{fill:none;}</style></defs><g id="Layer_2" data-name="Layer 2"><g id="Layer_1-2" data-name="Layer 1"><g id="kor_mo"><text class="cls-1" transform="translate(548.91 647.16) rotate(-84.07)">세</text><text class="cls-1" transform="translate(560.53 515.37) rotate(-57.22)">상</text><text class="cls-1" transform="matrix(0.86, -0.51, 0.51, 0.86, 630.45, 402.99)">을</text><text class="cls-1" transform="matrix(0.97, -0.22, 0.22, 0.97, 748.17, 340.68)"> </text><text class="cls-1" transform="translate(784.69 323.92) rotate(4.68)">만</text><text class="cls-1" transform="matrix(0.85, 0.52, -0.52, 0.85, 916.72, 332.65)">들</text><text class="cls-1" transform="matrix(0.53, 0.85, -0.85, 0.53, 1030.59, 400.11)">다</text><text class="cls-1" transform="matrix(0.25, 0.97, -0.97, 0.25, 1095.34, 516.72)">.</text><text class="cls-1" transform="translate(406.62 514.21) rotate(-68.48)">스</text><text class="cls-1" transform="matrix(0.63, -0.77, 0.77, 0.63, 455.06, 388.72)">크</text><text class="cls-1" transform="matrix(0.84, -0.54, 0.54, 0.84, 539.53, 283.99)">린</text><text class="cls-1" transform="translate(655.82 213.79) rotate(-21.2)"> </text><text class="cls-1" transform="translate(691.87 194.02) rotate(-9.39)">속</text><rect class="cls-2" width="1664" height="1212.06"/></g></g></g></svg>