<svg xmlns="http://www.w3.org/2000/svg" viewBox="0 0 1664 1212.06"><defs><style>.cls-1{font-size:120px;fill:#232323;font-family:SuncheonB, Suncheon;}.cls-2{fill:none;}</style></defs><g id="Layer_2" data-name="Layer 2"><g id="Layer_1-2" data-name="Layer 1"><g id="eng_mo"><text class="cls-1" transform="matrix(-0.41, -0.91, 0.91, -0.41, 587.88, 739.56)">I</text><text class="cls-1" transform="translate(569.81 702.69) rotate(-103.26)">n</text><text class="cls-1" transform="translate(555.23 641.14) rotate(-90.93)">s</text><text class="cls-1" transform="matrix(0.14, -0.99, 0.99, 0.14, 555.16, 582.97)">i</text><text class="cls-1" transform="translate(557.51 553.28) rotate(-72.03)">d</text><text class="cls-1" transform="matrix(0.52, -0.86, 0.86, 0.52, 577.17, 491.45)">e</text><text class="cls-1" transform="translate(611.18 437.33) rotate(-48.88)"> </text><text class="cls-1" transform="translate(631.52 411.49) rotate(-38.9)">Y</text><text class="cls-1" transform="matrix(0.9, -0.43, 0.43, 0.9, 680.73, 370.9)">o</text><text class="cls-1" transform="translate(740.71 341.94) rotate(-12.08)">u</text><text class="cls-1" transform="translate(802.81 329.18) rotate(-0.93)">r</text><text class="cls-1" transform="matrix(0.99, 0.14, -0.14, 0.99, 852, 328.87)"> </text><text class="cls-1" transform="translate(884.64 331.27) rotate(18.35)">S</text><text class="cls-1" transform="matrix(0.85, 0.52, -0.52, 0.85, 950.02, 353.19)">c</text><text class="cls-1" transform="translate(999.06 383.19) rotate(42.21)">r</text><text class="cls-1" transform="translate(1035.51 414.72) rotate(53.64)">e</text><text class="cls-1" transform="translate(1073.34 465.29) rotate(66.64)">e</text><text class="cls-1" transform="matrix(0.18, 0.98, -0.98, 0.18, 1098.81, 523.03)">n</text><text class="cls-1" transform="translate(1109.01 586.24) rotate(89.07)">.</text><text class="cls-1" transform="translate(446.42 652.33) rotate(-91.06)">B</text><text class="cls-1" transform="translate(445.18 577.73) rotate(-80.9)">u</text><text class="cls-1" transform="translate(456.37 513.73) rotate(-73.78)">i</text><text class="cls-1" transform="translate(465.06 483.65) rotate(-69.14)">l</text><text class="cls-1" transform="matrix(0.47, -0.88, 0.88, 0.47, 474.54, 455.11)">d</text><text class="cls-1" transform="translate(506.66 396.77) rotate(-54.53)"> </text><text class="cls-1" transform="translate(526.06 368.84) rotate(-48.65)">t</text><text class="cls-1" transform="matrix(0.76, -0.65, 0.65, 0.76, 555.26, 334.28)">h</text><text class="cls-1" transform="translate(604.75 291.73) rotate(-30.94)">e</text><text class="cls-1" transform="translate(660.77 259.13) rotate(-23.63)"> </text><text class="cls-1" transform="translate(689.8 243.09) rotate(-13.87)">W</text><text class="cls-1" transform="translate(784.76 220.92) rotate(-1.72)">o</text><text class="cls-1" transform="translate(852.77 219.36) rotate(6.84)">r</text><text class="cls-1" transform="translate(902.16 225.68) rotate(12.8)">l</text><text class="cls-1" transform="translate(931.75 231.07) rotate(20.01)">d</text><rect class="cls-2" width="1664" height="1212.06"/></g></g></g></svg>