<svg xmlns="http://www.w3.org/2000/svg" viewBox="0 0 832 1080"><defs><style>.cls-1{fill:none;}.cls-2{font-size:32px;fill:#232323;font-family:Consolas;}</style></defs><g id="Layer_2" data-name="Layer 2"><g id="Layer_1-2" data-name="Layer 1"><g id="left"><rect class="cls-1" width="832" height="1080"/><text class="cls-2" transform="matrix(-0.52, -0.85, 0.85, -0.52, 202.83, 937.25)">&lt;</text><text class="cls-2" transform="matrix(-0.5, -0.86, 0.86, -0.5, 193.69, 922.43)">i</text><text class="cls-2" transform="translate(184.91 907.4) rotate(-118.94)"> </text><text class="cls-2" transform="translate(176.47 892.14) rotate(-117.6)">c</text><text class="cls-2" transform="matrix(-0.44, -0.89, 0.9, -0.44, 168.41, 876.71)">l</text><text class="cls-2" transform="translate(160.69 861.07) rotate(-114.91)">a</text><text class="cls-2" transform="translate(153.35 845.26) rotate(-113.56)">s</text><text class="cls-2" transform="translate(146.38 829.29) rotate(-112.21)">s</text><text class="cls-2" transform="translate(139.8 813.16) rotate(-110.86)">=</text><text class="cls-2" transform="matrix(-0.33, -0.94, 0.94, -0.33, 133.6, 796.9)">&quot;</text><text class="cls-2" transform="translate(127.77 780.45) rotate(-108.16)">h</text><text class="cls-2" transform="translate(122.35 763.93) rotate(-106.81)">o</text><text class="cls-2" transform="translate(117.3 747.23) rotate(-105.46)">m</text><text class="cls-2" transform="translate(112.65 730.45) rotate(-104.11)">e</text><text class="cls-2" transform="translate(108.4 713.55) rotate(-102.77)">&quot;</text><text class="cls-2" transform="matrix(-0.2, -0.98, 0.98, -0.2, 104.55, 696.56)">&gt;</text><text class="cls-2" transform="translate(101.1 679.46) rotate(-100.07)">&lt;</text><text class="cls-2" transform="translate(98.05 662.31) rotate(-98.73)">/</text><text class="cls-2" transform="matrix(-0.13, -0.99, 0.99, -0.13, 95.41, 645.1)">i</text><text class="cls-2" transform="translate(93.16 627.8) rotate(-96.06)">&gt;</text><text class="cls-2" transform="matrix(0.01, -1, 1, 0.01, 87.99, 539.5)">&lt;</text><text class="cls-2" transform="translate(88.19 522.06) rotate(-88.02)">s</text><text class="cls-2" transform="matrix(0.06, -1, 1, 0.06, 88.79, 504.65)">p</text><text class="cls-2" transform="translate(89.79 487.26) rotate(-85.38)">a</text><text class="cls-2" transform="translate(91.19 469.89) rotate(-84.04)">n</text><text class="cls-2" transform="matrix(0.13, -0.99, 0.99, 0.13, 93, 452.56)">&gt;</text><text class="cls-2" transform="translate(95.2 435.28) rotate(-81.37)">H</text><text class="cls-2" transform="translate(97.82 418.05) rotate(-80.03)">e</text><text class="cls-2" transform="translate(100.83 400.89) rotate(-78.68)">l</text><text class="cls-2" transform="translate(104.25 383.8) rotate(-77.34)">l</text><text class="cls-2" transform="translate(108.07 366.82) rotate(-75.99)">o</text><text class="cls-2" transform="matrix(0.26, -0.96, 0.96, 0.26, 112.29, 349.92)">&amp;</text><text class="cls-2" transform="translate(116.9 333.1) rotate(-73.29)">#</text><text class="cls-2" transform="matrix(0.31, -0.95, 0.95, 0.31, 121.91, 316.4)">3</text><text class="cls-2" transform="translate(127.31 299.84) rotate(-70.59)">2</text><text class="cls-2" transform="translate(133.1 283.42) rotate(-69.24)">;</text><text class="cls-2" transform="matrix(0.38, -0.92, 0.93, 0.38, 139.27, 267.12)">W</text><text class="cls-2" transform="translate(145.83 250.98) rotate(-66.54)">o</text><text class="cls-2" transform="translate(152.76 235.01) rotate(-65.2)">r</text><text class="cls-2" transform="matrix(0.44, -0.9, 0.9, 0.44, 160.08, 219.17)">l</text><text class="cls-2" transform="translate(167.75 203.54) rotate(-62.5)">d</text><text class="cls-2" transform="matrix(0.48, -0.87, 0.88, 0.48, 175.8, 188.08)">&amp;</text><text class="cls-2" transform="translate(184.2 172.82) rotate(-59.82)">#</text><text class="cls-2" transform="matrix(0.52, -0.85, 0.85, 0.52, 192.96, 157.75)">3</text><text class="cls-2" transform="matrix(0.54, -0.84, 0.84, 0.54, 202.07, 142.89)">3</text><text class="cls-2" transform="translate(211.52 128.27) rotate(-55.8)">;</text><text class="cls-2" transform="translate(221.32 113.85) rotate(-54.46)">&lt;</text><text class="cls-2" transform="translate(231.44 99.68) rotate(-53.12)">/</text><text class="cls-2" transform="matrix(0.62, -0.78, 0.79, 0.62, 241.91, 85.73)">s</text><text class="cls-2" transform="matrix(0.64, -0.77, 0.77, 0.64, 252.68, 72.05)">p</text><text class="cls-2" transform="translate(127.22 747.44) rotate(-105.69)">&lt;</text><text class="cls-2" transform="translate(122.51 730.66) rotate(-104.32)">s</text><text class="cls-2" transform="translate(118.2 713.78) rotate(-102.96)">v</text><text class="cls-2" transform="matrix(-0.2, -0.98, 0.98, -0.2, 114.29, 696.8)">g</text><text class="cls-2" transform="translate(110.79 679.74) rotate(-100.23)"> </text><text class="cls-2" transform="matrix(-0.15, -0.99, 0.99, -0.15, 107.69, 662.6)">i</text><text class="cls-2" transform="matrix(-0.13, -0.99, 0.99, -0.13, 105, 645.36)">d</text><text class="cls-2" transform="translate(102.72 628.1) rotate(-96.16)">=</text><text class="cls-2" transform="matrix(-0.08, -0.99, 1, -0.08, 100.86, 610.79)">&quot;</text><text class="cls-2" transform="matrix(-0.06, -1, 1, -0.06, 99.39, 593.43)">L</text><text class="cls-2" transform="matrix(-0.04, -1, 1, -0.04, 98.34, 576.04)">a</text><text class="cls-2" transform="matrix(-0.01, -1, 1, -0.01, 97.69, 558.6)">y</text><text class="cls-2" transform="matrix(0.01, -1, 1, 0.01, 97.45, 541.19)">e</text><text class="cls-2" transform="matrix(0.03, -1, 1, 0.03, 97.61, 523.76)">r</text><text class="cls-2" transform="translate(98.18 506.36) rotate(-86.79)">_</text><text class="cls-2" transform="matrix(0.08, -0.99, 1, 0.08, 99.15, 488.96)">1</text><text class="cls-2" transform="translate(100.54 471.6) rotate(-84.1)">&quot;</text><text class="cls-2" transform="translate(102.33 454.26) rotate(-82.75)"> </text><text class="cls-2" transform="matrix(0.15, -0.99, 0.99, 0.15, 104.52, 436.97)">d</text><text class="cls-2" transform="matrix(0.17, -0.98, 0.98, 0.17, 107.13, 419.74)">a</text><text class="cls-2" transform="translate(110.15 402.59) rotate(-78.67)">t</text><text class="cls-2" transform="translate(113.57 385.5) rotate(-77.3)">a</text><text class="cls-2" transform="matrix(0.24, -0.97, 0.97, 0.24, 117.4, 368.5)">-</text><text class="cls-2" transform="translate(121.63 351.62) rotate(-74.57)">n</text><text class="cls-2" transform="translate(126.26 334.83) rotate(-73.21)">a</text><text class="cls-2" transform="translate(131.29 318.14) rotate(-71.84)">m</text><text class="cls-2" transform="translate(136.72 301.58) rotate(-70.47)">e</text><text class="cls-2" transform="translate(142.54 285.18) rotate(-69.11)">=</text><text class="cls-2" transform="translate(148.75 268.89) rotate(-67.74)">&quot;</text><text class="cls-2" transform="matrix(0.4, -0.91, 0.92, 0.4, 155.35, 252.76)">L</text><text class="cls-2" transform="matrix(0.42, -0.9, 0.91, 0.42, 162.34, 236.8)">a</text><text class="cls-2" transform="translate(169.7 221.01) rotate(-63.64)">y</text><text class="cls-2" transform="translate(177.43 205.39) rotate(-62.28)">e</text><text class="cls-2" transform="matrix(0.48, -0.87, 0.87, 0.49, 185.52, 189.99)">r</text><text class="cls-2" transform="matrix(0.51, -0.86, 0.86, 0.51, 194, 174.75)"> </text><text class="cls-2" transform="translate(202.82 159.73) rotate(-58.2)">1</text><text class="cls-2" transform="translate(212 144.92) rotate(-56.85)">&quot;</text><text class="cls-2" transform="translate(221.52 130.34) rotate(-55.49)"> </text><text class="cls-2" transform="matrix(-0.33, -0.94, 0.94, -0.33, 108.51, 800.85)">&lt;</text><text class="cls-2" transform="translate(102.79 784.38) rotate(-107.85)">d</text><text class="cls-2" transform="translate(97.45 767.81) rotate(-106.55)">i</text><text class="cls-2" transform="translate(92.48 751.09) rotate(-105.24)">v</text><text class="cls-2" transform="translate(87.9 734.3) rotate(-103.94)"> </text><text class="cls-2" transform="translate(83.7 717.36) rotate(-102.63)">c</text><text class="cls-2" transform="matrix(-0.2, -0.98, 0.98, -0.2, 79.89, 700.37)">l</text><text class="cls-2" transform="matrix(-0.17, -0.98, 0.98, -0.17, 76.46, 683.27)">a</text><text class="cls-2" transform="translate(73.43 666.13) rotate(-98.73)">s</text><text class="cls-2" transform="translate(70.78 648.9) rotate(-97.43)">s</text><text class="cls-2" transform="matrix(-0.11, -0.99, 0.99, -0.11, 68.52, 631.6)">=</text><text class="cls-2" transform="translate(66.66 614.29) rotate(-94.85)">&quot;</text><text class="cls-2" transform="translate(65.18 596.9) rotate(-93.56)">b</text><text class="cls-2" transform="matrix(-0.04, -1, 1, -0.04, 64.1, 579.53)">o</text><text class="cls-2" transform="matrix(-0.02, -1, 1, -0.02, 63.4, 562.1)">x</text><text class="cls-2" transform="translate(63.07 544.7) rotate(-89.57)">_</text><text class="cls-2" transform="translate(63.17 527.26) rotate(-88.47)">i</text><text class="cls-2" transform="matrix(0.05, -1, 1, 0.05, 63.64, 509.81)">m</text><text class="cls-2" transform="translate(64.49 492.42) rotate(-85.91)">a</text><text class="cls-2" transform="translate(65.73 475.03) rotate(-84.62)">g</text><text class="cls-2" transform="translate(67.37 457.67) rotate(-83.33)">e</text><text class="cls-2" transform="translate(69.39 440.36) rotate(-82.03)"> </text><text class="cls-2" transform="matrix(0.16, -0.98, 0.99, 0.16, 71.8, 423.1)">s</text><text class="cls-2" transform="translate(74.6 405.92) rotate(-79.44)">u</text><text class="cls-2" transform="matrix(0.21, -0.98, 0.98, 0.21, 77.8, 388.78)">n</text><text class="cls-2" transform="matrix(0.23, -0.97, 0.97, 0.23, 81.38, 371.73)">&quot;</text><text class="cls-2" transform="translate(85.35 354.76) rotate(-75.53)">&gt;</text><text class="cls-2" transform="matrix(0.27, -0.96, 0.96, 0.27, 89.7, 337.88)">&lt;</text><text class="cls-2" transform="matrix(0.29, -0.95, 0.96, 0.29, 94.44, 321.12)">i</text><text class="cls-2" transform="translate(99.55 304.46) rotate(-71.61)">m</text><text class="cls-2" transform="translate(105.06 287.91) rotate(-70.3)">g</text><text class="cls-2" transform="translate(110.93 271.5) rotate(-69)"> </text><text class="cls-2" transform="matrix(0.38, -0.92, 0.93, 0.38, 117.17, 255.24)">s</text><text class="cls-2" transform="matrix(0.4, -0.91, 0.92, 0.4, 123.79, 239.11)">r</text><text class="cls-2" transform="translate(130.77 223.14) rotate(-65.08)">c</text><text class="cls-2" transform="translate(138.11 207.32) rotate(-63.78)">=</text><text class="cls-2" transform="translate(145.8 191.7) rotate(-62.48)">&quot;</text><text class="cls-2" transform="translate(153.85 176.26) rotate(-61.18)">.</text><text class="cls-2" transform="translate(162.25 160.99) rotate(-59.88)">.</text><text class="cls-2" transform="matrix(0.52, -0.85, 0.85, 0.52, 171, 145.9)">/</text><text class="cls-2" transform="matrix(0.54, -0.84, 0.84, 0.54, 180.08, 131.04)">i</text><text class="cls-2" transform="translate(189.5 116.37) rotate(-55.99)">m</text><text class="cls-2" transform="translate(199.24 101.93) rotate(-54.69)">a</text><text class="cls-2" transform="translate(303.28 1022.01) rotate(-131.66)">&lt;</text><text class="cls-2" transform="translate(291.7 1009) rotate(-130.27)">s</text><text class="cls-2" transform="translate(280.44 995.7) rotate(-128.88)">p</text><text class="cls-2" transform="matrix(-0.61, -0.79, 0.79, -0.61, 269.49, 982.13)">a</text><text class="cls-2" transform="matrix(-0.59, -0.81, 0.81, -0.59, 258.89, 968.31)">n</text><text class="cls-2" transform="translate(248.64 954.25) rotate(-124.71)">&gt;</text><text class="cls-2" transform="matrix(-0.55, -0.83, 0.84, -0.55, 238.72, 939.94)">H</text><text class="cls-2" transform="matrix(-0.53, -0.85, 0.85, -0.53, 229.14, 925.37)">e</text><text class="cls-2" transform="matrix(-0.51, -0.86, 0.86, -0.51, 219.93, 910.59)">l</text><text class="cls-2" transform="translate(211.08 895.59) rotate(-119.13)">l</text><text class="cls-2" transform="translate(202.59 880.36) rotate(-117.73)">o</text><text class="cls-2" transform="matrix(-0.44, -0.89, 0.9, -0.44, 194.49, 864.95)">&amp;</text><text class="cls-2" transform="translate(186.76 849.35) rotate(-114.94)">#</text><text class="cls-2" transform="matrix(-0.4, -0.91, 0.92, -0.4, 179.41, 833.55)">3</text><text class="cls-2" transform="matrix(-0.38, -0.92, 0.93, -0.38, 172.45, 817.57)">2</text><text class="cls-2" transform="matrix(-0.35, -0.93, 0.94, -0.35, 165.89, 801.45)">;</text><text class="cls-2" transform="translate(159.73 785.16) rotate(-109.33)">W</text><text class="cls-2" transform="matrix(-0.31, -0.95, 0.95, -0.31, 153.96, 768.72)">o</text><text class="cls-2" transform="translate(148.6 752.16) rotate(-106.52)">r</text><text class="cls-2" transform="translate(143.64 735.45) rotate(-105.12)">l</text><text class="cls-2" transform="matrix(-0.24, -0.97, 0.97, -0.24, 139.1, 718.64)">d</text><text class="cls-2" transform="translate(134.96 701.7) rotate(-102.31)">&amp;</text><text class="cls-2" transform="translate(131.25 684.71) rotate(-100.92)">#</text><text class="cls-2" transform="translate(127.95 667.59) rotate(-99.52)">3</text><text class="cls-2" transform="translate(125.07 650.41) rotate(-98.12)">3</text><text class="cls-2" transform="matrix(-0.12, -0.99, 0.99, -0.12, 122.6, 633.16)">;</text><text class="cls-2" transform="translate(120.56 615.87) rotate(-95.35)">&lt;</text><text class="cls-2" transform="translate(118.94 598.51) rotate(-93.96)">/</text><text class="cls-2" transform="matrix(-0.04, -1, 1, -0.05, 117.73, 581.14)">s</text><text class="cls-2" transform="translate(116.95 563.73) rotate(-91.21)">p</text><text class="cls-2" transform="translate(116.57 546.34) rotate(-89.84)">a</text><text class="cls-2" transform="translate(116.62 528.9) rotate(-88.48)">n</text><text class="cls-2" transform="translate(117.08 511.5) rotate(-87.11)">&gt;</text><text class="cls-2" transform="translate(293.35 1001.55) rotate(-129.9)">&lt;</text><text class="cls-2" transform="translate(282.18 988.19) rotate(-128.5)">a</text><text class="cls-2" transform="translate(271.34 974.56) rotate(-127.1)"> </text><text class="cls-2" transform="translate(260.82 960.65) rotate(-125.69)">c</text><text class="cls-2" transform="translate(250.65 946.5) rotate(-124.29)">l</text><text class="cls-2" transform="matrix(-0.54, -0.84, 0.84, -0.54, 240.85, 932.12)">a</text><text class="cls-2" transform="matrix(-0.52, -0.85, 0.85, -0.52, 231.38, 917.49)">s</text><text class="cls-2" transform="matrix(-0.5, -0.86, 0.87, -0.5, 222.29, 902.64)">s</text><text class="cls-2" transform="translate(213.56 887.58) rotate(-118.67)">=</text><text class="cls-2" transform="translate(205.2 872.28) rotate(-117.25)">&quot;</text><text class="cls-2" transform="matrix(-0.43, -0.9, 0.9, -0.44, 197.23, 856.81)">b</text><text class="cls-2" transform="translate(189.63 841.12) rotate(-114.43)">e</text><text class="cls-2" transform="translate(182.43 825.27) rotate(-113.02)">s</text><text class="cls-2" transform="translate(175.62 809.25) rotate(-111.6)">t</text><text class="cls-2" transform="translate(169.2 793.05) rotate(-110.19)">_</text><text class="cls-2" transform="translate(163.18 776.69) rotate(-108.77)">d</text><text class="cls-2" transform="translate(157.57 760.2) rotate(-107.36)">a</text><text class="cls-2" transform="translate(152.38 743.58) rotate(-105.94)">y</text><text class="cls-2" transform="translate(147.6 726.86) rotate(-104.53)">&quot;</text><text class="cls-2" transform="translate(143.23 709.99) rotate(-103.12)"> </text><text class="cls-2" transform="translate(96.09 649.8) rotate(-97.76)">.</text><text class="cls-2" transform="translate(93.73 632.55) rotate(-96.42)">h</text><text class="cls-2" transform="translate(91.78 615.22) rotate(-95.09)">o</text><text class="cls-2" transform="matrix(-0.07, -1, 1, -0.07, 90.24, 597.86)">m</text><text class="cls-2" transform="translate(89.09 580.48) rotate(-92.44)">e</text><text class="cls-2" transform="translate(88.35 563.06) rotate(-91.12)"> </text><text class="cls-2" transform="matrix(0.01, -1, 1, 0.01, 87.98, 545.66)">{</text><text class="cls-2" transform="translate(88.07 528.22) rotate(-88.49)"> </text><text class="cls-2" transform="translate(88.53 510.8) rotate(-87.17)">c</text><text class="cls-2" transform="matrix(0.07, -0.99, 1, 0.07, 89.39, 493.4)">o</text><text class="cls-2" transform="translate(90.65 476.03) rotate(-84.52)">l</text><text class="cls-2" transform="translate(92.31 458.66) rotate(-83.18)">o</text><text class="cls-2" transform="matrix(0.14, -0.99, 0.99, 0.14, 94.38, 441.38)">r</text><text class="cls-2" transform="translate(96.85 424.12) rotate(-80.5)">:</text><text class="cls-2" transform="translate(99.72 406.95) rotate(-79.16)">#</text><text class="cls-2" transform="matrix(0.21, -0.97, 0.98, 0.21, 103, 389.82)">2</text><text class="cls-2" transform="matrix(0.23, -0.97, 0.97, 0.23, 106.68, 372.79)">3</text><text class="cls-2" transform="matrix(0.26, -0.96, 0.97, 0.26, 110.76, 355.85)">2</text><text class="cls-2" transform="translate(115.23 339.02) rotate(-73.77)">3</text><text class="cls-2" transform="translate(120.1 322.29) rotate(-72.42)">2</text><text class="cls-2" transform="translate(125.36 305.69) rotate(-71.07)">3</text><text class="cls-2" transform="translate(131.01 289.2) rotate(-69.72)">;</text><text class="cls-2" transform="translate(137.05 272.85) rotate(-68.37)"> </text><text class="cls-2" transform="matrix(0.39, -0.92, 0.92, 0.39, 143.48, 256.66)">f</text><text class="cls-2" transform="translate(150.28 240.62) rotate(-65.67)">o</text><text class="cls-2" transform="translate(157.45 224.74) rotate(-64.32)">n</text><text class="cls-2" transform="translate(165 209.04) rotate(-62.98)">t</text><text class="cls-2" transform="translate(172.92 193.51) rotate(-61.63)">-</text><text class="cls-2" transform="translate(181.2 178.17) rotate(-60.29)">s</text><text class="cls-2" transform="translate(189.83 163.05) rotate(-58.95)">i</text><text class="cls-2" transform="translate(198.81 148.12) rotate(-57.61)">z</text><text class="cls-2" transform="matrix(0.55, -0.83, 0.83, 0.56, 208.14, 133.42)">e</text><text class="cls-2" transform="translate(217.82 118.92) rotate(-54.93)">:</text><text class="cls-2" transform="matrix(0.59, -0.8, 0.8, 0.59, 227.83, 104.65)">1</text><text class="cls-2" transform="translate(238.17 90.63) rotate(-52.25)">e</text><text class="cls-2" transform="matrix(0.63, -0.77, 0.78, 0.63, 248.83, 76.86)">m</text><text class="cls-2" transform="matrix(0.65, -0.76, 0.76, 0.65, 259.83, 63.32)">;</text><text class="cls-2" transform="matrix(0.66, -0.75, 0.75, 0.66, 271.16, 50.06)"> </text><text class="cls-2" transform="translate(129.55 481.84) rotate(-84.68)">.</text><text class="cls-2" transform="matrix(0.12, -0.99, 0.99, 0.12, 131.17, 464.5)">b</text><text class="cls-2" transform="translate(133.21 447.18) rotate(-81.86)">o</text><text class="cls-2" transform="translate(135.68 429.93) rotate(-80.44)">x</text><text class="cls-2" transform="matrix(0.19, -0.98, 0.98, 0.19, 138.57, 412.77)">_</text><text class="cls-2" transform="translate(141.88 395.68) rotate(-77.6)">i</text><text class="cls-2" transform="matrix(0.24, -0.97, 0.97, 0.24, 145.62, 378.67)">m</text><text class="cls-2" transform="matrix(0.26, -0.96, 0.96, 0.26, 149.78, 361.74)">a</text><text class="cls-2" transform="translate(154.36 344.95) rotate(-73.33)">g</text><text class="cls-2" transform="translate(159.35 328.26) rotate(-71.91)">e</text><text class="cls-2" transform="translate(164.75 311.72) rotate(-70.48)"> </text><text class="cls-2" transform="translate(170.57 295.3) rotate(-69.06)">{</text><text class="cls-2" transform="translate(176.8 279.03) rotate(-67.63)"> </text><text class="cls-2" transform="matrix(0.4, -0.91, 0.92, 0.4, 183.43, 262.91)">w</text><text class="cls-2" transform="translate(190.45 246.98) rotate(-64.79)">i</text><text class="cls-2" transform="translate(197.87 231.21) rotate(-63.37)">d</text><text class="cls-2" transform="translate(205.67 215.65) rotate(-61.95)">t</text><text class="cls-2" transform="matrix(0.49, -0.87, 0.87, 0.49, 213.86, 200.29)">h</text><text class="cls-2" transform="translate(222.43 185.13) rotate(-59.11)"> </text><text class="cls-2" transform="translate(231.37 170.17) rotate(-57.7)">:</text><text class="cls-2" transform="matrix(0.55, -0.83, 0.83, 0.56, 240.68, 155.43)"> </text><text class="cls-2" transform="matrix(0.57, -0.82, 0.82, 0.58, 250.35, 140.94)">2</text><text class="cls-2" transform="matrix(0.59, -0.8, 0.8, 0.6, 260.37, 126.71)">4</text><text class="cls-2" transform="matrix(0.61, -0.79, 0.79, 0.62, 270.74, 112.71)">p</text><text class="cls-2" transform="translate(281.44 98.98) rotate(-50.64)">x</text><text class="cls-2" transform="matrix(0.65, -0.76, 0.76, 0.65, 292.5, 85.5)"> </text><text class="cls-2" transform="matrix(-0.51, -0.85, 0.86, -0.51, 259.6, 893.4)">.</text><text class="cls-2" transform="translate(250.63 878.47) rotate(-119.51)">b</text><text class="cls-2" transform="translate(242.05 863.31) rotate(-118.02)">o</text><text class="cls-2" transform="matrix(-0.45, -0.89, 0.89, -0.45, 233.87, 847.95)">x</text><text class="cls-2" transform="translate(226.1 832.37) rotate(-115.04)">_</text><text class="cls-2" transform="translate(218.73 816.6) rotate(-113.56)">i</text><text class="cls-2" transform="translate(211.76 800.64) rotate(-112.06)">m</text><text class="cls-2" transform="translate(205.22 784.5) rotate(-110.57)">a</text><text class="cls-2" transform="translate(199.1 768.2) rotate(-109.08)">g</text><text class="cls-2" transform="translate(193.4 751.74) rotate(-107.59)">e</text><text class="cls-2" transform="translate(188.14 735.15) rotate(-106.1)"> </text><text class="cls-2" transform="matrix(-0.25, -0.96, 0.97, -0.25, 183.32, 718.42)">&gt;</text><text class="cls-2" transform="matrix(-0.23, -0.97, 0.97, -0.23, 178.93, 701.58)"> </text><text class="cls-2" transform="translate(174.97 684.62) rotate(-101.62)">i</text><text class="cls-2" transform="translate(171.46 667.55) rotate(-100.14)">m</text><text class="cls-2" transform="matrix(-0.15, -0.99, 0.99, -0.15, 168.4, 650.43)">g</text><text class="cls-2" transform="translate(165.78 633.22) rotate(-97.17)">{</text><text class="cls-2" transform="translate(163.6 615.94) rotate(-95.7)"> </text><text class="cls-2" transform="translate(161.87 598.62) rotate(-94.23)">w</text><text class="cls-2" transform="matrix(-0.05, -1, 1, -0.05, 160.59, 581.26)">i</text><text class="cls-2" transform="translate(159.75 563.85) rotate(-91.3)">d</text><text class="cls-2" transform="matrix(0.01, -1, 1, 0.01, 159.32, 546.46)">t</text><text class="cls-2" transform="translate(159.39 529.05) rotate(-88.4)">h</text><text class="cls-2" transform="matrix(0.05, -1, 1, 0.05, 159.88, 511.63)"> </text><text class="cls-2" transform="translate(160.81 494.25) rotate(-85.47)">:</text><text class="cls-2" transform="matrix(0.1, -0.99, 0.99, 0.1, 162.18, 476.89)"> </text><text class="cls-2" transform="translate(164 459.55) rotate(-82.52)">1</text><text class="cls-2" transform="matrix(0.16, -0.99, 0.99, 0.16, 166.26, 442.3)">0</text><text class="cls-2" transform="translate(168.98 425.09) rotate(-79.55)">0</text><text class="cls-2" transform="matrix(0.21, -0.98, 0.98, 0.21, 172.13, 407.99)">%</text><text class="cls-2" transform="matrix(0.23, -0.97, 0.97, 0.23, 175.72, 390.95)">;</text><text class="cls-2" transform="matrix(0.26, -0.96, 0.97, 0.26, 179.77, 374.01)"> </text><text class="cls-2" transform="matrix(0.28, -0.96, 0.96, 0.28, 184.24, 357.19)">}</text><text class="cls-2" transform="matrix(-0.66, -0.75, 0.75, -0.66, 291.88, 1032.21)">.</text><text class="cls-2" transform="translate(280.31 1019.2) rotate(-130.3)">b</text><text class="cls-2" transform="matrix(-0.63, -0.78, 0.78, -0.63, 269.03, 1005.91)">e</text><text class="cls-2" transform="translate(258.08 992.36) rotate(-127.58)">s</text><text class="cls-2" transform="matrix(-0.59, -0.8, 0.81, -0.59, 247.46, 978.56)">t</text><text class="cls-2" transform="matrix(-0.57, -0.82, 0.82, -0.57, 237.16, 964.5)">_</text><text class="cls-2" transform="matrix(-0.55, -0.83, 0.83, -0.55, 227.21, 950.21)">d</text><text class="cls-2" transform="translate(217.59 935.68) rotate(-122.13)">a</text><text class="cls-2" transform="matrix(-0.51, -0.86, 0.86, -0.51, 208.33, 920.94)">y</text><text class="cls-2" transform="matrix(-0.49, -0.87, 0.87, -0.49, 199.41, 905.96)"> </text><text class="cls-2" transform="translate(190.86 890.78) rotate(-118.03)">{</text><text class="cls-2" transform="translate(182.67 875.4) rotate(-116.66)"> </text><text class="cls-2" transform="translate(174.86 859.84) rotate(-115.29)">f</text><text class="cls-2" transform="matrix(-0.4, -0.91, 0.91, -0.41, 167.41, 844.09)">o</text><text class="cls-2" transform="matrix(-0.38, -0.92, 0.92, -0.38, 160.35, 828.17)">n</text><text class="cls-2" transform="translate(153.67 812.08) rotate(-111.17)">t</text><text class="cls-2" transform="translate(147.38 795.83) rotate(-109.8)">-</text><text class="cls-2" transform="translate(141.47 779.43) rotate(-108.42)">s</text><text class="cls-2" transform="translate(135.96 762.91) rotate(-107.05)">i</text><text class="cls-2" transform="translate(130.85 746.24) rotate(-105.67)">z</text><text class="cls-2" transform="translate(126.14 729.47) rotate(-104.3)">e</text><text class="cls-2" transform="matrix(-0.22, -0.97, 0.97, -0.22, 121.84, 712.6)"> </text><text class="cls-2" transform="translate(117.94 695.61) rotate(-101.56)">:</text><text class="cls-2" transform="matrix(-0.18, -0.98, 0.98, -0.18, 114.45, 678.54)"> </text><text class="cls-2" transform="translate(111.37 661.42) rotate(-98.82)">1</text><text class="cls-2" transform="matrix(-0.13, -0.99, 0.99, -0.13, 108.69, 644.2)">.</text><text class="cls-2" transform="translate(106.43 626.91) rotate(-96.1)">2</text><text class="cls-2" transform="translate(104.58 609.6) rotate(-94.74)">e</text><text class="cls-2" transform="translate(103.14 592.24) rotate(-93.39)">m</text><text class="cls-2" transform="matrix(-0.04, -1, 1, -0.04, 102.11, 574.83)">;</text><text class="cls-2" transform="matrix(-0.01, -1, 1, -0.01, 101.48, 557.41)"> </text><text class="cls-2" transform="matrix(0.01, -1, 1, 0.01, 101.27, 540.02)">c</text><text class="cls-2" transform="translate(101.46 522.58) rotate(-88.03)">o</text><text class="cls-2" transform="matrix(0.06, -1, 1, 0.06, 102.06, 505.18)">l</text><text class="cls-2" transform="translate(103.06 487.77) rotate(-85.33)">o</text><text class="cls-2" transform="matrix(0.1, -0.99, 0.99, 0.1, 104.48, 470.41)">r</text><text class="cls-2" transform="translate(106.31 453.1) rotate(-82.62)"> </text><text class="cls-2" transform="translate(108.55 435.81) rotate(-81.25)">:</text><text class="cls-2" transform="translate(111.2 418.58) rotate(-79.88)"> </text><text class="cls-2" transform="translate(114.25 401.45) rotate(-78.52)">#</text><text class="cls-2" transform="translate(117.72 384.36) rotate(-77.14)">2</text><text class="cls-2" transform="translate(121.59 367.38) rotate(-75.77)">3</text><text class="cls-2" transform="translate(125.87 350.5) rotate(-74.4)">2</text><text class="cls-2" transform="translate(130.56 333.7) rotate(-73.02)">3</text><text class="cls-2" transform="translate(135.65 317.04) rotate(-71.65)">2</text><text class="cls-2" transform="translate(141.12 300.52) rotate(-70.28)">3</text><text class="cls-2" transform="translate(147.01 284.12) rotate(-68.9)">;</text><text class="cls-2" transform="translate(153.27 267.86) rotate(-67.53)"> </text><text class="cls-2" transform="matrix(-0.6, -0.76, 0.79, -0.62, 247.75, 1041.05)">$</text><text class="cls-2" transform="translate(237.31 1027.78) rotate(-126.95) scale(0.97 1)">(</text><text class="cls-2" transform="matrix(-0.56, -0.78, 0.81, -0.58, 227.17, 1014.29)">d</text><text class="cls-2" transform="translate(217.31 1000.58) rotate(-124.49) scale(0.97 1)">o</text><text class="cls-2" transform="translate(207.75 986.67) rotate(-123.26) scale(0.97 1)">c</text><text class="cls-2" transform="matrix(-0.51, -0.82, 0.85, -0.53, 198.5, 972.56)">u</text><text class="cls-2" transform="matrix(-0.49, -0.83, 0.86, -0.51, 189.56, 958.27)">m</text><text class="cls-2" transform="translate(180.91 943.76) rotate(-119.58) scale(0.97 1)">e</text><text class="cls-2" transform="translate(172.57 929.08) rotate(-118.36) scale(0.97 1)">n</text><text class="cls-2" transform="translate(164.56 914.24) rotate(-117.14) scale(0.97 1)">t</text><text class="cls-2" transform="translate(156.86 899.23) rotate(-115.92) scale(0.97 1)">)</text><text class="cls-2" transform="translate(149.48 884.05) rotate(-114.7) scale(0.97 1)">.</text><text class="cls-2" transform="matrix(-0.38, -0.89, 0.92, -0.4, 142.43, 868.71)">r</text><text class="cls-2" transform="matrix(-0.37, -0.89, 0.93, -0.38, 135.7, 853.23)">e</text><text class="cls-2" transform="translate(129.31 837.61) rotate(-111.05) scale(0.97 1)">a</text><text class="cls-2" transform="translate(123.24 821.86) rotate(-109.83) scale(0.97 1)">d</text><text class="cls-2" transform="translate(117.52 805.99) rotate(-108.62) scale(0.97 1)">y</text><text class="cls-2" transform="translate(112.13 790) rotate(-107.41) scale(0.97 1)">(</text><text class="cls-2" transform="translate(107.07 773.88) rotate(-106.2) scale(0.97 1)">f</text><text class="cls-2" transform="matrix(-0.25, -0.93, 0.97, -0.26, 102.37, 757.68)">u</text><text class="cls-2" transform="translate(98 741.37) rotate(-103.78) scale(0.97 1)">n</text><text class="cls-2" transform="matrix(-0.21, -0.94, 0.98, -0.22, 93.98, 724.98)">c</text><text class="cls-2" transform="translate(90.31 708.52) rotate(-101.37) scale(0.97 1)">t</text><text class="cls-2" transform="translate(86.97 691.95) rotate(-100.17) scale(0.97 1)">i</text><text class="cls-2" transform="translate(84 675.35) rotate(-98.97) scale(0.97 1)">o</text><text class="cls-2" transform="translate(81.37 658.69) rotate(-97.77) scale(0.97 1)">n</text><text class="cls-2" transform="matrix(-0.11, -0.96, 0.99, -0.11, 79.08, 641.97)">(</text><text class="cls-2" transform="matrix(-0.09, -0.96, 1, -0.09, 77.15, 625.2)"> </text><text class="cls-2" transform="translate(75.56 608.4) rotate(-94.21) scale(0.97 1)">)</text><text class="cls-2" transform="translate(74.32 591.57) rotate(-93.03) scale(0.97 1)"> </text><text class="cls-2" transform="translate(73.42 574.69) rotate(-91.85) scale(0.97 1)">{</text><text class="cls-2" transform="matrix(-0.01, -0.97, 1, -0.01, 72.88, 557.83)"> </text><text class="cls-2" transform="translate(72.68 540.95) rotate(-89.51) scale(0.97 1)">l</text><text class="cls-2" transform="translate(72.82 524.06) rotate(-88.34) scale(0.97 1)">e</text><text class="cls-2" transform="matrix(0.05, -0.96, 1, 0.05, 73.3, 507.18)">t</text><text class="cls-2" transform="translate(74.14 490.33) rotate(-85.99) scale(0.97 1)"> </text><text class="cls-2" transform="matrix(0.09, -0.96, 1, 0.09, 75.32, 473.49)">t</text><text class="cls-2" transform="translate(76.84 456.69) rotate(-83.62) scale(0.97 1)">o</text><text class="cls-2" transform="translate(78.72 439.9) rotate(-82.42) scale(0.97 1)">d</text><text class="cls-2" transform="translate(80.94 423.19) rotate(-81.23) scale(0.97 1)">a</text><text class="cls-2" transform="translate(83.51 406.5) rotate(-80.03) scale(0.97 1)">y</text><text class="cls-2" transform="matrix(0.19, -0.95, 0.98, 0.19, 86.44, 389.86)"> </text><text class="cls-2" transform="translate(89.7 373.31) rotate(-77.63) scale(0.97 1)">=</text><text class="cls-2" transform="translate(93.32 356.82) rotate(-76.42) scale(0.97 1)"> </text><text class="cls-2" transform="matrix(0.25, -0.93, 0.97, 0.26, 97.28, 340.43)">n</text><text class="cls-2" transform="translate(101.58 324.11) rotate(-74.01) scale(0.97 1)">e</text><text class="cls-2" transform="translate(106.24 307.87) rotate(-72.79) scale(0.97 1)">w</text><text class="cls-2" transform="translate(111.23 291.74) rotate(-71.58) scale(0.97 1)"> </text><text class="cls-2" transform="translate(116.56 275.73) rotate(-70.37) scale(0.97 1)">D</text><text class="cls-2" transform="matrix(0.34, -0.9, 0.93, 0.36, 122.22, 259.85)">a</text><text class="cls-2" transform="translate(128.23 244.07) rotate(-67.94) scale(0.97 1)">t</text><text class="cls-2" transform="matrix(0.38, -0.89, 0.92, 0.4, 134.57, 228.42)">e</text><text class="cls-2" transform="translate(141.24 212.92) rotate(-65.5) scale(0.97 1)">.</text><text class="cls-2" transform="translate(148.23 197.56) rotate(-64.28) scale(0.97 1)">g</text><text class="cls-2" transform="translate(155.55 182.36) rotate(-63.06) scale(0.97 1)">e</text><text class="cls-2" transform="matrix(0.46, -0.85, 0.88, 0.47, 163.2, 167.32)">t</text><text class="cls-2" transform="translate(171.16 152.44) rotate(-60.62) scale(0.97 1)">D</text><text class="cls-2" transform="translate(179.44 137.73) rotate(-59.4) scale(0.97 1)">a</text><text class="cls-2" transform="matrix(0.51, -0.82, 0.85, 0.53, 188.03, 123.2)">t</text><text class="cls-2" transform="matrix(0.53, -0.81, 0.84, 0.55, 196.92, 108.88)">e</text><text class="cls-2" transform="translate(206.13 94.71) rotate(-55.72) scale(0.97 1)">,</text><text class="cls-2" transform="matrix(0.56, -0.79, 0.81, 0.58, 215.64, 80.77)"> </text><text class="cls-2" transform="translate(156.27 740.58) rotate(-105.79)">&lt;</text><text class="cls-2" transform="matrix(-0.25, -0.97, 0.97, -0.25, 151.52, 723.81)"> </text><text class="cls-2" transform="translate(147.2 706.95) rotate(-102.95)">u</text><text class="cls-2" transform="translate(143.3 689.97) rotate(-101.53)">l</text><text class="cls-2" transform="translate(139.81 672.9) rotate(-100.11)"> </text><text class="cls-2" transform="matrix(-0.15, -0.99, 0.99, -0.15, 136.76, 655.76)">c</text><text class="cls-2" transform="translate(134.13 638.56) rotate(-97.28)">l</text><text class="cls-2" transform="translate(131.92 621.29) rotate(-95.87)">a</text><text class="cls-2" transform="translate(130.14 603.94) rotate(-94.46)">s</text><text class="cls-2" transform="matrix(-0.05, -1, 1, -0.05, 128.78, 586.56)">s</text><text class="cls-2" transform="translate(127.85 569.18) rotate(-91.67)"> </text><text class="cls-2" transform="matrix(0, -1, 1, 0, 127.34, 551.78)">=</text><text class="cls-2" transform="translate(127.25 534.34) rotate(-88.89)"> </text><text class="cls-2" transform="translate(127.59 516.94) rotate(-87.5)">&quot;</text><text class="cls-2" transform="matrix(0.07, -0.99, 1, 0.07, 128.35, 499.53)">c</text><text class="cls-2" transform="translate(129.53 482.16) rotate(-84.7)">o</text><text class="cls-2" transform="matrix(0.12, -0.99, 0.99, 0.12, 131.13, 464.81)">l</text><text class="cls-2" transform="translate(133.16 447.52) rotate(-81.88)">o</text><text class="cls-2" transform="translate(135.62 430.27) rotate(-80.47)">r</text><text class="cls-2" transform="translate(138.51 413.1) rotate(-79.05)">_</text><text class="cls-2" transform="translate(141.81 396) rotate(-77.63)">w</text><text class="cls-2" transform="translate(145.54 378.99) rotate(-76.21)">h</text><text class="cls-2" transform="translate(149.69 362.08) rotate(-74.78)">i</text><text class="cls-2" transform="translate(154.27 345.25) rotate(-73.36)">t</text><text class="cls-2" transform="translate(159.26 328.56) rotate(-71.93)">e</text><text class="cls-2" transform="translate(164.65 312.02) rotate(-70.51)">&quot;</text><text class="cls-2" transform="matrix(0.36, -0.93, 0.93, 0.36, 170.47, 295.59)"> </text><text class="cls-2" transform="translate(176.67 279.34) rotate(-67.66)">&gt;</text><text class="cls-2" transform="translate(183.29 263.23) rotate(-66.24)"> </text><text class="cls-2" transform="translate(190.31 247.29) rotate(-64.82)">&lt;</text><text class="cls-2" transform="matrix(0.45, -0.89, 0.89, 0.45, 197.72, 231.52)"> </text><text class="cls-2" transform="translate(205.53 215.94) rotate(-61.97)">l</text><text class="cls-2" transform="translate(213.7 200.58) rotate(-60.56)">i</text><text class="cls-2" transform="translate(222.27 185.39) rotate(-59.14)"> </text><text class="cls-2" transform="translate(231.2 170.45) rotate(-57.73)">&gt;</text><text class="cls-2" transform="translate(240.5 155.72) rotate(-56.31)"> </text><text class="cls-2" transform="translate(250.16 141.23) rotate(-54.9)">&lt;</text><text class="cls-2" transform="matrix(0.59, -0.8, 0.8, 0.6, 260.16, 126.99)"> </text><text class="cls-2" transform="translate(270.53 112.99) rotate(-52.08)">a</text><text class="cls-2" transform="matrix(0.63, -0.77, 0.77, 0.63, 281.23, 99.25)"> </text><text class="cls-2" transform="translate(292.28 85.76) rotate(-49.25)">h</text><text class="cls-2" transform="matrix(0.67, -0.74, 0.74, 0.67, 303.64, 72.57)">r</text><text class="cls-2" transform="translate(315.33 59.66) rotate(-46.44)">e</text><text class="cls-2" transform="matrix(0.7, -0.71, 0.71, 0.71, 327.33, 47.04)">f</text><text class="cls-2" transform="translate(339.69 34.72) rotate(-43.87)"> </text><text class="cls-2" transform="matrix(-0.7, -0.71, 0.71, -0.7, 345, 1034.5)">.</text><text class="cls-2" transform="translate(332.74 1022.12) rotate(-133.28)">v</text><text class="cls-2" transform="translate(320.79 1009.43) rotate(-131.85)">i</text><text class="cls-2" transform="translate(309.19 996.48) rotate(-130.42)">e</text><text class="cls-2" transform="translate(297.89 983.21) rotate(-128.98)">w</text><text class="cls-2" transform="translate(286.92 969.66) rotate(-127.55)">_</text><text class="cls-2" transform="translate(276.3 955.85) rotate(-126.12)">p</text><text class="cls-2" transform="matrix(-0.57, -0.82, 0.82, -0.57, 266.05, 941.8)">c</text><text class="cls-2" transform="matrix(-0.55, -0.83, 0.84, -0.55, 256.14, 927.48)"> </text><text class="cls-2" transform="matrix(-0.53, -0.85, 0.85, -0.53, 246.58, 912.91)">{</text><text class="cls-2" transform="matrix(-0.5, -0.86, 0.86, -0.51, 237.4, 898.11)"> </text><text class="cls-2" transform="translate(228.59 883.09) rotate(-118.94)">d</text><text class="cls-2" transform="matrix(-0.46, -0.88, 0.89, -0.46, 220.17, 867.86)">i</text><text class="cls-2" transform="matrix(-0.44, -0.9, 0.9, -0.44, 212.12, 852.4)">s</text><text class="cls-2" transform="translate(204.48 836.77) rotate(-114.61)">p</text><text class="cls-2" transform="matrix(-0.39, -0.92, 0.92, -0.39, 197.22, 820.93)">l</text><text class="cls-2" transform="matrix(-0.37, -0.93, 0.93, -0.37, 190.37, 804.93)">a</text><text class="cls-2" transform="matrix(-0.35, -0.94, 0.94, -0.35, 183.92, 788.76)">y</text><text class="cls-2" transform="matrix(-0.32, -0.94, 0.95, -0.32, 177.89, 772.42)"> </text><text class="cls-2" transform="translate(172.26 755.92) rotate(-107.38)">:</text><text class="cls-2" transform="matrix(-0.27, -0.96, 0.96, -0.27, 167.05, 739.31)"> </text><text class="cls-2" transform="translate(162.27 722.57) rotate(-104.49)">n</text><text class="cls-2" transform="translate(157.91 705.71) rotate(-103.05)">o</text><text class="cls-2" transform="translate(153.98 688.74) rotate(-101.6)">n</text><text class="cls-2" transform="translate(150.47 671.68) rotate(-100.16)">e</text><text class="cls-2" transform="translate(147.4 654.53) rotate(-98.72)"> </text><text class="cls-2" transform="matrix(-0.13, -0.99, 0.99, -0.13, 144.75, 637.32)">!</text><text class="cls-2" transform="translate(142.54 620.06) rotate(-95.86)">i</text><text class="cls-2" transform="translate(140.77 602.74) rotate(-94.43)">m</text><text class="cls-2" transform="translate(139.42 585.37) rotate(-93.01)">p</text><text class="cls-2" transform="matrix(-0.03, -1, 1, -0.03, 138.5, 567.98)">o</text><text class="cls-2" transform="translate(138.06 550.52) rotate(-90.47)">r</text><text class="cls-2" transform="translate(137.96 533.15) rotate(-88.78)">t</text><text class="cls-2" transform="translate(138.33 515.73) rotate(-87.37)">a</text><text class="cls-2" transform="matrix(0.07, -0.99, 1, 0.07, 139.12, 498.34)">n</text><text class="cls-2" transform="translate(140.35 480.96) rotate(-84.52)">t</text><text class="cls-2" transform="matrix(0.12, -0.99, 0.99, 0.12, 142.01, 463.62)">;</text><text class="cls-2" transform="translate(144.11 446.33) rotate(-81.66)"> </text><text class="cls-2" transform="matrix(0.17, -0.98, 0.99, 0.17, 146.63, 429.1)">o</text><text class="cls-2" transform="translate(149.59 411.93) rotate(-78.78)">v</text><text class="cls-2" transform="matrix(0.22, -0.97, 0.98, 0.22, 152.98, 394.86)">e</text><text class="cls-2" transform="matrix(0.24, -0.97, 0.97, 0.24, 156.8, 377.85)">r</text><text class="cls-2" transform="translate(161.04 360.97) rotate(-74.44)">f</text><text class="cls-2" transform="translate(165.7 344.21) rotate(-73)">l</text><text class="cls-2" transform="translate(170.8 327.53) rotate(-71.55)">o</text><text class="cls-2" transform="translate(176.3 311.03) rotate(-70.11)">w</text><text class="cls-2" transform="translate(182.23 294.66) rotate(-68.66)"> </text><text class="cls-2" transform="translate(188.56 278.44) rotate(-67.22)">:</text><text class="cls-2" transform="matrix(0.41, -0.91, 0.91, 0.41, 195.31, 262.37)"> </text><text class="cls-2" transform="matrix(0.43, -0.9, 0.9, 0.43, 202.45, 246.5)">h</text><text class="cls-2" transform="translate(210 230.78) rotate(-62.88)">i</text><text class="cls-2" transform="translate(217.94 215.29) rotate(-61.44)">d</text><text class="cls-2" transform="translate(226.26 200) rotate(-60)">d</text><text class="cls-2" transform="matrix(0.52, -0.85, 0.85, 0.52, 234.97, 184.91)">e</text><text class="cls-2" transform="matrix(0.54, -0.84, 0.84, 0.54, 244.04, 170.06)">n</text><text class="cls-2" transform="translate(253.49 155.43) rotate(-55.7)">;</text><text class="cls-2" transform="matrix(0.58, -0.81, 0.81, 0.58, 263.31, 141.03)"> </text><text class="cls-2" transform="translate(273.48 126.9) rotate(-52.83)">}</text><text class="cls-2" transform="translate(169.8 628.77) rotate(-96.84)"> </text><text class="cls-2" transform="matrix(-0.09, -0.99, 1, -0.09, 167.72, 611.51)">.</text><text class="cls-2" transform="matrix(-0.07, -0.99, 1, -0.07, 166.1, 594.17)">b</text><text class="cls-2" transform="translate(164.92 576.8) rotate(-92.4)">o</text><text class="cls-2" transform="translate(164.19 559.4) rotate(-90.94)">x</text><text class="cls-2" transform="translate(163.9 541.99) rotate(-89.48)">_</text><text class="cls-2" transform="translate(164.06 524.57) rotate(-88.01)">s</text><text class="cls-2" transform="translate(164.66 507.17) rotate(-86.54)">e</text><text class="cls-2" transform="matrix(0.09, -0.99, 1, 0.09, 165.71, 489.78)">c</text><text class="cls-2" transform="translate(167.21 472.44) rotate(-83.58)">t</text><text class="cls-2" transform="translate(169.15 455.15) rotate(-82.09)">i</text><text class="cls-2" transform="translate(171.55 437.88) rotate(-80.59)">o</text><text class="cls-2" transform="matrix(0.19, -0.98, 0.98, 0.19, 174.39, 420.72)">n</text><text class="cls-2" transform="translate(177.68 403.64) rotate(-77.6)">{</text><text class="cls-2" transform="translate(181.42 386.61) rotate(-76.1)"> </text><text class="cls-2" transform="translate(185.6 369.72) rotate(-74.6)">p</text><text class="cls-2" transform="matrix(0.29, -0.95, 0.96, 0.29, 190.22, 352.93)">a</text><text class="cls-2" transform="matrix(0.31, -0.95, 0.95, 0.32, 195.28, 336.27)">d</text><text class="cls-2" transform="matrix(0.34, -0.94, 0.94, 0.34, 200.78, 319.76)">d</text><text class="cls-2" transform="matrix(0.36, -0.93, 0.93, 0.37, 206.71, 303.38)">i</text><text class="cls-2" transform="translate(213.06 287.18) rotate(-67.09)">n</text><text class="cls-2" transform="translate(219.84 271.14) rotate(-65.59)">g</text><text class="cls-2" transform="matrix(0.44, -0.9, 0.9, 0.44, 227.02, 255.3)">-</text><text class="cls-2" transform="translate(234.63 239.64) rotate(-62.59)">t</text><text class="cls-2" transform="translate(242.65 224.17) rotate(-61.1)">o</text><text class="cls-2" transform="translate(251.05 208.94) rotate(-59.6)">p</text><text class="cls-2" transform="matrix(0.53, -0.85, 0.85, 0.53, 259.87, 193.91)"> </text><text class="cls-2" transform="translate(269.06 179.14) rotate(-56.62)">:</text><text class="cls-2" transform="matrix(0.57, -0.82, 0.82, 0.57, 278.65, 164.58)"> </text><text class="cls-2" transform="translate(288.59 150.32) rotate(-53.64)">c</text><text class="cls-2" transform="translate(298.92 136.29) rotate(-52.15)">a</text><text class="cls-2" transform="matrix(0.63, -0.77, 0.77, 0.63, 309.6, 122.54)">l</text><text class="cls-2" transform="matrix(0.65, -0.75, 0.76, 0.65, 320.64, 109.07)">c</text><text class="cls-2" transform="matrix(0.67, -0.74, 0.74, 0.67, 332.02, 95.89)">(</text><text class="cls-2" transform="translate(343.74 83.02) rotate(-46.2)"> </text><text class="cls-2" transform="matrix(0.71, -0.7, 0.7, 0.71, 355.78, 70.46)">(</text><text class="cls-2" transform="translate(368.14 58.21) rotate(-43.23)"> </text><text class="cls-2" transform="translate(319.84 998.13) rotate(-131.1)"> </text><text class="cls-2" transform="translate(308.4 985.03) rotate(-129.65)">.</text><text class="cls-2" transform="translate(297.29 971.62) rotate(-128.21)">b</text><text class="cls-2" transform="translate(286.52 957.94) rotate(-126.76)">o</text><text class="cls-2" transform="matrix(-0.58, -0.81, 0.82, -0.58, 276.09, 943.97)">x</text><text class="cls-2" transform="matrix(-0.56, -0.83, 0.83, -0.56, 266.02, 929.76)">_</text><text class="cls-2" transform="translate(256.32 915.31) rotate(-122.41)">s</text><text class="cls-2" transform="translate(246.98 900.6) rotate(-120.96)">e</text><text class="cls-2" transform="matrix(-0.49, -0.87, 0.87, -0.49, 238.03, 885.69)">c</text><text class="cls-2" transform="matrix(-0.47, -0.88, 0.88, -0.47, 229.44, 870.52)">t</text><text class="cls-2" transform="translate(221.25 855.15) rotate(-116.6)">i</text><text class="cls-2" transform="matrix(-0.42, -0.9, 0.91, -0.42, 213.45, 839.59)">o</text><text class="cls-2" transform="matrix(-0.4, -0.91, 0.92, -0.4, 206.05, 823.82)">n</text><text class="cls-2" transform="translate(199.05 807.87) rotate(-112.22)"> </text><text class="cls-2" transform="translate(192.47 791.76) rotate(-110.77)">&gt;</text><text class="cls-2" transform="translate(186.3 775.49) rotate(-109.3)"> </text><text class="cls-2" transform="translate(180.54 759.04) rotate(-107.84)">.</text><text class="cls-2" transform="translate(175.2 742.46) rotate(-106.38)">b</text><text class="cls-2" transform="translate(170.29 725.76) rotate(-104.92)">o</text><text class="cls-2" transform="matrix(-0.23, -0.97, 0.97, -0.23, 165.8, 708.94)">x</text><text class="cls-2" transform="translate(161.75 692.02) rotate(-102.01)">_</text><text class="cls-2" transform="matrix(-0.18, -0.98, 0.98, -0.18, 158.12, 674.97)">b</text><text class="cls-2" transform="translate(154.93 657.85) rotate(-99.09)">g</text><text class="cls-2" transform="translate(152.18 640.67) rotate(-97.64)">d</text><text class="cls-2" transform="translate(149.86 623.39) rotate(-96.2)">e</text><text class="cls-2" transform="translate(147.98 606.1) rotate(-94.76)">c</text><text class="cls-2" transform="translate(146.54 588.74) rotate(-93.32)">o</text><text class="cls-2" transform="matrix(-0.03, -1, 1, -0.03, 145.53, 571.36)">r</text><text class="cls-2" transform="translate(144.95 553.93) rotate(-90.46)">a</text><text class="cls-2" transform="translate(144.81 536.53) rotate(-89.04)">t</text><text class="cls-2" transform="matrix(0.04, -1, 1, 0.04, 145.1, 519.12)">i</text><text class="cls-2" transform="translate(145.82 501.7) rotate(-86.18)">o</text><text class="cls-2" transform="translate(146.98 484.33) rotate(-84.75)">n</text><text class="cls-2" transform="translate(148.57 467) rotate(-83.3)"> </text><text class="cls-2" transform="translate(150.6 449.7) rotate(-81.85)">{</text><text class="cls-2" transform="matrix(0.17, -0.98, 0.99, 0.17, 153.06, 432.46)"> </text><text class="cls-2" transform="matrix(0.19, -0.98, 0.98, 0.19, 155.96, 415.3)">t</text><text class="cls-2" transform="translate(159.3 398.19) rotate(-77.49)">o</text><text class="cls-2" transform="translate(163.08 381.19) rotate(-76.03)">p</text><text class="cls-2" transform="matrix(0.27, -0.96, 0.96, 0.27, 167.27, 364.31)"> </text><text class="cls-2" transform="matrix(0.29, -0.95, 0.96, 0.29, 171.9, 347.51)">:</text><text class="cls-2" transform="matrix(0.31, -0.95, 0.95, 0.31, 176.96, 330.85)"> </text><text class="cls-2" transform="translate(182.44 314.33) rotate(-70.19)">c</text><text class="cls-2" transform="matrix(0.36, -0.93, 0.93, 0.36, 188.34, 297.95)">a</text><text class="cls-2" transform="translate(194.66 281.7) rotate(-67.27)">l</text><text class="cls-2" transform="translate(201.38 265.66) rotate(-65.81)">c</text><text class="cls-2" transform="translate(208.52 249.76) rotate(-64.35)">(</text><text class="cls-2" transform="translate(216.05 234.07) rotate(-62.9)"> </text><text class="cls-2" transform="matrix(0.48, -0.88, 0.88, 0.48, 223.98, 218.58)">(</text><text class="cls-2" transform="translate(232.3 203.28) rotate(-59.99)"> </text><text class="cls-2" transform="translate(241.02 188.19) rotate(-58.54)">1</text><text class="cls-2" transform="matrix(0.54, -0.84, 0.84, 0.54, 250.1, 173.35)">0</text><text class="cls-2" transform="translate(259.56 158.72) rotate(-55.64)">0</text><text class="cls-2" transform="matrix(0.58, -0.81, 0.81, 0.59, 269.4, 144.33)">v</text><text class="cls-2" transform="matrix(0.6, -0.79, 0.8, 0.61, 279.58, 130.23)">w</text><text class="cls-2" transform="matrix(0.62, -0.78, 0.78, 0.63, 290.13, 116.36)"> </text><text class="cls-2" transform="translate(301.02 102.76) rotate(-49.85)">/</text><text class="cls-2" transform="translate(312.25 89.44) rotate(-48.4)"> </text><text class="cls-2" transform="translate(323.79 76.44) rotate(-46.96)">3</text><text class="cls-2" transform="translate(335.68 63.71) rotate(-45.51)">7</text><text class="cls-2" transform="matrix(0.72, -0.69, 0.7, 0.72, 347.88, 51.28)">5</text><text class="cls-2" transform="translate(360.4 39.17) rotate(-42.62)"> </text><text class="cls-2" transform="translate(306.03 1021.62) rotate(-131.78)">$</text><text class="cls-2" transform="matrix(-0.65, -0.76, 0.76, -0.65, 294.44, 1008.65)">(</text><text class="cls-2" transform="translate(283.15 995.39) rotate(-129)">&quot;</text><text class="cls-2" transform="matrix(-0.61, -0.79, 0.79, -0.61, 272.17, 981.83)">.</text><text class="cls-2" transform="translate(261.56 968.05) rotate(-126.21)">b</text><text class="cls-2" transform="matrix(-0.57, -0.82, 0.82, -0.57, 251.27, 954)">o</text><text class="cls-2" transform="translate(241.32 939.69) rotate(-123.42)">x</text><text class="cls-2" transform="translate(231.73 925.16) rotate(-122.02)">_</text><text class="cls-2" transform="translate(222.48 910.38) rotate(-120.62)">o</text><text class="cls-2" transform="matrix(-0.49, -0.87, 0.87, -0.49, 213.61, 895.38)">u</text><text class="cls-2" transform="translate(205.11 880.18) rotate(-117.82)">t</text><text class="cls-2" transform="translate(196.98 864.78) rotate(-116.41)">e</text><text class="cls-2" transform="translate(189.23 849.19) rotate(-115.01)">r</text><text class="cls-2" transform="matrix(-0.4, -0.91, 0.92, -0.4, 181.87, 833.41)">l</text><text class="cls-2" transform="matrix(-0.38, -0.92, 0.93, -0.38, 174.88, 817.43)">i</text><text class="cls-2" transform="translate(168.3 801.3) rotate(-110.79)">n</text><text class="cls-2" transform="translate(162.12 785.04) rotate(-109.38)">k</text><text class="cls-2" transform="translate(156.34 768.61) rotate(-107.98)">&quot;</text><text class="cls-2" transform="translate(150.96 752.04) rotate(-106.57)">)</text><text class="cls-2" transform="matrix(-0.26, -0.96, 0.97, -0.26, 146, 735.35)">.</text><text class="cls-2" transform="translate(141.44 718.53) rotate(-103.75)">c</text><text class="cls-2" transform="translate(137.29 701.6) rotate(-102.35)">l</text><text class="cls-2" transform="translate(133.57 684.61) rotate(-100.94)">i</text><text class="cls-2" transform="translate(130.26 667.5) rotate(-99.54)">c</text><text class="cls-2" transform="translate(127.37 650.32) rotate(-98.14)">k</text><text class="cls-2" transform="translate(124.9 633.07) rotate(-96.75)">(</text><text class="cls-2" transform="translate(122.86 615.77) rotate(-95.35)">f</text><text class="cls-2" transform="matrix(-0.07, -0.99, 1, -0.07, 121.23, 598.43)">u</text><text class="cls-2" transform="translate(120.02 581.04) rotate(-92.59)">n</text><text class="cls-2" transform="translate(119.24 563.66) rotate(-91.21)">c</text><text class="cls-2" transform="translate(118.82 546.25) rotate(-89.56)">t</text><text class="cls-2" transform="translate(118.91 528.83) rotate(-88.47)">i</text><text class="cls-2" transform="translate(119.37 511.4) rotate(-87.09)">o</text><text class="cls-2" transform="translate(120.26 494.01) rotate(-85.71)">n</text><text class="cls-2" transform="translate(121.56 476.63) rotate(-84.32)">(</text><text class="cls-2" transform="translate(123.28 459.3) rotate(-82.93)"> </text><text class="cls-2" transform="translate(125.42 442) rotate(-81.53)">)</text><text class="cls-2" transform="matrix(0.17, -0.98, 0.99, 0.17, 127.98, 424.78)">{</text><text class="cls-2" transform="translate(130.97 407.61) rotate(-78.73)"> </text><text class="cls-2" transform="translate(134.37 390.54) rotate(-77.33)">v</text><text class="cls-2" transform="translate(138.19 373.53) rotate(-75.92)">a</text><text class="cls-2" transform="translate(142.43 356.64) rotate(-74.51)">r</text><text class="cls-2" transform="matrix(0.29, -0.95, 0.96, 0.29, 147.07, 339.87)"> </text><text class="cls-2" transform="matrix(0.31, -0.95, 0.95, 0.31, 152.14, 323.18)">t</text><text class="cls-2" transform="matrix(0.34, -0.94, 0.94, 0.34, 157.6, 306.67)">e</text><text class="cls-2" transform="matrix(0.36, -0.93, 0.93, 0.36, 163.47, 290.27)">s</text><text class="cls-2" transform="translate(169.75 274) rotate(-67.48)">t</text><text class="cls-2" transform="matrix(0.4, -0.91, 0.91, 0.41, 176.42, 257.92)"> </text><text class="cls-2" transform="translate(183.49 241.99) rotate(-64.66)">=</text><text class="cls-2" transform="translate(190.93 226.26) rotate(-63.26)"> </text><text class="cls-2" transform="matrix(-0.62, -0.78, 0.79, -0.62, 303.98, 966.51)">c</text><text class="cls-2" transform="translate(293.21 952.84) rotate(-126.75)">o</text><text class="cls-2" transform="translate(282.79 938.89) rotate(-125.29)">n</text><text class="cls-2" transform="translate(272.73 924.69) rotate(-123.82)">s</text><text class="cls-2" transform="translate(263.04 910.22) rotate(-122.35)">t</text><text class="cls-2" transform="translate(253.72 895.52) rotate(-120.89)"> </text><text class="cls-2" transform="translate(244.77 880.56) rotate(-119.41)">s</text><text class="cls-2" transform="translate(236.21 865.38) rotate(-117.94)">w</text><text class="cls-2" transform="matrix(-0.44, -0.89, 0.9, -0.45, 228.07, 850.03)">i</text><text class="cls-2" transform="translate(220.3 834.43) rotate(-114.99)">p</text><text class="cls-2" transform="translate(212.94 818.65) rotate(-113.52)">e</text><text class="cls-2" transform="translate(205.99 802.68) rotate(-112.04)">r</text><text class="cls-2" transform="matrix(-0.35, -0.93, 0.94, -0.35, 199.45, 786.54)"> </text><text class="cls-2" transform="translate(193.34 770.24) rotate(-109.08)">=</text><text class="cls-2" transform="matrix(-0.3, -0.95, 0.95, -0.3, 187.65, 753.8)"> </text><text class="cls-2" transform="translate(182.38 737.2) rotate(-106.13)">n</text><text class="cls-2" transform="matrix(-0.25, -0.96, 0.97, -0.25, 177.54, 720.48)">e</text><text class="cls-2" transform="matrix(-0.23, -0.97, 0.97, -0.23, 173.13, 703.62)">w</text><text class="cls-2" transform="matrix(-0.2, -0.98, 0.98, -0.2, 169.17, 686.68)"> </text><text class="cls-2" transform="translate(165.63 669.62) rotate(-100.22)">S</text><text class="cls-2" transform="translate(162.55 652.5) rotate(-98.75)">w</text><text class="cls-2" transform="translate(159.89 635.28) rotate(-97.28)">i</text><text class="cls-2" transform="matrix(-0.1, -0.99, 0.99, -0.1, 157.69, 618.01)">p</text><text class="cls-2" transform="matrix(-0.08, -0.99, 1, -0.08, 155.92, 600.66)">e</text><text class="cls-2" transform="translate(154.59 583.32) rotate(-92.91)">r</text><text class="cls-2" transform="translate(153.71 565.93) rotate(-91.46)">(</text><text class="cls-2" transform="translate(153.33 548.52) rotate(-90.46)">&quot;</text><text class="cls-2" transform="translate(153.25 531.1) rotate(-88.58)">.</text><text class="cls-2" transform="translate(153.68 513.7) rotate(-87.14)">s</text><text class="cls-2" transform="translate(154.55 496.28) rotate(-85.68)">w</text><text class="cls-2" transform="translate(155.86 478.95) rotate(-84.23)">i</text><text class="cls-2" transform="translate(157.61 461.61) rotate(-82.76)">p</text><text class="cls-2" transform="translate(159.8 444.34) rotate(-81.3)">e</text><text class="cls-2" transform="translate(162.43 427.14) rotate(-79.83)">r</text><text class="cls-2" transform="translate(165.51 409.99) rotate(-78.35)">&quot;</text><text class="cls-2" transform="translate(169.02 392.93) rotate(-76.87)">,</text><text class="cls-2" transform="translate(172.98 375.97) rotate(-75.4)"> </text><text class="cls-2" transform="translate(177.37 359.11) rotate(-73.92)">{</text><text class="cls-2" transform="translate(182.18 342.39) rotate(-72.44)"> </text><text class="cls-2" transform="translate(187.43 325.8) rotate(-70.96)">l</text><text class="cls-2" transform="matrix(0.35, -0.93, 0.94, 0.35, 193.12, 309.33)">o</text><text class="cls-2" transform="translate(199.22 293.03) rotate(-68)">o</text><text class="cls-2" transform="translate(205.73 276.9) rotate(-66.53)">p</text><text class="cls-2" transform="translate(212.67 260.91) rotate(-65.05)">:</text><text class="cls-2" transform="translate(220.01 245.12) rotate(-63.58)">t</text><text class="cls-2" transform="translate(227.76 229.53) rotate(-62.1)">r</text><text class="cls-2" transform="translate(235.91 214.13) rotate(-60.63)">u</text><text class="cls-2" transform="translate(244.44 198.97) rotate(-59.16)">e</text><text class="cls-2" transform="matrix(0.53, -0.84, 0.85, 0.53, 253.37, 184.01)">,</text><text class="cls-2" transform="matrix(0.55, -0.83, 0.83, 0.56, 262.68, 169.29)"> </text><text class="cls-2" transform="translate(303.31 1034.45) rotate(-132.39)">$</text><text class="cls-2" transform="matrix(-0.65, -0.75, 0.75, -0.66, 291.58, 1021.6)">(</text><text class="cls-2" transform="matrix(-0.64, -0.77, 0.77, -0.64, 280.14, 1008.45)">&quot;</text><text class="cls-2" transform="matrix(-0.62, -0.78, 0.79, -0.62, 269.03, 995.04)">.</text><text class="cls-2" transform="translate(258.23 981.36) rotate(-126.9)">w</text><text class="cls-2" transform="translate(247.77 967.42) rotate(-125.52)">r</text><text class="cls-2" transform="matrix(-0.56, -0.83, 0.83, -0.56, 237.65, 953.25)">a</text><text class="cls-2" transform="matrix(-0.54, -0.84, 0.84, -0.54, 227.86, 938.82)">p</text><text class="cls-2" transform="matrix(-0.52, -0.85, 0.85, -0.52, 218.43, 924.18)">_</text><text class="cls-2" transform="matrix(-0.5, -0.86, 0.87, -0.5, 209.36, 909.32)">f</text><text class="cls-2" transform="translate(200.64 894.23) rotate(-118.63)">u</text><text class="cls-2" transform="translate(192.29 878.94) rotate(-117.25)">l</text><text class="cls-2" transform="translate(184.31 863.46) rotate(-115.87)">l</text><text class="cls-2" transform="translate(176.71 847.79) rotate(-114.49)">p</text><text class="cls-2" transform="translate(169.49 831.94) rotate(-113.1)">a</text><text class="cls-2" transform="translate(162.66 815.92) rotate(-111.72)">g</text><text class="cls-2" transform="translate(156.21 799.73) rotate(-110.33)">e</text><text class="cls-2" transform="translate(150.15 783.39) rotate(-108.94)">&quot;</text><text class="cls-2" transform="translate(144.5 766.92) rotate(-107.56)">)</text><text class="cls-2" transform="translate(139.24 750.31) rotate(-106.17)">.</text><text class="cls-2" transform="translate(134.39 733.59) rotate(-104.78)">f</text><text class="cls-2" transform="matrix(-0.23, -0.97, 0.97, -0.23, 129.94, 716.73)">u</text><text class="cls-2" transform="translate(125.91 699.78) rotate(-102.01)">l</text><text class="cls-2" transform="translate(122.28 682.75) rotate(-100.63)">l</text><text class="cls-2" transform="translate(119.07 665.63) rotate(-99.25)">p</text><text class="cls-2" transform="translate(116.27 648.44) rotate(-97.87)">a</text><text class="cls-2" transform="translate(113.88 631.18) rotate(-96.49)">g</text><text class="cls-2" transform="translate(111.91 613.86) rotate(-95.12)">e</text><text class="cls-2" transform="matrix(-0.07, -1, 1, -0.07, 110.35, 596.53)">(</text><text class="cls-2" transform="translate(109.21 579.14) rotate(-92.4)"> </text><text class="cls-2" transform="translate(108.48 561.73) rotate(-91.04)">{</text><text class="cls-2" transform="translate(108.13 544.31) rotate(-89.55)"> </text><text class="cls-2" transform="translate(108.25 526.88) rotate(-88.34)">n</text><text class="cls-2" transform="translate(108.75 509.47) rotate(-86.99)">a</text><text class="cls-2" transform="translate(109.66 492.09) rotate(-85.62)">v</text><text class="cls-2" transform="matrix(0.1, -0.99, 0.99, 0.1, 110.99, 474.71)">i</text><text class="cls-2" transform="matrix(0.12, -0.99, 0.99, 0.12, 112.73, 457.38)">g</text><text class="cls-2" transform="translate(114.89 440.07) rotate(-81.51)">a</text><text class="cls-2" transform="translate(117.46 422.86) rotate(-80.13)">t</text><text class="cls-2" transform="translate(120.44 405.7) rotate(-78.75)">i</text><text class="cls-2" transform="translate(123.84 388.62) rotate(-77.36)">o</text><text class="cls-2" transform="translate(127.65 371.62) rotate(-75.98)">n</text><text class="cls-2" transform="translate(131.88 354.7) rotate(-74.59)"> </text><text class="cls-2" transform="translate(136.5 337.91) rotate(-73.2)">:</text><text class="cls-2" transform="matrix(0.31, -0.95, 0.95, 0.31, 141.53, 321.25)"> </text><text class="cls-2" transform="matrix(0.33, -0.94, 0.94, 0.33, 146.96, 304.7)">t</text><text class="cls-2" transform="translate(152.81 288.26) rotate(-69.04)">r</text><text class="cls-2" transform="translate(159.03 272) rotate(-67.66)">u</text><text class="cls-2" transform="translate(165.65 255.89) rotate(-66.27)">e</text><text class="cls-2" transform="translate(172.66 239.95) rotate(-64.89)">,</text><text class="cls-2" transform="matrix(0.44, -0.89, 0.89, 0.45, 180.06, 224.16)"> </text><text class="cls-2" transform="translate(187.82 208.58) rotate(-62.12)">a</text><text class="cls-2" transform="matrix(0.49, -0.87, 0.87, 0.49, 195.96, 193.19)">f</text><text class="cls-2" transform="translate(204.48 177.98) rotate(-59.36)">t</text><text class="cls-2" transform="translate(213.36 162.98) rotate(-57.98)">e</text><text class="cls-2" transform="translate(222.59 148.22) rotate(-56.6)">r</text><text class="cls-2" transform="translate(232.19 133.66) rotate(-55.23)">L</text><text class="cls-2" transform="matrix(0.59, -0.81, 0.81, 0.59, 242.12, 119.36)">o</text><text class="cls-2" transform="matrix(0.61, -0.79, 0.79, 0.61, 252.38, 105.31)">a</text><text class="cls-2" transform="matrix(0.63, -0.78, 0.78, 0.63, 262.99, 91.49)">d</text><text class="cls-2" transform="translate(273.92 77.93) rotate(-49.73)"> </text><text class="cls-2" transform="matrix(0.66, -0.75, 0.75, 0.66, 285.19, 64.62)">:</text><text class="cls-2" transform="matrix(0.68, -0.73, 0.73, 0.68, 296.77, 51.59)"> </text></g></g></g></svg>