<svg xmlns="http://www.w3.org/2000/svg" viewBox="0 0 832 1080">
<defs>
<style>
.cls-1{fill:none;}.cls-2{font-size:40px;fill:#232323;font-family:NotoSerif-Bold, Noto Serif;font-weight:700;}
</style>
</defs>
<g id="Layer_2" data-name="Layer 2">
<g id="Layer_1-2" data-name="Layer 1">
<g id="right">
<rect class="cls-1" width="832" height="1080"/><text class="cls-2" transform="matrix(0.06, 1, -1, 0.06, 741.84, 482.73)">T</text><text class="cls-2" transform="translate(743.29 507.43) rotate(88.46)">o</text><text class="cls-2" transform="translate(743.96 531.69) rotate(90.35)">d</text><text class="cls-2" transform="translate(743.79 557.45) rotate(92.23)">a</text><text class="cls-2" transform="translate(742.91 580.37) rotate(93.94)">y</text><text class="cls-2" transform="translate(741.25 603.33) rotate(95.22)"> </text><text class="cls-2" transform="matrix(-0.11, 0.99, -0.99, -0.11, 740.34, 613.56)">i</text><text class="cls-2" transform="translate(738.88 627.42) rotate(97.43)">s</text><text class="cls-2" transform="translate(736.32 646.65) rotate(98.57)"> </text><text class="cls-2" transform="translate(734.82 656.8) rotate(99.59)">t</text><text class="cls-2" transform="translate(732.24 672.57) rotate(101.23)">h</text><text class="cls-2" transform="matrix(-0.23, 0.97, -0.97, -0.23, 727.05, 698.53)">e</text><text class="cls-2" transform="translate(721.84 720.6) rotate(104.41)"> </text><text class="cls-2" transform="translate(719.39 730.51) rotate(105.8)">b</text><text class="cls-2" transform="matrix(-0.3, 0.95, -0.95, -0.3, 712.36, 755.29)">e</text><text class="cls-2" transform="translate(705.46 776.86) rotate(109.31)">s</text><text class="cls-2" transform="translate(699.05 795.09) rotate(110.68)">t</text><text class="cls-2" transform="matrix(-0.37, 0.93, -0.93, -0.37, 693.35, 810.12)"> </text><text class="cls-2" transform="translate(689.66 819.67) rotate(113.1)">d</text><text class="cls-2" transform="translate(679.54 843.34) rotate(115.02)">a</text><text class="cls-2" transform="translate(669.84 864.15) rotate(116.76)">y</text><text class="cls-2" transform="matrix(-0.47, 0.88, -0.88, -0.47, 661.07, 881.5)">.</text>
</g>
</g>
</g>
</svg>