<svg xmlns="http://www.w3.org/2000/svg" viewBox="0 0 832 1080">
<defs>
<style>
.cls-1{fill:none;
}.cls-2{font-size:32px;fill:#232323;font-family:Consolas;}
</style>
</defs>
<g id="Layer_2" data-name="Layer 2">
<g id="Layer_1-2" data-name="Layer 1">
<g id="left">
<rect class="cls-1" width="832" height="1080"/><text class="cls-2" transform="matrix(-0.62, -0.78, 0.79, -0.62, 303.98, 966.51)">c</text><text class="cls-2" transform="translate(293.21 952.84) rotate(-126.75)">o</text><text class="cls-2" transform="translate(282.79 938.89) rotate(-125.29)">n</text><text class="cls-2" transform="translate(272.73 924.69) rotate(-123.82)">s</text><text class="cls-2" transform="translate(263.04 910.22) rotate(-122.35)">t</text><text class="cls-2" transform="translate(253.72 895.52) rotate(-120.89)"> </text><text class="cls-2" transform="translate(244.77 880.56) rotate(-119.41)">s</text><text class="cls-2" transform="translate(236.21 865.38) rotate(-117.94)">w</text><text class="cls-2" transform="matrix(-0.44, -0.89, 0.9, -0.45, 228.07, 850.03)">i</text><text class="cls-2" transform="translate(220.3 834.43) rotate(-114.99)">p</text><text class="cls-2" transform="translate(212.94 818.65) rotate(-113.52)">e</text><text class="cls-2" transform="translate(205.99 802.68) rotate(-112.04)">r</text><text class="cls-2" transform="matrix(-0.35, -0.93, 0.94, -0.35, 199.45, 786.54)"> </text><text class="cls-2" transform="translate(193.34 770.24) rotate(-109.08)">=</text><text class="cls-2" transform="matrix(-0.3, -0.95, 0.95, -0.3, 187.65, 753.8)"> </text><text class="cls-2" transform="translate(182.38 737.2) rotate(-106.13)">n</text><text class="cls-2" transform="matrix(-0.25, -0.96, 0.97, -0.25, 177.54, 720.48)">e</text><text class="cls-2" transform="matrix(-0.23, -0.97, 0.97, -0.23, 173.13, 703.62)">w</text><text class="cls-2" transform="matrix(-0.2, -0.98, 0.98, -0.2, 169.17, 686.68)"> </text><text class="cls-2" transform="translate(165.63 669.62) rotate(-100.22)">S</text><text class="cls-2" transform="translate(162.55 652.5) rotate(-98.75)">w</text><text class="cls-2" transform="translate(159.89 635.28) rotate(-97.28)">i</text><text class="cls-2" transform="matrix(-0.1, -0.99, 0.99, -0.1, 157.69, 618.01)">p</text><text class="cls-2" transform="matrix(-0.08, -0.99, 1, -0.08, 155.92, 600.66)">e</text><text class="cls-2" transform="translate(154.59 583.32) rotate(-92.91)">r</text><text class="cls-2" transform="translate(153.71 565.93) rotate(-91.46)">(</text><text class="cls-2" transform="translate(153.33 548.52) rotate(-90.46)">&quot;</text><text class="cls-2" transform="translate(153.25 531.1) rotate(-88.58)">.</text><text class="cls-2" transform="translate(153.68 513.7) rotate(-87.14)">s</text><text class="cls-2" transform="translate(154.55 496.28) rotate(-85.68)">w</text><text class="cls-2" transform="translate(155.86 478.95) rotate(-84.23)">i</text><text class="cls-2" transform="translate(157.61 461.61) rotate(-82.76)">p</text><text class="cls-2" transform="translate(159.8 444.34) rotate(-81.3)">e</text><text class="cls-2" transform="translate(162.43 427.14) rotate(-79.83)">r</text><text class="cls-2" transform="translate(165.51 409.99) rotate(-78.35)">&quot;</text><text class="cls-2" transform="translate(169.02 392.93) rotate(-76.87)">,</text><text class="cls-2" transform="translate(172.98 375.97) rotate(-75.4)"> </text><text class="cls-2" transform="translate(177.37 359.11) rotate(-73.92)">{</text><text class="cls-2" transform="translate(182.18 342.39) rotate(-72.44)"> </text><text class="cls-2" transform="translate(187.43 325.8) rotate(-70.96)">l</text><text class="cls-2" transform="matrix(0.35, -0.93, 0.94, 0.35, 193.12, 309.33)">o</text><text class="cls-2" transform="translate(199.22 293.03) rotate(-68)">o</text><text class="cls-2" transform="translate(205.73 276.9) rotate(-66.53)">p</text><text class="cls-2" transform="translate(212.67 260.91) rotate(-65.05)">:</text><text class="cls-2" transform="translate(220.01 245.12) rotate(-63.58)">t</text><text class="cls-2" transform="translate(227.76 229.53) rotate(-62.1)">r</text><text class="cls-2" transform="translate(235.91 214.13) rotate(-60.63)">u</text><text class="cls-2" transform="translate(244.44 198.97) rotate(-59.16)">e</text><text class="cls-2" transform="matrix(0.53, -0.84, 0.85, 0.53, 253.37, 184.01)">,</text><text class="cls-2" transform="matrix(0.55, -0.83, 0.83, 0.56, 262.68, 169.29)"> </text><text class="cls-2" transform="matrix(-0.51, -0.85, 0.86, -0.51, 259.6, 893.4)">.</text><text class="cls-2" transform="translate(250.63 878.47) rotate(-119.51)">b</text><text class="cls-2" transform="translate(242.05 863.31) rotate(-118.02)">o</text><text class="cls-2" transform="matrix(-0.45, -0.89, 0.89, -0.45, 233.87, 847.95)">x</text><text class="cls-2" transform="translate(226.1 832.37) rotate(-115.04)">_</text><text class="cls-2" transform="translate(218.73 816.6) rotate(-113.56)">i</text><text class="cls-2" transform="translate(211.76 800.64) rotate(-112.06)">m</text><text class="cls-2" transform="translate(205.22 784.5) rotate(-110.57)">a</text><text class="cls-2" transform="translate(199.1 768.2) rotate(-109.08)">g</text><text class="cls-2" transform="translate(193.4 751.74) rotate(-107.59)">e</text><text class="cls-2" transform="translate(188.14 735.15) rotate(-106.1)"> </text><text class="cls-2" transform="matrix(-0.25, -0.96, 0.97, -0.25, 183.32, 718.42)">&gt;</text><text class="cls-2" transform="matrix(-0.23, -0.97, 0.97, -0.23, 178.93, 701.58)"> </text><text class="cls-2" transform="translate(174.97 684.62) rotate(-101.62)">i</text><text class="cls-2" transform="translate(171.46 667.55) rotate(-100.14)">m</text><text class="cls-2" transform="matrix(-0.15, -0.99, 0.99, -0.15, 168.4, 650.43)">g</text><text class="cls-2" transform="translate(165.78 633.22) rotate(-97.17)">{</text><text class="cls-2" transform="translate(163.6 615.94) rotate(-95.7)"> </text><text class="cls-2" transform="translate(161.87 598.62) rotate(-94.23)">w</text><text class="cls-2" transform="matrix(-0.05, -1, 1, -0.05, 160.59, 581.26)">i</text><text class="cls-2" transform="translate(159.75 563.85) rotate(-91.3)">d</text><text class="cls-2" transform="matrix(0.01, -1, 1, 0.01, 159.32, 546.46)">t</text><text class="cls-2" transform="translate(159.39 529.05) rotate(-88.4)">h</text><text class="cls-2" transform="matrix(0.05, -1, 1, 0.05, 159.88, 511.63)"> </text><text class="cls-2" transform="translate(160.81 494.25) rotate(-85.47)">:</text><text class="cls-2" transform="matrix(0.1, -0.99, 0.99, 0.1, 162.18, 476.89)"> </text><text class="cls-2" transform="translate(164 459.55) rotate(-82.52)">1</text><text class="cls-2" transform="matrix(0.16, -0.99, 0.99, 0.16, 166.26, 442.3)">0</text><text class="cls-2" transform="translate(168.98 425.09) rotate(-79.55)">0</text><text class="cls-2" transform="matrix(0.21, -0.98, 0.98, 0.21, 172.13, 407.99)">%</text><text class="cls-2" transform="matrix(0.23, -0.97, 0.97, 0.23, 175.72, 390.95)">;</text><text class="cls-2" transform="matrix(0.26, -0.96, 0.97, 0.26, 179.77, 374.01)"> </text><text class="cls-2" transform="matrix(0.28, -0.96, 0.96, 0.28, 184.24, 357.19)">}</text><text class="cls-2" transform="matrix(-0.6, -0.76, 0.79, -0.62, 247.75, 1041.05)">$</text><text class="cls-2" transform="translate(237.31 1027.78) rotate(-126.95) scale(0.97 1)">(</text><text class="cls-2" transform="matrix(-0.56, -0.78, 0.81, -0.58, 227.17, 1014.29)">d</text><text class="cls-2" transform="translate(217.31 1000.58) rotate(-124.49) scale(0.97 1)">o</text><text class="cls-2" transform="translate(207.75 986.67) rotate(-123.26) scale(0.97 1)">c</text><text class="cls-2" transform="matrix(-0.51, -0.82, 0.85, -0.53, 198.5, 972.56)">u</text><text class="cls-2" transform="matrix(-0.49, -0.83, 0.86, -0.51, 189.56, 958.27)">m</text><text class="cls-2" transform="translate(180.91 943.76) rotate(-119.58) scale(0.97 1)">e</text><text class="cls-2" transform="translate(172.57 929.08) rotate(-118.36) scale(0.97 1)">n</text><text class="cls-2" transform="translate(164.56 914.24) rotate(-117.14) scale(0.97 1)">t</text><text class="cls-2" transform="translate(156.86 899.23) rotate(-115.92) scale(0.97 1)">)</text><text class="cls-2" transform="translate(149.48 884.05) rotate(-114.7) scale(0.97 1)">.</text><text class="cls-2" transform="matrix(-0.38, -0.89, 0.92, -0.4, 142.43, 868.71)">r</text><text class="cls-2" transform="matrix(-0.37, -0.89, 0.93, -0.38, 135.7, 853.23)">e</text><text class="cls-2" transform="translate(129.31 837.61) rotate(-111.05) scale(0.97 1)">a</text><text class="cls-2" transform="translate(123.24 821.86) rotate(-109.83) scale(0.97 1)">d</text><text class="cls-2" transform="translate(117.52 805.99) rotate(-108.62) scale(0.97 1)">y</text><text class="cls-2" transform="translate(112.13 790) rotate(-107.41) scale(0.97 1)">(</text><text class="cls-2" transform="translate(107.07 773.88) rotate(-106.2) scale(0.97 1)">f</text><text class="cls-2" transform="matrix(-0.25, -0.93, 0.97, -0.26, 102.37, 757.68)">u</text><text class="cls-2" transform="translate(98 741.37) rotate(-103.78) scale(0.97 1)">n</text><text class="cls-2" transform="matrix(-0.21, -0.94, 0.98, -0.22, 93.98, 724.98)">c</text><text class="cls-2" transform="translate(90.31 708.52) rotate(-101.37) scale(0.97 1)">t</text><text class="cls-2" transform="translate(86.97 691.95) rotate(-100.17) scale(0.97 1)">i</text><text class="cls-2" transform="translate(84 675.35) rotate(-98.97) scale(0.97 1)">o</text><text class="cls-2" transform="translate(81.37 658.69) rotate(-97.77) scale(0.97 1)">n</text><text class="cls-2" transform="matrix(-0.11, -0.96, 0.99, -0.11, 79.08, 641.97)">(</text><text class="cls-2" transform="matrix(-0.09, -0.96, 1, -0.09, 77.15, 625.2)"> </text><text class="cls-2" transform="translate(75.56 608.4) rotate(-94.21) scale(0.97 1)">)</text><text class="cls-2" transform="translate(74.32 591.57) rotate(-93.03) scale(0.97 1)"> </text><text class="cls-2" transform="translate(73.42 574.69) rotate(-91.85) scale(0.97 1)">{</text><text class="cls-2" transform="matrix(-0.01, -0.97, 1, -0.01, 72.88, 557.83)"> </text><text class="cls-2" transform="translate(72.68 540.95) rotate(-89.51) scale(0.97 1)">l</text><text class="cls-2" transform="translate(72.82 524.06) rotate(-88.34) scale(0.97 1)">e</text><text class="cls-2" transform="matrix(0.05, -0.96, 1, 0.05, 73.3, 507.18)">t</text><text class="cls-2" transform="translate(74.14 490.33) rotate(-85.99) scale(0.97 1)"> </text><text class="cls-2" transform="matrix(0.09, -0.96, 1, 0.09, 75.32, 473.49)">t</text><text class="cls-2" transform="translate(76.84 456.69) rotate(-83.62) scale(0.97 1)">o</text><text class="cls-2" transform="translate(78.72 439.9) rotate(-82.42) scale(0.97 1)">d</text><text class="cls-2" transform="translate(80.94 423.19) rotate(-81.23) scale(0.97 1)">a</text><text class="cls-2" transform="translate(83.51 406.5) rotate(-80.03) scale(0.97 1)">y</text><text class="cls-2" transform="matrix(0.19, -0.95, 0.98, 0.19, 86.44, 389.86)"> </text><text class="cls-2" transform="translate(89.7 373.31) rotate(-77.63) scale(0.97 1)">=</text><text class="cls-2" transform="translate(93.32 356.82) rotate(-76.42) scale(0.97 1)"> </text><text class="cls-2" transform="matrix(0.25, -0.93, 0.97, 0.26, 97.28, 340.43)">n</text><text class="cls-2" transform="translate(101.58 324.11) rotate(-74.01) scale(0.97 1)">e</text><text class="cls-2" transform="translate(106.24 307.87) rotate(-72.79) scale(0.97 1)">w</text><text class="cls-2" transform="translate(111.23 291.74) rotate(-71.58) scale(0.97 1)"> </text><text class="cls-2" transform="translate(116.56 275.73) rotate(-70.37) scale(0.97 1)">D</text><text class="cls-2" transform="matrix(0.34, -0.9, 0.93, 0.36, 122.22, 259.85)">a</text><text class="cls-2" transform="translate(128.23 244.07) rotate(-67.94) scale(0.97 1)">t</text><text class="cls-2" transform="matrix(0.38, -0.89, 0.92, 0.4, 134.57, 228.42)">e</text><text class="cls-2" transform="translate(141.24 212.92) rotate(-65.5) scale(0.97 1)">.</text><text class="cls-2" transform="translate(148.23 197.56) rotate(-64.28) scale(0.97 1)">g</text><text class="cls-2" transform="translate(155.55 182.36) rotate(-63.06) scale(0.97 1)">e</text><text class="cls-2" transform="matrix(0.46, -0.85, 0.88, 0.47, 163.2, 167.32)">t</text><text class="cls-2" transform="translate(171.16 152.44) rotate(-60.62) scale(0.97 1)">D</text><text class="cls-2" transform="translate(179.44 137.73) rotate(-59.4) scale(0.97 1)">a</text><text class="cls-2" transform="matrix(0.51, -0.82, 0.85, 0.53, 188.03, 123.2)">t</text><text class="cls-2" transform="matrix(0.53, -0.81, 0.84, 0.55, 196.92, 108.88)">e</text><text class="cls-2" transform="translate(206.13 94.71) rotate(-55.72) scale(0.97 1)">,</text><text class="cls-2" transform="matrix(0.56, -0.79, 0.81, 0.58, 215.64, 80.77)"> </text><text class="cls-2" transform="translate(303.31 1034.45) rotate(-132.39)">$</text><text class="cls-2" transform="matrix(-0.65, -0.75, 0.75, -0.66, 291.58, 1021.6)">(</text><text class="cls-2" transform="matrix(-0.64, -0.77, 0.77, -0.64, 280.14, 1008.45)">&quot;</text><text class="cls-2" transform="matrix(-0.62, -0.78, 0.79, -0.62, 269.03, 995.04)">.</text><text class="cls-2" transform="translate(258.23 981.36) rotate(-126.9)">w</text><text class="cls-2" transform="translate(247.77 967.42) rotate(-125.52)">r</text><text class="cls-2" transform="matrix(-0.56, -0.83, 0.83, -0.56, 237.65, 953.25)">a</text><text class="cls-2" transform="matrix(-0.54, -0.84, 0.84, -0.54, 227.86, 938.82)">p</text><text class="cls-2" transform="matrix(-0.52, -0.85, 0.85, -0.52, 218.43, 924.18)">_</text><text class="cls-2" transform="matrix(-0.5, -0.86, 0.87, -0.5, 209.36, 909.32)">f</text><text class="cls-2" transform="translate(200.64 894.23) rotate(-118.63)">u</text><text class="cls-2" transform="translate(192.29 878.94) rotate(-117.25)">l</text><text class="cls-2" transform="translate(184.31 863.46) rotate(-115.87)">l</text><text class="cls-2" transform="translate(176.71 847.79) rotate(-114.49)">p</text><text class="cls-2" transform="translate(169.49 831.94) rotate(-113.1)">a</text><text class="cls-2" transform="translate(162.66 815.92) rotate(-111.72)">g</text><text class="cls-2" transform="translate(156.21 799.73) rotate(-110.33)">e</text><text class="cls-2" transform="translate(150.15 783.39) rotate(-108.94)">&quot;</text><text class="cls-2" transform="translate(144.5 766.92) rotate(-107.56)">)</text><text class="cls-2" transform="translate(139.24 750.31) rotate(-106.17)">.</text><text class="cls-2" transform="translate(134.39 733.59) rotate(-104.78)">f</text><text class="cls-2" transform="matrix(-0.23, -0.97, 0.97, -0.23, 129.94, 716.73)">u</text><text class="cls-2" transform="translate(125.91 699.78) rotate(-102.01)">l</text><text class="cls-2" transform="translate(122.28 682.75) rotate(-100.63)">l</text><text class="cls-2" transform="translate(119.07 665.63) rotate(-99.25)">p</text><text class="cls-2" transform="translate(116.27 648.44) rotate(-97.87)">a</text><text class="cls-2" transform="translate(113.88 631.18) rotate(-96.49)">g</text><text class="cls-2" transform="translate(111.91 613.86) rotate(-95.12)">e</text><text class="cls-2" transform="matrix(-0.07, -1, 1, -0.07, 110.35, 596.53)">(</text><text class="cls-2" transform="translate(109.21 579.14) rotate(-92.4)"> </text><text class="cls-2" transform="translate(108.48 561.73) rotate(-91.04)">{</text><text class="cls-2" transform="translate(108.13 544.31) rotate(-89.55)"> </text><text class="cls-2" transform="translate(108.25 526.88) rotate(-88.34)">n</text><text class="cls-2" transform="translate(108.75 509.47) rotate(-86.99)">a</text><text class="cls-2" transform="translate(109.66 492.09) rotate(-85.62)">v</text><text class="cls-2" transform="matrix(0.1, -0.99, 0.99, 0.1, 110.99, 474.71)">i</text><text class="cls-2" transform="matrix(0.12, -0.99, 0.99, 0.12, 112.73, 457.38)">g</text><text class="cls-2" transform="translate(114.89 440.07) rotate(-81.51)">a</text><text class="cls-2" transform="translate(117.46 422.86) rotate(-80.13)">t</text><text class="cls-2" transform="translate(120.44 405.7) rotate(-78.75)">i</text><text class="cls-2" transform="translate(123.84 388.62) rotate(-77.36)">o</text><text class="cls-2" transform="translate(127.65 371.62) rotate(-75.98)">n</text><text class="cls-2" transform="translate(131.88 354.7) rotate(-74.59)"> </text><text class="cls-2" transform="translate(136.5 337.91) rotate(-73.2)">:</text><text class="cls-2" transform="matrix(0.31, -0.95, 0.95, 0.31, 141.53, 321.25)"> </text><text class="cls-2" transform="matrix(0.33, -0.94, 0.94, 0.33, 146.96, 304.7)">t</text><text class="cls-2" transform="translate(152.81 288.26) rotate(-69.04)">r</text><text class="cls-2" transform="translate(159.03 272) rotate(-67.66)">u</text><text class="cls-2" transform="translate(165.65 255.89) rotate(-66.27)">e</text><text class="cls-2" transform="translate(172.66 239.95) rotate(-64.89)">,</text><text class="cls-2" transform="matrix(0.44, -0.89, 0.89, 0.45, 180.06, 224.16)"> </text><text class="cls-2" transform="translate(187.82 208.58) rotate(-62.12)">a</text><text class="cls-2" transform="matrix(0.49, -0.87, 0.87, 0.49, 195.96, 193.19)">f</text><text class="cls-2" transform="translate(204.48 177.98) rotate(-59.36)">t</text><text class="cls-2" transform="translate(213.36 162.98) rotate(-57.98)">e</text><text class="cls-2" transform="translate(222.59 148.22) rotate(-56.6)">r</text><text class="cls-2" transform="translate(232.19 133.66) rotate(-55.23)">L</text><text class="cls-2" transform="matrix(0.59, -0.81, 0.81, 0.59, 242.12, 119.36)">o</text><text class="cls-2" transform="matrix(0.61, -0.79, 0.79, 0.61, 252.38, 105.31)">a</text><text class="cls-2" transform="matrix(0.63, -0.78, 0.78, 0.63, 262.99, 91.49)">d</text><text class="cls-2" transform="translate(273.92 77.93) rotate(-49.73)"> </text><text class="cls-2" transform="matrix(0.66, -0.75, 0.75, 0.66, 285.19, 64.62)">:</text><text class="cls-2" transform="matrix(0.68, -0.73, 0.73, 0.68, 296.77, 51.59)"> </text>
</g>
</g>
</g>
</svg>