<svg xmlns="http://www.w3.org/2000/svg" viewBox="0 0 832 1080">
<defs>
<style>
.cls-1{fill:none;}
.cls-2{font-size:32px;fill:#232323;font-family:Consolas;}
</style>
</defs>
<g id="Layer_2" data-name="Layer 2">
<g id="Layer_1-2" data-name="Layer 1">
<g id="left">
<rect class="cls-1" width="832" height="1080"/><text class="cls-2" transform="matrix(0.01, -1, 1, 0.01, 87.99, 539.5)">&lt;</text><text class="cls-2" transform="translate(88.19 522.06) rotate(-88.02)">s</text><text class="cls-2" transform="matrix(0.06, -1, 1, 0.06, 88.79, 504.65)">p</text><text class="cls-2" transform="translate(89.79 487.26) rotate(-85.38)">a</text><text class="cls-2" transform="translate(91.19 469.89) rotate(-84.04)">n</text><text class="cls-2" transform="matrix(0.13, -0.99, 0.99, 0.13, 93, 452.56)">&gt;</text><text class="cls-2" transform="translate(95.2 435.28) rotate(-81.37)">H</text><text class="cls-2" transform="translate(97.82 418.05) rotate(-80.03)">e</text><text class="cls-2" transform="translate(100.83 400.89) rotate(-78.68)">l</text><text class="cls-2" transform="translate(104.25 383.8) rotate(-77.34)">l</text><text class="cls-2" transform="translate(108.07 366.82) rotate(-75.99)">o</text><text class="cls-2" transform="matrix(0.26, -0.96, 0.96, 0.26, 112.29, 349.92)">&amp;</text><text class="cls-2" transform="translate(116.9 333.1) rotate(-73.29)">#</text><text class="cls-2" transform="matrix(0.31, -0.95, 0.95, 0.31, 121.91, 316.4)">3</text><text class="cls-2" transform="translate(127.31 299.84) rotate(-70.59)">2</text><text class="cls-2" transform="translate(133.1 283.42) rotate(-69.24)">;</text><text class="cls-2" transform="matrix(0.38, -0.92, 0.93, 0.38, 139.27, 267.12)">W</text><text class="cls-2" transform="translate(145.83 250.98) rotate(-66.54)">o</text><text class="cls-2" transform="translate(152.76 235.01) rotate(-65.2)">r</text><text class="cls-2" transform="matrix(0.44, -0.9, 0.9, 0.44, 160.08, 219.17)">l</text><text class="cls-2" transform="translate(167.75 203.54) rotate(-62.5)">d</text><text class="cls-2" transform="matrix(0.48, -0.87, 0.88, 0.48, 175.8, 188.08)">&amp;</text><text class="cls-2" transform="translate(184.2 172.82) rotate(-59.82)">#</text><text class="cls-2" transform="matrix(0.52, -0.85, 0.85, 0.52, 192.96, 157.75)">3</text><text class="cls-2" transform="matrix(0.54, -0.84, 0.84, 0.54, 202.07, 142.89)">3</text><text class="cls-2" transform="translate(211.52 128.27) rotate(-55.8)">;</text><text class="cls-2" transform="translate(221.32 113.85) rotate(-54.46)">&lt;</text><text class="cls-2" transform="translate(231.44 99.68) rotate(-53.12)">/</text><text class="cls-2" transform="matrix(0.62, -0.78, 0.79, 0.62, 241.91, 85.73)">s</text><text class="cls-2" transform="matrix(0.64, -0.77, 0.77, 0.64, 252.68, 72.05)">p</text><text class="cls-2" transform="matrix(-0.66, -0.75, 0.75, -0.66, 291.88, 1032.21)">.</text><text class="cls-2" transform="translate(280.31 1019.2) rotate(-130.3)">b</text><text class="cls-2" transform="matrix(-0.63, -0.78, 0.78, -0.63, 269.03, 1005.91)">e</text><text class="cls-2" transform="translate(258.08 992.36) rotate(-127.58)">s</text><text class="cls-2" transform="matrix(-0.59, -0.8, 0.81, -0.59, 247.46, 978.56)">t</text><text class="cls-2" transform="matrix(-0.57, -0.82, 0.82, -0.57, 237.16, 964.5)">_</text><text class="cls-2" transform="matrix(-0.55, -0.83, 0.83, -0.55, 227.21, 950.21)">d</text><text class="cls-2" transform="translate(217.59 935.68) rotate(-122.13)">a</text><text class="cls-2" transform="matrix(-0.51, -0.86, 0.86, -0.51, 208.33, 920.94)">y</text><text class="cls-2" transform="matrix(-0.49, -0.87, 0.87, -0.49, 199.41, 905.96)"> </text><text class="cls-2" transform="translate(190.86 890.78) rotate(-118.03)">{</text><text class="cls-2" transform="translate(182.67 875.4) rotate(-116.66)"> </text><text class="cls-2" transform="translate(174.86 859.84) rotate(-115.29)">f</text><text class="cls-2" transform="matrix(-0.4, -0.91, 0.91, -0.41, 167.41, 844.09)">o</text><text class="cls-2" transform="matrix(-0.38, -0.92, 0.92, -0.38, 160.35, 828.17)">n</text><text class="cls-2" transform="translate(153.67 812.08) rotate(-111.17)">t</text><text class="cls-2" transform="translate(147.38 795.83) rotate(-109.8)">-</text><text class="cls-2" transform="translate(141.47 779.43) rotate(-108.42)">s</text><text class="cls-2" transform="translate(135.96 762.91) rotate(-107.05)">i</text><text class="cls-2" transform="translate(130.85 746.24) rotate(-105.67)">z</text><text class="cls-2" transform="translate(126.14 729.47) rotate(-104.3)">e</text><text class="cls-2" transform="matrix(-0.22, -0.97, 0.97, -0.22, 121.84, 712.6)"> </text><text class="cls-2" transform="translate(117.94 695.61) rotate(-101.56)">:</text><text class="cls-2" transform="matrix(-0.18, -0.98, 0.98, -0.18, 114.45, 678.54)"> </text><text class="cls-2" transform="translate(111.37 661.42) rotate(-98.82)">1</text><text class="cls-2" transform="matrix(-0.13, -0.99, 0.99, -0.13, 108.69, 644.2)">.</text><text class="cls-2" transform="translate(106.43 626.91) rotate(-96.1)">2</text><text class="cls-2" transform="translate(104.58 609.6) rotate(-94.74)">e</text><text class="cls-2" transform="translate(103.14 592.24) rotate(-93.39)">m</text><text class="cls-2" transform="matrix(-0.04, -1, 1, -0.04, 102.11, 574.83)">;</text><text class="cls-2" transform="matrix(-0.01, -1, 1, -0.01, 101.48, 557.41)"> </text><text class="cls-2" transform="matrix(0.01, -1, 1, 0.01, 101.27, 540.02)">c</text><text class="cls-2" transform="translate(101.46 522.58) rotate(-88.03)">o</text><text class="cls-2" transform="matrix(0.06, -1, 1, 0.06, 102.06, 505.18)">l</text><text class="cls-2" transform="translate(103.06 487.77) rotate(-85.33)">o</text><text class="cls-2" transform="matrix(0.1, -0.99, 0.99, 0.1, 104.48, 470.41)">r</text><text class="cls-2" transform="translate(106.31 453.1) rotate(-82.62)"> </text><text class="cls-2" transform="translate(108.55 435.81) rotate(-81.25)">:</text><text class="cls-2" transform="translate(111.2 418.58) rotate(-79.88)"> </text><text class="cls-2" transform="translate(114.25 401.45) rotate(-78.52)">#</text><text class="cls-2" transform="translate(117.72 384.36) rotate(-77.14)">2</text><text class="cls-2" transform="translate(121.59 367.38) rotate(-75.77)">3</text><text class="cls-2" transform="translate(125.87 350.5) rotate(-74.4)">2</text><text class="cls-2" transform="translate(130.56 333.7) rotate(-73.02)">3</text><text class="cls-2" transform="translate(135.65 317.04) rotate(-71.65)">2</text><text class="cls-2" transform="translate(141.12 300.52) rotate(-70.28)">3</text><text class="cls-2" transform="translate(147.01 284.12) rotate(-68.9)">;</text><text class="cls-2" transform="translate(153.27 267.86) rotate(-67.53)"> </text><text class="cls-2" transform="translate(303.28 1022.01) rotate(-131.66)">&lt;</text><text class="cls-2" transform="translate(291.7 1009) rotate(-130.27)">s</text><text class="cls-2" transform="translate(280.44 995.7) rotate(-128.88)">p</text><text class="cls-2" transform="matrix(-0.61, -0.79, 0.79, -0.61, 269.49, 982.13)">a</text><text class="cls-2" transform="matrix(-0.59, -0.81, 0.81, -0.59, 258.89, 968.31)">n</text><text class="cls-2" transform="translate(248.64 954.25) rotate(-124.71)">&gt;</text><text class="cls-2" transform="matrix(-0.55, -0.83, 0.84, -0.55, 238.72, 939.94)">H</text><text class="cls-2" transform="matrix(-0.53, -0.85, 0.85, -0.53, 229.14, 925.37)">e</text><text class="cls-2" transform="matrix(-0.51, -0.86, 0.86, -0.51, 219.93, 910.59)">l</text><text class="cls-2" transform="translate(211.08 895.59) rotate(-119.13)">l</text><text class="cls-2" transform="translate(202.59 880.36) rotate(-117.73)">o</text><text class="cls-2" transform="matrix(-0.44, -0.89, 0.9, -0.44, 194.49, 864.95)">&amp;</text><text class="cls-2" transform="translate(186.76 849.35) rotate(-114.94)">#</text><text class="cls-2" transform="matrix(-0.4, -0.91, 0.92, -0.4, 179.41, 833.55)">3</text><text class="cls-2" transform="matrix(-0.38, -0.92, 0.93, -0.38, 172.45, 817.57)">2</text><text class="cls-2" transform="matrix(-0.35, -0.93, 0.94, -0.35, 165.89, 801.45)">;</text><text class="cls-2" transform="translate(159.73 785.16) rotate(-109.33)">W</text><text class="cls-2" transform="matrix(-0.31, -0.95, 0.95, -0.31, 153.96, 768.72)">o</text><text class="cls-2" transform="translate(148.6 752.16) rotate(-106.52)">r</text><text class="cls-2" transform="translate(143.64 735.45) rotate(-105.12)">l</text><text class="cls-2" transform="matrix(-0.24, -0.97, 0.97, -0.24, 139.1, 718.64)">d</text><text class="cls-2" transform="translate(134.96 701.7) rotate(-102.31)">&amp;</text><text class="cls-2" transform="translate(131.25 684.71) rotate(-100.92)">#</text><text class="cls-2" transform="translate(127.95 667.59) rotate(-99.52)">3</text><text class="cls-2" transform="translate(125.07 650.41) rotate(-98.12)">3</text><text class="cls-2" transform="matrix(-0.12, -0.99, 0.99, -0.12, 122.6, 633.16)">;</text><text class="cls-2" transform="translate(120.56 615.87) rotate(-95.35)">&lt;</text><text class="cls-2" transform="translate(118.94 598.51) rotate(-93.96)">/</text><text class="cls-2" transform="matrix(-0.04, -1, 1, -0.05, 117.73, 581.14)">s</text><text class="cls-2" transform="translate(116.95 563.73) rotate(-91.21)">p</text><text class="cls-2" transform="translate(116.57 546.34) rotate(-89.84)">a</text><text class="cls-2" transform="translate(116.62 528.9) rotate(-88.48)">n</text><text class="cls-2" transform="translate(117.08 511.5) rotate(-87.11)">&gt;</text>
</g>
</g>
</g>
</svg>