<svg xmlns="http://www.w3.org/2000/svg" viewBox="0 0 832 1080">
<defs>
<style>
.cls-1{fill:none;}
.cls-2{font-size:32px;fill:#232323;font-family:Consolas;}
</style>
</defs>
<g id="Layer_2" data-name="Layer 2">
<g id="Layer_1-2" data-name="Layer 1">
<g id="left">
<rect class="cls-1" width="832" height="1080"/><text class="cls-2" transform="translate(293.35 1001.55) rotate(-129.9)">&lt;</text><text class="cls-2" transform="translate(282.18 988.19) rotate(-128.5)">a</text><text class="cls-2" transform="translate(271.34 974.56) rotate(-127.1)"> </text><text class="cls-2" transform="translate(260.82 960.65) rotate(-125.69)">c</text><text class="cls-2" transform="translate(250.65 946.5) rotate(-124.29)">l</text><text class="cls-2" transform="matrix(-0.54, -0.84, 0.84, -0.54, 240.85, 932.12)">a</text><text class="cls-2" transform="matrix(-0.52, -0.85, 0.85, -0.52, 231.38, 917.49)">s</text><text class="cls-2" transform="matrix(-0.5, -0.86, 0.87, -0.5, 222.29, 902.64)">s</text><text class="cls-2" transform="translate(213.56 887.58) rotate(-118.67)">=</text><text class="cls-2" transform="translate(205.2 872.28) rotate(-117.25)">&quot;</text><text class="cls-2" transform="matrix(-0.43, -0.9, 0.9, -0.44, 197.23, 856.81)">b</text><text class="cls-2" transform="translate(189.63 841.12) rotate(-114.43)">e</text><text class="cls-2" transform="translate(182.43 825.27) rotate(-113.02)">s</text><text class="cls-2" transform="translate(175.62 809.25) rotate(-111.6)">t</text><text class="cls-2" transform="translate(169.2 793.05) rotate(-110.19)">_</text><text class="cls-2" transform="translate(163.18 776.69) rotate(-108.77)">d</text><text class="cls-2" transform="translate(157.57 760.2) rotate(-107.36)">a</text><text class="cls-2" transform="translate(152.38 743.58) rotate(-105.94)">y</text><text class="cls-2" transform="translate(147.6 726.86) rotate(-104.53)">&quot;</text><text class="cls-2" transform="translate(143.23 709.99) rotate(-103.12)"> </text><text class="cls-2" transform="translate(169.8 628.77) rotate(-96.84)"> </text><text class="cls-2" transform="matrix(-0.09, -0.99, 1, -0.09, 167.72, 611.51)">.</text><text class="cls-2" transform="matrix(-0.07, -0.99, 1, -0.07, 166.1, 594.17)">b</text><text class="cls-2" transform="translate(164.92 576.8) rotate(-92.4)">o</text><text class="cls-2" transform="translate(164.19 559.4) rotate(-90.94)">x</text><text class="cls-2" transform="translate(163.9 541.99) rotate(-89.48)">_</text><text class="cls-2" transform="translate(164.06 524.57) rotate(-88.01)">s</text><text class="cls-2" transform="translate(164.66 507.17) rotate(-86.54)">e</text><text class="cls-2" transform="matrix(0.09, -0.99, 1, 0.09, 165.71, 489.78)">c</text><text class="cls-2" transform="translate(167.21 472.44) rotate(-83.58)">t</text><text class="cls-2" transform="translate(169.15 455.15) rotate(-82.09)">i</text><text class="cls-2" transform="translate(171.55 437.88) rotate(-80.59)">o</text><text class="cls-2" transform="matrix(0.19, -0.98, 0.98, 0.19, 174.39, 420.72)">n</text><text class="cls-2" transform="translate(177.68 403.64) rotate(-77.6)">{</text><text class="cls-2" transform="translate(181.42 386.61) rotate(-76.1)"> </text><text class="cls-2" transform="translate(185.6 369.72) rotate(-74.6)">p</text><text class="cls-2" transform="matrix(0.29, -0.95, 0.96, 0.29, 190.22, 352.93)">a</text><text class="cls-2" transform="matrix(0.31, -0.95, 0.95, 0.32, 195.28, 336.27)">d</text><text class="cls-2" transform="matrix(0.34, -0.94, 0.94, 0.34, 200.78, 319.76)">d</text><text class="cls-2" transform="matrix(0.36, -0.93, 0.93, 0.37, 206.71, 303.38)">i</text><text class="cls-2" transform="translate(213.06 287.18) rotate(-67.09)">n</text><text class="cls-2" transform="translate(219.84 271.14) rotate(-65.59)">g</text><text class="cls-2" transform="matrix(0.44, -0.9, 0.9, 0.44, 227.02, 255.3)">-</text><text class="cls-2" transform="translate(234.63 239.64) rotate(-62.59)">t</text><text class="cls-2" transform="translate(242.65 224.17) rotate(-61.1)">o</text><text class="cls-2" transform="translate(251.05 208.94) rotate(-59.6)">p</text><text class="cls-2" transform="matrix(0.53, -0.85, 0.85, 0.53, 259.87, 193.91)"> </text><text class="cls-2" transform="translate(269.06 179.14) rotate(-56.62)">:</text><text class="cls-2" transform="matrix(0.57, -0.82, 0.82, 0.57, 278.65, 164.58)"> </text><text class="cls-2" transform="translate(288.59 150.32) rotate(-53.64)">c</text><text class="cls-2" transform="translate(298.92 136.29) rotate(-52.15)">a</text><text class="cls-2" transform="matrix(0.63, -0.77, 0.77, 0.63, 309.6, 122.54)">l</text><text class="cls-2" transform="matrix(0.65, -0.75, 0.76, 0.65, 320.64, 109.07)">c</text><text class="cls-2" transform="matrix(0.67, -0.74, 0.74, 0.67, 332.02, 95.89)">(</text><text class="cls-2" transform="translate(343.74 83.02) rotate(-46.2)"> </text><text class="cls-2" transform="matrix(0.71, -0.7, 0.7, 0.71, 355.78, 70.46)">(</text><text class="cls-2" transform="translate(368.14 58.21) rotate(-43.23)"> </text><text class="cls-2" transform="translate(306.03 1021.62) rotate(-131.78)">$</text><text class="cls-2" transform="matrix(-0.65, -0.76, 0.76, -0.65, 294.44, 1008.65)">(</text><text class="cls-2" transform="translate(283.15 995.39) rotate(-129)">&quot;</text><text class="cls-2" transform="matrix(-0.61, -0.79, 0.79, -0.61, 272.17, 981.83)">.</text><text class="cls-2" transform="translate(261.56 968.05) rotate(-126.21)">b</text><text class="cls-2" transform="matrix(-0.57, -0.82, 0.82, -0.57, 251.27, 954)">o</text><text class="cls-2" transform="translate(241.32 939.69) rotate(-123.42)">x</text><text class="cls-2" transform="translate(231.73 925.16) rotate(-122.02)">_</text><text class="cls-2" transform="translate(222.48 910.38) rotate(-120.62)">o</text><text class="cls-2" transform="matrix(-0.49, -0.87, 0.87, -0.49, 213.61, 895.38)">u</text><text class="cls-2" transform="translate(205.11 880.18) rotate(-117.82)">t</text><text class="cls-2" transform="translate(196.98 864.78) rotate(-116.41)">e</text><text class="cls-2" transform="translate(189.23 849.19) rotate(-115.01)">r</text><text class="cls-2" transform="matrix(-0.4, -0.91, 0.92, -0.4, 181.87, 833.41)">l</text><text class="cls-2" transform="matrix(-0.38, -0.92, 0.93, -0.38, 174.88, 817.43)">i</text><text class="cls-2" transform="translate(168.3 801.3) rotate(-110.79)">n</text><text class="cls-2" transform="translate(162.12 785.04) rotate(-109.38)">k</text><text class="cls-2" transform="translate(156.34 768.61) rotate(-107.98)">&quot;</text><text class="cls-2" transform="translate(150.96 752.04) rotate(-106.57)">)</text><text class="cls-2" transform="matrix(-0.26, -0.96, 0.97, -0.26, 146, 735.35)">.</text><text class="cls-2" transform="translate(141.44 718.53) rotate(-103.75)">c</text><text class="cls-2" transform="translate(137.29 701.6) rotate(-102.35)">l</text><text class="cls-2" transform="translate(133.57 684.61) rotate(-100.94)">i</text><text class="cls-2" transform="translate(130.26 667.5) rotate(-99.54)">c</text><text class="cls-2" transform="translate(127.37 650.32) rotate(-98.14)">k</text><text class="cls-2" transform="translate(124.9 633.07) rotate(-96.75)">(</text><text class="cls-2" transform="translate(122.86 615.77) rotate(-95.35)">f</text><text class="cls-2" transform="matrix(-0.07, -0.99, 1, -0.07, 121.23, 598.43)">u</text><text class="cls-2" transform="translate(120.02 581.04) rotate(-92.59)">n</text><text class="cls-2" transform="translate(119.24 563.66) rotate(-91.21)">c</text><text class="cls-2" transform="translate(118.82 546.25) rotate(-89.56)">t</text><text class="cls-2" transform="translate(118.91 528.83) rotate(-88.47)">i</text><text class="cls-2" transform="translate(119.37 511.4) rotate(-87.09)">o</text><text class="cls-2" transform="translate(120.26 494.01) rotate(-85.71)">n</text><text class="cls-2" transform="translate(121.56 476.63) rotate(-84.32)">(</text><text class="cls-2" transform="translate(123.28 459.3) rotate(-82.93)"> </text><text class="cls-2" transform="translate(125.42 442) rotate(-81.53)">)</text><text class="cls-2" transform="matrix(0.17, -0.98, 0.99, 0.17, 127.98, 424.78)">{</text><text class="cls-2" transform="translate(130.97 407.61) rotate(-78.73)"> </text><text class="cls-2" transform="translate(134.37 390.54) rotate(-77.33)">v</text><text class="cls-2" transform="translate(138.19 373.53) rotate(-75.92)">a</text><text class="cls-2" transform="translate(142.43 356.64) rotate(-74.51)">r</text><text class="cls-2" transform="matrix(0.29, -0.95, 0.96, 0.29, 147.07, 339.87)"> </text><text class="cls-2" transform="matrix(0.31, -0.95, 0.95, 0.31, 152.14, 323.18)">t</text><text class="cls-2" transform="matrix(0.34, -0.94, 0.94, 0.34, 157.6, 306.67)">e</text><text class="cls-2" transform="matrix(0.36, -0.93, 0.93, 0.36, 163.47, 290.27)">s</text><text class="cls-2" transform="translate(169.75 274) rotate(-67.48)">t</text><text class="cls-2" transform="matrix(0.4, -0.91, 0.91, 0.41, 176.42, 257.92)"> </text><text class="cls-2" transform="translate(183.49 241.99) rotate(-64.66)">=</text><text class="cls-2" transform="translate(190.93 226.26) rotate(-63.26)"> </text><text class="cls-2" transform="translate(129.55 481.84) rotate(-84.68)">.</text><text class="cls-2" transform="matrix(0.12, -0.99, 0.99, 0.12, 131.17, 464.5)">b</text><text class="cls-2" transform="translate(133.21 447.18) rotate(-81.86)">o</text><text class="cls-2" transform="translate(135.68 429.93) rotate(-80.44)">x</text><text class="cls-2" transform="matrix(0.19, -0.98, 0.98, 0.19, 138.57, 412.77)">_</text><text class="cls-2" transform="translate(141.88 395.68) rotate(-77.6)">i</text><text class="cls-2" transform="matrix(0.24, -0.97, 0.97, 0.24, 145.62, 378.67)">m</text><text class="cls-2" transform="matrix(0.26, -0.96, 0.96, 0.26, 149.78, 361.74)">a</text><text class="cls-2" transform="translate(154.36 344.95) rotate(-73.33)">g</text><text class="cls-2" transform="translate(159.35 328.26) rotate(-71.91)">e</text><text class="cls-2" transform="translate(164.75 311.72) rotate(-70.48)"> </text><text class="cls-2" transform="translate(170.57 295.3) rotate(-69.06)">{</text><text class="cls-2" transform="translate(176.8 279.03) rotate(-67.63)"> </text><text class="cls-2" transform="matrix(0.4, -0.91, 0.92, 0.4, 183.43, 262.91)">w</text><text class="cls-2" transform="translate(190.45 246.98) rotate(-64.79)">i</text><text class="cls-2" transform="translate(197.87 231.21) rotate(-63.37)">d</text><text class="cls-2" transform="translate(205.67 215.65) rotate(-61.95)">t</text><text class="cls-2" transform="matrix(0.49, -0.87, 0.87, 0.49, 213.86, 200.29)">h</text><text class="cls-2" transform="translate(222.43 185.13) rotate(-59.11)"> </text><text class="cls-2" transform="translate(231.37 170.17) rotate(-57.7)">:</text><text class="cls-2" transform="matrix(0.55, -0.83, 0.83, 0.56, 240.68, 155.43)"> </text><text class="cls-2" transform="matrix(0.57, -0.82, 0.82, 0.58, 250.35, 140.94)">2</text><text class="cls-2" transform="matrix(0.59, -0.8, 0.8, 0.6, 260.37, 126.71)">4</text><text class="cls-2" transform="matrix(0.61, -0.79, 0.79, 0.62, 270.74, 112.71)">p</text><text class="cls-2" transform="translate(281.44 98.98) rotate(-50.64)">x</text><text class="cls-2" transform="matrix(0.65, -0.76, 0.76, 0.65, 292.5, 85.5)"> </text>
</g>
</g>
</g>
</svg>