<svg xmlns="http://www.w3.org/2000/svg" viewBox="0 0 832 1080">
<defs>
<style>
.cls-1{fill:none;}
.cls-2{font-size:32px;fill:#232323;font-family:Consolas;}
</style>
</defs>
<g id="Layer_2" data-name="Layer 2">
<g id="Layer_1-2" data-name="Layer 1">
<g id="left">
<rect class="cls-1" width="832" height="1080"/><text class="cls-2" transform="translate(156.27 740.58) rotate(-105.79)">&lt;</text><text class="cls-2" transform="matrix(-0.25, -0.97, 0.97, -0.25, 151.52, 723.81)"> </text><text class="cls-2" transform="translate(147.2 706.95) rotate(-102.95)">u</text><text class="cls-2" transform="translate(143.3 689.97) rotate(-101.53)">l</text><text class="cls-2" transform="translate(139.81 672.9) rotate(-100.11)"> </text><text class="cls-2" transform="matrix(-0.15, -0.99, 0.99, -0.15, 136.76, 655.76)">c</text><text class="cls-2" transform="translate(134.13 638.56) rotate(-97.28)">l</text><text class="cls-2" transform="translate(131.92 621.29) rotate(-95.87)">a</text><text class="cls-2" transform="translate(130.14 603.94) rotate(-94.46)">s</text><text class="cls-2" transform="matrix(-0.05, -1, 1, -0.05, 128.78, 586.56)">s</text><text class="cls-2" transform="translate(127.85 569.18) rotate(-91.67)"> </text><text class="cls-2" transform="matrix(0, -1, 1, 0, 127.34, 551.78)">=</text><text class="cls-2" transform="translate(127.25 534.34) rotate(-88.89)"> </text><text class="cls-2" transform="translate(127.59 516.94) rotate(-87.5)">&quot;</text><text class="cls-2" transform="matrix(0.07, -0.99, 1, 0.07, 128.35, 499.53)">c</text><text class="cls-2" transform="translate(129.53 482.16) rotate(-84.7)">o</text><text class="cls-2" transform="matrix(0.12, -0.99, 0.99, 0.12, 131.13, 464.81)">l</text><text class="cls-2" transform="translate(133.16 447.52) rotate(-81.88)">o</text><text class="cls-2" transform="translate(135.62 430.27) rotate(-80.47)">r</text><text class="cls-2" transform="translate(138.51 413.1) rotate(-79.05)">_</text><text class="cls-2" transform="translate(141.81 396) rotate(-77.63)">w</text><text class="cls-2" transform="translate(145.54 378.99) rotate(-76.21)">h</text><text class="cls-2" transform="translate(149.69 362.08) rotate(-74.78)">i</text><text class="cls-2" transform="translate(154.27 345.25) rotate(-73.36)">t</text><text class="cls-2" transform="translate(159.26 328.56) rotate(-71.93)">e</text><text class="cls-2" transform="translate(164.65 312.02) rotate(-70.51)">&quot;</text><text class="cls-2" transform="matrix(0.36, -0.93, 0.93, 0.36, 170.47, 295.59)"> </text><text class="cls-2" transform="translate(176.67 279.34) rotate(-67.66)">&gt;</text><text class="cls-2" transform="translate(183.29 263.23) rotate(-66.24)"> </text><text class="cls-2" transform="translate(190.31 247.29) rotate(-64.82)">&lt;</text><text class="cls-2" transform="matrix(0.45, -0.89, 0.89, 0.45, 197.72, 231.52)"> </text><text class="cls-2" transform="translate(205.53 215.94) rotate(-61.97)">l</text><text class="cls-2" transform="translate(213.7 200.58) rotate(-60.56)">i</text><text class="cls-2" transform="translate(222.27 185.39) rotate(-59.14)"> </text><text class="cls-2" transform="translate(231.2 170.45) rotate(-57.73)">&gt;</text><text class="cls-2" transform="translate(240.5 155.72) rotate(-56.31)"> </text><text class="cls-2" transform="translate(250.16 141.23) rotate(-54.9)">&lt;</text><text class="cls-2" transform="matrix(0.59, -0.8, 0.8, 0.6, 260.16, 126.99)"> </text><text class="cls-2" transform="translate(270.53 112.99) rotate(-52.08)">a</text><text class="cls-2" transform="matrix(0.63, -0.77, 0.77, 0.63, 281.23, 99.25)"> </text><text class="cls-2" transform="translate(292.28 85.76) rotate(-49.25)">h</text><text class="cls-2" transform="matrix(0.67, -0.74, 0.74, 0.67, 303.64, 72.57)">r</text><text class="cls-2" transform="translate(315.33 59.66) rotate(-46.44)">e</text><text class="cls-2" transform="matrix(0.7, -0.71, 0.71, 0.71, 327.33, 47.04)">f</text><text class="cls-2" transform="translate(339.69 34.72) rotate(-43.87)"> </text><text class="cls-2" transform="translate(319.84 998.13) rotate(-131.1)"> </text><text class="cls-2" transform="translate(308.4 985.03) rotate(-129.65)">.</text><text class="cls-2" transform="translate(297.29 971.62) rotate(-128.21)">b</text><text class="cls-2" transform="translate(286.52 957.94) rotate(-126.76)">o</text><text class="cls-2" transform="matrix(-0.58, -0.81, 0.82, -0.58, 276.09, 943.97)">x</text><text class="cls-2" transform="matrix(-0.56, -0.83, 0.83, -0.56, 266.02, 929.76)">_</text><text class="cls-2" transform="translate(256.32 915.31) rotate(-122.41)">s</text><text class="cls-2" transform="translate(246.98 900.6) rotate(-120.96)">e</text><text class="cls-2" transform="matrix(-0.49, -0.87, 0.87, -0.49, 238.03, 885.69)">c</text><text class="cls-2" transform="matrix(-0.47, -0.88, 0.88, -0.47, 229.44, 870.52)">t</text><text class="cls-2" transform="translate(221.25 855.15) rotate(-116.6)">i</text><text class="cls-2" transform="matrix(-0.42, -0.9, 0.91, -0.42, 213.45, 839.59)">o</text><text class="cls-2" transform="matrix(-0.4, -0.91, 0.92, -0.4, 206.05, 823.82)">n</text><text class="cls-2" transform="translate(199.05 807.87) rotate(-112.22)"> </text><text class="cls-2" transform="translate(192.47 791.76) rotate(-110.77)">&gt;</text><text class="cls-2" transform="translate(186.3 775.49) rotate(-109.3)"> </text><text class="cls-2" transform="translate(180.54 759.04) rotate(-107.84)">.</text><text class="cls-2" transform="translate(175.2 742.46) rotate(-106.38)">b</text><text class="cls-2" transform="translate(170.29 725.76) rotate(-104.92)">o</text><text class="cls-2" transform="matrix(-0.23, -0.97, 0.97, -0.23, 165.8, 708.94)">x</text><text class="cls-2" transform="translate(161.75 692.02) rotate(-102.01)">_</text><text class="cls-2" transform="matrix(-0.18, -0.98, 0.98, -0.18, 158.12, 674.97)">b</text><text class="cls-2" transform="translate(154.93 657.85) rotate(-99.09)">g</text><text class="cls-2" transform="translate(152.18 640.67) rotate(-97.64)">d</text><text class="cls-2" transform="translate(149.86 623.39) rotate(-96.2)">e</text><text class="cls-2" transform="translate(147.98 606.1) rotate(-94.76)">c</text><text class="cls-2" transform="translate(146.54 588.74) rotate(-93.32)">o</text><text class="cls-2" transform="matrix(-0.03, -1, 1, -0.03, 145.53, 571.36)">r</text><text class="cls-2" transform="translate(144.95 553.93) rotate(-90.46)">a</text><text class="cls-2" transform="translate(144.81 536.53) rotate(-89.04)">t</text><text class="cls-2" transform="matrix(0.04, -1, 1, 0.04, 145.1, 519.12)">i</text><text class="cls-2" transform="translate(145.82 501.7) rotate(-86.18)">o</text><text class="cls-2" transform="translate(146.98 484.33) rotate(-84.75)">n</text><text class="cls-2" transform="translate(148.57 467) rotate(-83.3)"> </text><text class="cls-2" transform="translate(150.6 449.7) rotate(-81.85)">{</text><text class="cls-2" transform="matrix(0.17, -0.98, 0.99, 0.17, 153.06, 432.46)"> </text><text class="cls-2" transform="matrix(0.19, -0.98, 0.98, 0.19, 155.96, 415.3)">t</text><text class="cls-2" transform="translate(159.3 398.19) rotate(-77.49)">o</text><text class="cls-2" transform="translate(163.08 381.19) rotate(-76.03)">p</text><text class="cls-2" transform="matrix(0.27, -0.96, 0.96, 0.27, 167.27, 364.31)"> </text><text class="cls-2" transform="matrix(0.29, -0.95, 0.96, 0.29, 171.9, 347.51)">:</text><text class="cls-2" transform="matrix(0.31, -0.95, 0.95, 0.31, 176.96, 330.85)"> </text><text class="cls-2" transform="translate(182.44 314.33) rotate(-70.19)">c</text><text class="cls-2" transform="matrix(0.36, -0.93, 0.93, 0.36, 188.34, 297.95)">a</text><text class="cls-2" transform="translate(194.66 281.7) rotate(-67.27)">l</text><text class="cls-2" transform="translate(201.38 265.66) rotate(-65.81)">c</text><text class="cls-2" transform="translate(208.52 249.76) rotate(-64.35)">(</text><text class="cls-2" transform="translate(216.05 234.07) rotate(-62.9)"> </text><text class="cls-2" transform="matrix(0.48, -0.88, 0.88, 0.48, 223.98, 218.58)">(</text><text class="cls-2" transform="translate(232.3 203.28) rotate(-59.99)"> </text><text class="cls-2" transform="translate(241.02 188.19) rotate(-58.54)">1</text><text class="cls-2" transform="matrix(0.54, -0.84, 0.84, 0.54, 250.1, 173.35)">0</text><text class="cls-2" transform="translate(259.56 158.72) rotate(-55.64)">0</text><text class="cls-2" transform="matrix(0.58, -0.81, 0.81, 0.59, 269.4, 144.33)">v</text><text class="cls-2" transform="matrix(0.6, -0.79, 0.8, 0.61, 279.58, 130.23)">w</text><text class="cls-2" transform="matrix(0.62, -0.78, 0.78, 0.63, 290.13, 116.36)"> </text><text class="cls-2" transform="translate(301.02 102.76) rotate(-49.85)">/</text><text class="cls-2" transform="translate(312.25 89.44) rotate(-48.4)"> </text><text class="cls-2" transform="translate(323.79 76.44) rotate(-46.96)">3</text><text class="cls-2" transform="translate(335.68 63.71) rotate(-45.51)">7</text><text class="cls-2" transform="matrix(0.72, -0.69, 0.7, 0.72, 347.88, 51.28)">5</text><text class="cls-2" transform="translate(360.4 39.17) rotate(-42.62)"> </text><text class="cls-2" transform="translate(96.09 649.8) rotate(-97.76)">.</text><text class="cls-2" transform="translate(93.73 632.55) rotate(-96.42)">h</text><text class="cls-2" transform="translate(91.78 615.22) rotate(-95.09)">o</text><text class="cls-2" transform="matrix(-0.07, -1, 1, -0.07, 90.24, 597.86)">m</text><text class="cls-2" transform="translate(89.09 580.48) rotate(-92.44)">e</text><text class="cls-2" transform="translate(88.35 563.06) rotate(-91.12)"> </text><text class="cls-2" transform="matrix(0.01, -1, 1, 0.01, 87.98, 545.66)">{</text><text class="cls-2" transform="translate(88.07 528.22) rotate(-88.49)"> </text><text class="cls-2" transform="translate(88.53 510.8) rotate(-87.17)">c</text><text class="cls-2" transform="matrix(0.07, -0.99, 1, 0.07, 89.39, 493.4)">o</text><text class="cls-2" transform="translate(90.65 476.03) rotate(-84.52)">l</text><text class="cls-2" transform="translate(92.31 458.66) rotate(-83.18)">o</text><text class="cls-2" transform="matrix(0.14, -0.99, 0.99, 0.14, 94.38, 441.38)">r</text><text class="cls-2" transform="translate(96.85 424.12) rotate(-80.5)">:</text><text class="cls-2" transform="translate(99.72 406.95) rotate(-79.16)">#</text><text class="cls-2" transform="matrix(0.21, -0.97, 0.98, 0.21, 103, 389.82)">2</text><text class="cls-2" transform="matrix(0.23, -0.97, 0.97, 0.23, 106.68, 372.79)">3</text><text class="cls-2" transform="matrix(0.26, -0.96, 0.97, 0.26, 110.76, 355.85)">2</text><text class="cls-2" transform="translate(115.23 339.02) rotate(-73.77)">3</text><text class="cls-2" transform="translate(120.1 322.29) rotate(-72.42)">2</text><text class="cls-2" transform="translate(125.36 305.69) rotate(-71.07)">3</text><text class="cls-2" transform="translate(131.01 289.2) rotate(-69.72)">;</text><text class="cls-2" transform="translate(137.05 272.85) rotate(-68.37)"> </text><text class="cls-2" transform="matrix(0.39, -0.92, 0.92, 0.39, 143.48, 256.66)">f</text><text class="cls-2" transform="translate(150.28 240.62) rotate(-65.67)">o</text><text class="cls-2" transform="translate(157.45 224.74) rotate(-64.32)">n</text><text class="cls-2" transform="translate(165 209.04) rotate(-62.98)">t</text><text class="cls-2" transform="translate(172.92 193.51) rotate(-61.63)">-</text><text class="cls-2" transform="translate(181.2 178.17) rotate(-60.29)">s</text><text class="cls-2" transform="translate(189.83 163.05) rotate(-58.95)">i</text><text class="cls-2" transform="translate(198.81 148.12) rotate(-57.61)">z</text><text class="cls-2" transform="matrix(0.55, -0.83, 0.83, 0.56, 208.14, 133.42)">e</text><text class="cls-2" transform="translate(217.82 118.92) rotate(-54.93)">:</text><text class="cls-2" transform="matrix(0.59, -0.8, 0.8, 0.59, 227.83, 104.65)">1</text><text class="cls-2" transform="translate(238.17 90.63) rotate(-52.25)">e</text><text class="cls-2" transform="matrix(0.63, -0.77, 0.78, 0.63, 248.83, 76.86)">m</text><text class="cls-2" transform="matrix(0.65, -0.76, 0.76, 0.65, 259.83, 63.32)">;</text><text class="cls-2" transform="matrix(0.66, -0.75, 0.75, 0.66, 271.16, 50.06)"> </text>
</g>
</g>
</g>
</svg>