<svg xmlns="http://www.w3.org/2000/svg" viewBox="0 0 832 1080">
<defs>
<style>
.cls-1{fill:none;}
.cls-2{font-size:32px;fill:#232323;font-family:Consolas;}
</style>
</defs>
<g id="Layer_2" data-name="Layer 2">
<g id="Layer_1-2" data-name="Layer 1">
<g id="left">
<rect class="cls-1" width="832" height="1080"/><text class="cls-2" transform="matrix(-0.33, -0.94, 0.94, -0.33, 108.51, 800.85)">&lt;</text><text class="cls-2" transform="translate(102.79 784.38) rotate(-107.85)">d</text><text class="cls-2" transform="translate(97.45 767.81) rotate(-106.55)">i</text><text class="cls-2" transform="translate(92.48 751.09) rotate(-105.24)">v</text><text class="cls-2" transform="translate(87.9 734.3) rotate(-103.94)"> </text><text class="cls-2" transform="translate(83.7 717.36) rotate(-102.63)">c</text><text class="cls-2" transform="matrix(-0.2, -0.98, 0.98, -0.2, 79.89, 700.37)">l</text><text class="cls-2" transform="matrix(-0.17, -0.98, 0.98, -0.17, 76.46, 683.27)">a</text><text class="cls-2" transform="translate(73.43 666.13) rotate(-98.73)">s</text><text class="cls-2" transform="translate(70.78 648.9) rotate(-97.43)">s</text><text class="cls-2" transform="matrix(-0.11, -0.99, 0.99, -0.11, 68.52, 631.6)">=</text><text class="cls-2" transform="translate(66.66 614.29) rotate(-94.85)">&quot;</text><text class="cls-2" transform="translate(65.18 596.9) rotate(-93.56)">b</text><text class="cls-2" transform="matrix(-0.04, -1, 1, -0.04, 64.1, 579.53)">o</text><text class="cls-2" transform="matrix(-0.02, -1, 1, -0.02, 63.4, 562.1)">x</text><text class="cls-2" transform="translate(63.07 544.7) rotate(-89.57)">_</text><text class="cls-2" transform="translate(63.17 527.26) rotate(-88.47)">i</text><text class="cls-2" transform="matrix(0.05, -1, 1, 0.05, 63.64, 509.81)">m</text><text class="cls-2" transform="translate(64.49 492.42) rotate(-85.91)">a</text><text class="cls-2" transform="translate(65.73 475.03) rotate(-84.62)">g</text><text class="cls-2" transform="translate(67.37 457.67) rotate(-83.33)">e</text><text class="cls-2" transform="translate(69.39 440.36) rotate(-82.03)"> </text><text class="cls-2" transform="matrix(0.16, -0.98, 0.99, 0.16, 71.8, 423.1)">s</text><text class="cls-2" transform="translate(74.6 405.92) rotate(-79.44)">u</text><text class="cls-2" transform="matrix(0.21, -0.98, 0.98, 0.21, 77.8, 388.78)">n</text><text class="cls-2" transform="matrix(0.23, -0.97, 0.97, 0.23, 81.38, 371.73)">&quot;</text><text class="cls-2" transform="translate(85.35 354.76) rotate(-75.53)">&gt;</text><text class="cls-2" transform="matrix(0.27, -0.96, 0.96, 0.27, 89.7, 337.88)">&lt;</text><text class="cls-2" transform="matrix(0.29, -0.95, 0.96, 0.29, 94.44, 321.12)">i</text><text class="cls-2" transform="translate(99.55 304.46) rotate(-71.61)">m</text><text class="cls-2" transform="translate(105.06 287.91) rotate(-70.3)">g</text><text class="cls-2" transform="translate(110.93 271.5) rotate(-69)"> </text><text class="cls-2" transform="matrix(0.38, -0.92, 0.93, 0.38, 117.17, 255.24)">s</text><text class="cls-2" transform="matrix(0.4, -0.91, 0.92, 0.4, 123.79, 239.11)">r</text><text class="cls-2" transform="translate(130.77 223.14) rotate(-65.08)">c</text><text class="cls-2" transform="translate(138.11 207.32) rotate(-63.78)">=</text><text class="cls-2" transform="translate(145.8 191.7) rotate(-62.48)">&quot;</text><text class="cls-2" transform="translate(153.85 176.26) rotate(-61.18)">.</text><text class="cls-2" transform="translate(162.25 160.99) rotate(-59.88)">.</text><text class="cls-2" transform="matrix(0.52, -0.85, 0.85, 0.52, 171, 145.9)">/</text><text class="cls-2" transform="matrix(0.54, -0.84, 0.84, 0.54, 180.08, 131.04)">i</text><text class="cls-2" transform="translate(189.5 116.37) rotate(-55.99)">m</text><text class="cls-2" transform="translate(199.24 101.93) rotate(-54.69)">a</text><text class="cls-2" transform="translate(127.22 747.44) rotate(-105.69)">&lt;</text><text class="cls-2" transform="translate(122.51 730.66) rotate(-104.32)">s</text><text class="cls-2" transform="translate(118.2 713.78) rotate(-102.96)">v</text><text class="cls-2" transform="matrix(-0.2, -0.98, 0.98, -0.2, 114.29, 696.8)">g</text><text class="cls-2" transform="translate(110.79 679.74) rotate(-100.23)"> </text><text class="cls-2" transform="matrix(-0.15, -0.99, 0.99, -0.15, 107.69, 662.6)">i</text><text class="cls-2" transform="matrix(-0.13, -0.99, 0.99, -0.13, 105, 645.36)">d</text><text class="cls-2" transform="translate(102.72 628.1) rotate(-96.16)">=</text><text class="cls-2" transform="matrix(-0.08, -0.99, 1, -0.08, 100.86, 610.79)">&quot;</text><text class="cls-2" transform="matrix(-0.06, -1, 1, -0.06, 99.39, 593.43)">L</text><text class="cls-2" transform="matrix(-0.04, -1, 1, -0.04, 98.34, 576.04)">a</text><text class="cls-2" transform="matrix(-0.01, -1, 1, -0.01, 97.69, 558.6)">y</text><text class="cls-2" transform="matrix(0.01, -1, 1, 0.01, 97.45, 541.19)">e</text><text class="cls-2" transform="matrix(0.03, -1, 1, 0.03, 97.61, 523.76)">r</text><text class="cls-2" transform="translate(98.18 506.36) rotate(-86.79)">_</text><text class="cls-2" transform="matrix(0.08, -0.99, 1, 0.08, 99.15, 488.96)">1</text><text class="cls-2" transform="translate(100.54 471.6) rotate(-84.1)">&quot;</text><text class="cls-2" transform="translate(102.33 454.26) rotate(-82.75)"> </text><text class="cls-2" transform="matrix(0.15, -0.99, 0.99, 0.15, 104.52, 436.97)">d</text><text class="cls-2" transform="matrix(0.17, -0.98, 0.98, 0.17, 107.13, 419.74)">a</text><text class="cls-2" transform="translate(110.15 402.59) rotate(-78.67)">t</text><text class="cls-2" transform="translate(113.57 385.5) rotate(-77.3)">a</text><text class="cls-2" transform="matrix(0.24, -0.97, 0.97, 0.24, 117.4, 368.5)">-</text><text class="cls-2" transform="translate(121.63 351.62) rotate(-74.57)">n</text><text class="cls-2" transform="translate(126.26 334.83) rotate(-73.21)">a</text><text class="cls-2" transform="translate(131.29 318.14) rotate(-71.84)">m</text><text class="cls-2" transform="translate(136.72 301.58) rotate(-70.47)">e</text><text class="cls-2" transform="translate(142.54 285.18) rotate(-69.11)">=</text><text class="cls-2" transform="translate(148.75 268.89) rotate(-67.74)">&quot;</text><text class="cls-2" transform="matrix(0.4, -0.91, 0.92, 0.4, 155.35, 252.76)">L</text><text class="cls-2" transform="matrix(0.42, -0.9, 0.91, 0.42, 162.34, 236.8)">a</text><text class="cls-2" transform="translate(169.7 221.01) rotate(-63.64)">y</text><text class="cls-2" transform="translate(177.43 205.39) rotate(-62.28)">e</text><text class="cls-2" transform="matrix(0.48, -0.87, 0.87, 0.49, 185.52, 189.99)">r</text><text class="cls-2" transform="matrix(0.51, -0.86, 0.86, 0.51, 194, 174.75)"> </text><text class="cls-2" transform="translate(202.82 159.73) rotate(-58.2)">1</text><text class="cls-2" transform="translate(212 144.92) rotate(-56.85)">&quot;</text><text class="cls-2" transform="translate(221.52 130.34) rotate(-55.49)"> </text><text class="cls-2" transform="matrix(-0.52, -0.85, 0.85, -0.52, 202.83, 937.25)">&lt;</text><text class="cls-2" transform="matrix(-0.5, -0.86, 0.86, -0.5, 193.69, 922.43)">i</text><text class="cls-2" transform="translate(184.91 907.4) rotate(-118.94)"> </text><text class="cls-2" transform="translate(176.47 892.14) rotate(-117.6)">c</text><text class="cls-2" transform="matrix(-0.44, -0.89, 0.9, -0.44, 168.41, 876.71)">l</text><text class="cls-2" transform="translate(160.69 861.07) rotate(-114.91)">a</text><text class="cls-2" transform="translate(153.35 845.26) rotate(-113.56)">s</text><text class="cls-2" transform="translate(146.38 829.29) rotate(-112.21)">s</text><text class="cls-2" transform="translate(139.8 813.16) rotate(-110.86)">=</text><text class="cls-2" transform="matrix(-0.33, -0.94, 0.94, -0.33, 133.6, 796.9)">&quot;</text><text class="cls-2" transform="translate(127.77 780.45) rotate(-108.16)">h</text><text class="cls-2" transform="translate(122.35 763.93) rotate(-106.81)">o</text><text class="cls-2" transform="translate(117.3 747.23) rotate(-105.46)">m</text><text class="cls-2" transform="translate(112.65 730.45) rotate(-104.11)">e</text><text class="cls-2" transform="translate(108.4 713.55) rotate(-102.77)">&quot;</text><text class="cls-2" transform="matrix(-0.2, -0.98, 0.98, -0.2, 104.55, 696.56)">&gt;</text><text class="cls-2" transform="translate(101.1 679.46) rotate(-100.07)">&lt;</text><text class="cls-2" transform="translate(98.05 662.31) rotate(-98.73)">/</text><text class="cls-2" transform="matrix(-0.13, -0.99, 0.99, -0.13, 95.41, 645.1)">i</text><text class="cls-2" transform="translate(93.16 627.8) rotate(-96.06)">&gt;</text><text class="cls-2" transform="matrix(-0.7, -0.71, 0.71, -0.7, 345, 1034.5)">.</text><text class="cls-2" transform="translate(332.74 1022.12) rotate(-133.28)">v</text><text class="cls-2" transform="translate(320.79 1009.43) rotate(-131.85)">i</text><text class="cls-2" transform="translate(309.19 996.48) rotate(-130.42)">e</text><text class="cls-2" transform="translate(297.89 983.21) rotate(-128.98)">w</text><text class="cls-2" transform="translate(286.92 969.66) rotate(-127.55)">_</text><text class="cls-2" transform="translate(276.3 955.85) rotate(-126.12)">p</text><text class="cls-2" transform="matrix(-0.57, -0.82, 0.82, -0.57, 266.05, 941.8)">c</text><text class="cls-2" transform="matrix(-0.55, -0.83, 0.84, -0.55, 256.14, 927.48)"> </text><text class="cls-2" transform="matrix(-0.53, -0.85, 0.85, -0.53, 246.58, 912.91)">{</text><text class="cls-2" transform="matrix(-0.5, -0.86, 0.86, -0.51, 237.4, 898.11)"> </text><text class="cls-2" transform="translate(228.59 883.09) rotate(-118.94)">d</text><text class="cls-2" transform="matrix(-0.46, -0.88, 0.89, -0.46, 220.17, 867.86)">i</text><text class="cls-2" transform="matrix(-0.44, -0.9, 0.9, -0.44, 212.12, 852.4)">s</text><text class="cls-2" transform="translate(204.48 836.77) rotate(-114.61)">p</text><text class="cls-2" transform="matrix(-0.39, -0.92, 0.92, -0.39, 197.22, 820.93)">l</text><text class="cls-2" transform="matrix(-0.37, -0.93, 0.93, -0.37, 190.37, 804.93)">a</text><text class="cls-2" transform="matrix(-0.35, -0.94, 0.94, -0.35, 183.92, 788.76)">y</text><text class="cls-2" transform="matrix(-0.32, -0.94, 0.95, -0.32, 177.89, 772.42)"> </text><text class="cls-2" transform="translate(172.26 755.92) rotate(-107.38)">:</text><text class="cls-2" transform="matrix(-0.27, -0.96, 0.96, -0.27, 167.05, 739.31)"> </text><text class="cls-2" transform="translate(162.27 722.57) rotate(-104.49)">n</text><text class="cls-2" transform="translate(157.91 705.71) rotate(-103.05)">o</text><text class="cls-2" transform="translate(153.98 688.74) rotate(-101.6)">n</text><text class="cls-2" transform="translate(150.47 671.68) rotate(-100.16)">e</text><text class="cls-2" transform="translate(147.4 654.53) rotate(-98.72)"> </text><text class="cls-2" transform="matrix(-0.13, -0.99, 0.99, -0.13, 144.75, 637.32)">!</text><text class="cls-2" transform="translate(142.54 620.06) rotate(-95.86)">i</text><text class="cls-2" transform="translate(140.77 602.74) rotate(-94.43)">m</text><text class="cls-2" transform="translate(139.42 585.37) rotate(-93.01)">p</text><text class="cls-2" transform="matrix(-0.03, -1, 1, -0.03, 138.5, 567.98)">o</text><text class="cls-2" transform="translate(138.06 550.52) rotate(-90.47)">r</text><text class="cls-2" transform="translate(137.96 533.15) rotate(-88.78)">t</text><text class="cls-2" transform="translate(138.33 515.73) rotate(-87.37)">a</text><text class="cls-2" transform="matrix(0.07, -0.99, 1, 0.07, 139.12, 498.34)">n</text><text class="cls-2" transform="translate(140.35 480.96) rotate(-84.52)">t</text><text class="cls-2" transform="matrix(0.12, -0.99, 0.99, 0.12, 142.01, 463.62)">;</text><text class="cls-2" transform="translate(144.11 446.33) rotate(-81.66)"> </text><text class="cls-2" transform="matrix(0.17, -0.98, 0.99, 0.17, 146.63, 429.1)">o</text><text class="cls-2" transform="translate(149.59 411.93) rotate(-78.78)">v</text><text class="cls-2" transform="matrix(0.22, -0.97, 0.98, 0.22, 152.98, 394.86)">e</text><text class="cls-2" transform="matrix(0.24, -0.97, 0.97, 0.24, 156.8, 377.85)">r</text><text class="cls-2" transform="translate(161.04 360.97) rotate(-74.44)">f</text><text class="cls-2" transform="translate(165.7 344.21) rotate(-73)">l</text><text class="cls-2" transform="translate(170.8 327.53) rotate(-71.55)">o</text><text class="cls-2" transform="translate(176.3 311.03) rotate(-70.11)">w</text><text class="cls-2" transform="translate(182.23 294.66) rotate(-68.66)"> </text><text class="cls-2" transform="translate(188.56 278.44) rotate(-67.22)">:</text><text class="cls-2" transform="matrix(0.41, -0.91, 0.91, 0.41, 195.31, 262.37)"> </text><text class="cls-2" transform="matrix(0.43, -0.9, 0.9, 0.43, 202.45, 246.5)">h</text><text class="cls-2" transform="translate(210 230.78) rotate(-62.88)">i</text><text class="cls-2" transform="translate(217.94 215.29) rotate(-61.44)">d</text><text class="cls-2" transform="translate(226.26 200) rotate(-60)">d</text><text class="cls-2" transform="matrix(0.52, -0.85, 0.85, 0.52, 234.97, 184.91)">e</text><text class="cls-2" transform="matrix(0.54, -0.84, 0.84, 0.54, 244.04, 170.06)">n</text><text class="cls-2" transform="translate(253.49 155.43) rotate(-55.7)">;</text><text class="cls-2" transform="matrix(0.58, -0.81, 0.81, 0.58, 263.31, 141.03)"> </text><text class="cls-2" transform="translate(273.48 126.9) rotate(-52.83)">}</text>
</g>
</g>
</g>
</svg>