<svg xmlns="http://www.w3.org/2000/svg" viewBox="0 0 960 1080"><defs><style>.cls-1{font-size:32px;fill:#232323;font-family:Consolas;}.cls-2{fill:none;}</style></defs><g id="Layer_2" data-name="Layer 2"><g id="Layer_1-2" data-name="Layer 1"><g id="left"><text class="cls-1" transform="matrix(-0.52, -0.85, 0.85, -0.52, 330.83, 937.25)">&lt;</text><text class="cls-1" transform="translate(321.69 922.43) rotate(-120.28)">i</text><text class="cls-1" transform="translate(312.91 907.4) rotate(-118.94)"> </text><text class="cls-1" transform="translate(304.47 892.14) rotate(-117.6)">c</text><text class="cls-1" transform="translate(296.41 876.71) rotate(-116.25)">l</text><text class="cls-1" transform="matrix(-0.42, -0.9, 0.91, -0.42, 288.69, 861.07)">a</text><text class="cls-1" transform="matrix(-0.4, -0.91, 0.92, -0.4, 281.35, 845.26)">s</text><text class="cls-1" transform="matrix(-0.38, -0.92, 0.93, -0.38, 274.38, 829.29)">s</text><text class="cls-1" transform="translate(267.8 813.16) rotate(-110.86)">=</text><text class="cls-1" transform="matrix(-0.33, -0.94, 0.94, -0.33, 261.6, 796.9)">&quot;</text><text class="cls-1" transform="translate(255.77 780.45) rotate(-108.16)">h</text><text class="cls-1" transform="translate(250.35 763.93) rotate(-106.81)">o</text><text class="cls-1" transform="matrix(-0.27, -0.96, 0.96, -0.27, 245.3, 747.23)">m</text><text class="cls-1" transform="translate(240.65 730.45) rotate(-104.11)">e</text><text class="cls-1" transform="matrix(-0.22, -0.97, 0.98, -0.22, 236.4, 713.55)">&quot;</text><text class="cls-1" transform="matrix(-0.2, -0.98, 0.98, -0.2, 232.55, 696.56)">&gt;</text><text class="cls-1" transform="translate(229.1 679.46) rotate(-100.07)">&lt;</text><text class="cls-1" transform="translate(226.05 662.31) rotate(-98.73)">/</text><text class="cls-1" transform="translate(223.4 645.1) rotate(-97.39)">i</text><text class="cls-1" transform="translate(221.16 627.83) rotate(-96.06)">&gt;</text><text class="cls-1" transform="translate(215.99 539.5) rotate(-89.34)">&lt;</text><text class="cls-1" transform="translate(216.19 522.06) rotate(-88.02)">s</text><text class="cls-1" transform="matrix(0.06, -1, 1, 0.06, 216.79, 504.65)">p</text><text class="cls-1" transform="translate(217.79 487.26) rotate(-85.38)">a</text><text class="cls-1" transform="translate(219.19 469.89) rotate(-84.04)">n</text><text class="cls-1" transform="matrix(0.13, -0.99, 0.99, 0.13, 221, 452.56)">&gt;</text><text class="cls-1" transform="translate(223.2 435.28) rotate(-81.37)">H</text><text class="cls-1" transform="translate(225.82 418.05) rotate(-80.03)">e</text><text class="cls-1" transform="translate(228.83 400.89) rotate(-78.68)">l</text><text class="cls-1" transform="matrix(0.22, -0.97, 0.98, 0.22, 232.25, 383.8)">l</text><text class="cls-1" transform="translate(236.07 366.82) rotate(-75.99)">o</text><text class="cls-1" transform="translate(240.29 349.92) rotate(-74.64)">&amp;</text><text class="cls-1" transform="translate(244.9 333.1) rotate(-73.29)">#</text><text class="cls-1" transform="matrix(0.31, -0.95, 0.95, 0.31, 249.91, 316.4)">3</text><text class="cls-1" transform="translate(255.31 299.84) rotate(-70.59)">2</text><text class="cls-1" transform="translate(261.1 283.42) rotate(-69.24)">;</text><text class="cls-1" transform="translate(267.27 267.12) rotate(-67.89)">W</text><text class="cls-1" transform="matrix(0.4, -0.91, 0.92, 0.4, 273.83, 250.98)">o</text><text class="cls-1" transform="translate(280.76 235.01) rotate(-65.2)">r</text><text class="cls-1" transform="matrix(0.44, -0.9, 0.9, 0.44, 288.08, 219.17)">l</text><text class="cls-1" transform="translate(295.75 203.54) rotate(-62.5)">d</text><text class="cls-1" transform="matrix(0.48, -0.87, 0.88, 0.48, 303.8, 188.08)">&amp;</text><text class="cls-1" transform="translate(312.2 172.82) rotate(-59.82)">#</text><text class="cls-1" transform="matrix(0.52, -0.85, 0.85, 0.52, 320.96, 157.75)">3</text><text class="cls-1" transform="translate(330.06 142.91) rotate(-57.14)">3</text><text class="cls-1" transform="translate(339.52 128.27) rotate(-55.8)">;</text><text class="cls-1" transform="translate(349.32 113.85) rotate(-54.46)">&lt;</text><text class="cls-1" transform="matrix(0.6, -0.8, 0.8, 0.6, 359.44, 99.68)">/</text><text class="cls-1" transform="translate(369.9 85.74) rotate(-51.78)">s</text><text class="cls-1" transform="matrix(0.64, -0.77, 0.77, 0.64, 380.67, 72.06)">p</text><text class="cls-1" transform="translate(255.22 747.44) rotate(-105.69)">&lt;</text><text class="cls-1" transform="translate(250.51 730.66) rotate(-104.32)">s</text><text class="cls-1" transform="matrix(-0.22, -0.97, 0.97, -0.22, 246.2, 713.78)">v</text><text class="cls-1" transform="matrix(-0.2, -0.98, 0.98, -0.2, 242.29, 696.8)">g</text><text class="cls-1" transform="translate(238.79 679.74) rotate(-100.23)"> </text><text class="cls-1" transform="translate(235.69 662.6) rotate(-98.87)">i</text><text class="cls-1" transform="translate(233 645.36) rotate(-97.51)">d</text><text class="cls-1" transform="translate(230.72 628.1) rotate(-96.16)">=</text><text class="cls-1" transform="translate(228.86 610.79) rotate(-94.81)">&quot;</text><text class="cls-1" transform="translate(227.39 593.43) rotate(-93.46)">L</text><text class="cls-1" transform="translate(226.34 576.04) rotate(-92.13)">a</text><text class="cls-1" transform="translate(225.69 558.62) rotate(-90.79)">y</text><text class="cls-1" transform="translate(225.45 541.19) rotate(-89.46)">e</text><text class="cls-1" transform="translate(225.61 523.76) rotate(-88.13)">r</text><text class="cls-1" transform="translate(226.18 506.36) rotate(-86.79)">_</text><text class="cls-1" transform="translate(227.15 488.96) rotate(-85.45)">1</text><text class="cls-1" transform="translate(228.54 471.6) rotate(-84.1)">&quot;</text><text class="cls-1" transform="matrix(0.13, -0.99, 0.99, 0.13, 230.33, 454.26)"> </text><text class="cls-1" transform="translate(232.52 436.97) rotate(-81.39)">d</text><text class="cls-1" transform="matrix(0.17, -0.98, 0.98, 0.17, 235.13, 419.74)">a</text><text class="cls-1" transform="translate(238.15 402.59) rotate(-78.67)">t</text><text class="cls-1" transform="translate(241.57 385.5) rotate(-77.3)">a</text><text class="cls-1" transform="matrix(0.24, -0.97, 0.97, 0.24, 245.4, 368.5)">-</text><text class="cls-1" transform="matrix(0.27, -0.96, 0.96, 0.27, 249.63, 351.62)">n</text><text class="cls-1" transform="translate(254.26 334.83) rotate(-73.21)">a</text><text class="cls-1" transform="matrix(0.31, -0.95, 0.95, 0.31, 259.29, 318.14)">m</text><text class="cls-1" transform="matrix(0.33, -0.94, 0.94, 0.33, 264.72, 301.58)">e</text><text class="cls-1" transform="translate(270.54 285.18) rotate(-69.11)">=</text><text class="cls-1" transform="translate(276.75 268.89) rotate(-67.74)">&quot;</text><text class="cls-1" transform="matrix(0.4, -0.91, 0.92, 0.4, 283.35, 252.76)">L</text><text class="cls-1" transform="translate(290.34 236.8) rotate(-65.01)">a</text><text class="cls-1" transform="translate(297.7 221.01) rotate(-63.64)">y</text><text class="cls-1" transform="translate(305.43 205.39) rotate(-62.28)">e</text><text class="cls-1" transform="matrix(0.48, -0.87, 0.87, 0.49, 313.52, 189.99)">r</text><text class="cls-1" transform="translate(322 174.75) rotate(-59.56)"> </text><text class="cls-1" transform="matrix(0.53, -0.85, 0.85, 0.53, 330.82, 159.73)">1</text><text class="cls-1" transform="translate(340 144.92) rotate(-56.85)">&quot;</text><text class="cls-1" transform="matrix(0.56, -0.82, 0.82, 0.57, 349.52, 130.34)"> </text><text class="cls-1" transform="translate(236.51 800.84) rotate(-109.16)">&lt;</text><text class="cls-1" transform="matrix(-0.31, -0.95, 0.95, -0.31, 230.79, 784.38)">d</text><text class="cls-1" transform="translate(225.45 767.81) rotate(-106.55)">i</text><text class="cls-1" transform="translate(220.48 751.09) rotate(-105.24)">v</text><text class="cls-1" transform="translate(215.9 734.3) rotate(-103.94)"> </text><text class="cls-1" transform="translate(211.7 717.36) rotate(-102.63)">c</text><text class="cls-1" transform="translate(207.89 700.37) rotate(-101.33)">l</text><text class="cls-1" transform="translate(204.46 683.27) rotate(-100.03)">a</text><text class="cls-1" transform="translate(201.43 666.13) rotate(-98.73)">s</text><text class="cls-1" transform="translate(198.78 648.9) rotate(-97.43)">s</text><text class="cls-1" transform="translate(196.52 631.6) rotate(-96.14)">=</text><text class="cls-1" transform="matrix(-0.08, -0.99, 1, -0.08, 194.66, 614.29)">&quot;</text><text class="cls-1" transform="translate(193.18 596.9) rotate(-93.56)">b</text><text class="cls-1" transform="translate(192.1 579.53) rotate(-92.29)">o</text><text class="cls-1" transform="matrix(-0.02, -1, 1, -0.02, 191.4, 562.1)">x</text><text class="cls-1" transform="translate(191.07 544.7) rotate(-89.57)">_</text><text class="cls-1" transform="translate(191.17 527.26) rotate(-88.47)">i</text><text class="cls-1" transform="translate(191.64 509.81) rotate(-87.19)">m</text><text class="cls-1" transform="translate(192.49 492.42) rotate(-85.91)">a</text><text class="cls-1" transform="translate(193.73 475.03) rotate(-84.62)">g</text><text class="cls-1" transform="translate(195.37 457.67) rotate(-83.33)">e</text><text class="cls-1" transform="translate(197.39 440.36) rotate(-82.03)"> </text><text class="cls-1" transform="translate(199.8 423.1) rotate(-80.74)">s</text><text class="cls-1" transform="translate(202.6 405.92) rotate(-79.44)">u</text><text class="cls-1" transform="matrix(0.21, -0.98, 0.98, 0.21, 205.8, 388.78)">n</text><text class="cls-1" transform="translate(209.38 371.73) rotate(-76.83)">&quot;</text><text class="cls-1" transform="translate(213.35 354.76) rotate(-75.53)">&gt;</text><text class="cls-1" transform="translate(217.7 337.89) rotate(-74.22)">&lt;</text><text class="cls-1" transform="matrix(0.29, -0.95, 0.96, 0.29, 222.44, 321.12)">i</text><text class="cls-1" transform="matrix(0.31, -0.95, 0.95, 0.32, 227.55, 304.46)">m</text><text class="cls-1" transform="matrix(0.34, -0.94, 0.94, 0.34, 233.06, 287.91)">g</text><text class="cls-1" transform="translate(238.92 271.52) rotate(-69)"> </text><text class="cls-1" transform="matrix(0.38, -0.92, 0.93, 0.38, 245.17, 255.24)">s</text><text class="cls-1" transform="translate(251.79 239.11) rotate(-66.39)">r</text><text class="cls-1" transform="translate(258.77 223.14) rotate(-65.08)">c</text><text class="cls-1" transform="matrix(0.44, -0.89, 0.9, 0.44, 266.1, 207.35)">=</text><text class="cls-1" transform="translate(273.8 191.7) rotate(-62.48)">&quot;</text><text class="cls-1" transform="translate(281.85 176.26) rotate(-61.18)">.</text><text class="cls-1" transform="translate(290.25 160.99) rotate(-59.88)">.</text><text class="cls-1" transform="matrix(0.52, -0.85, 0.85, 0.52, 299, 145.9)">/</text><text class="cls-1" transform="matrix(0.54, -0.84, 0.84, 0.54, 308.08, 131.04)">i</text><text class="cls-1" transform="matrix(0.56, -0.83, 0.83, 0.56, 317.5, 116.37)">m</text><text class="cls-1" transform="translate(327.24 101.93) rotate(-54.69)">a</text><text class="cls-1" transform="matrix(-0.66, -0.75, 0.75, -0.66, 431.26, 1021.99)">&lt;</text><text class="cls-1" transform="matrix(-0.64, -0.76, 0.76, -0.65, 419.68, 1008.98)">s</text><text class="cls-1" transform="translate(408.44 995.7) rotate(-128.88)">p</text><text class="cls-1" transform="matrix(-0.61, -0.79, 0.79, -0.61, 397.49, 982.13)">a</text><text class="cls-1" transform="translate(386.89 968.31) rotate(-126.1)">n</text><text class="cls-1" transform="translate(376.64 954.25) rotate(-124.71)">&gt;</text><text class="cls-1" transform="translate(366.71 939.92) rotate(-123.32)">H</text><text class="cls-1" transform="matrix(-0.53, -0.85, 0.85, -0.53, 357.14, 925.37)">e</text><text class="cls-1" transform="matrix(-0.51, -0.86, 0.86, -0.51, 347.93, 910.59)">l</text><text class="cls-1" transform="translate(339.08 895.59) rotate(-119.13)">l</text><text class="cls-1" transform="translate(330.59 880.36) rotate(-117.73)">o</text><text class="cls-1" transform="matrix(-0.44, -0.89, 0.9, -0.44, 322.48, 864.94)">&amp;</text><text class="cls-1" transform="translate(314.76 849.35) rotate(-114.94)">#</text><text class="cls-1" transform="translate(307.41 833.55) rotate(-113.54)">3</text><text class="cls-1" transform="translate(300.45 817.57) rotate(-112.13)">2</text><text class="cls-1" transform="translate(293.89 801.45) rotate(-110.73)">;</text><text class="cls-1" transform="translate(287.73 785.16) rotate(-109.33)">W</text><text class="cls-1" transform="matrix(-0.31, -0.95, 0.95, -0.31, 281.96, 768.72)">o</text><text class="cls-1" transform="translate(276.6 752.16) rotate(-106.52)">r</text><text class="cls-1" transform="translate(271.64 735.45) rotate(-105.12)">l</text><text class="cls-1" transform="matrix(-0.24, -0.97, 0.97, -0.24, 267.1, 718.64)">d</text><text class="cls-1" transform="translate(262.96 701.7) rotate(-102.31)">&amp;</text><text class="cls-1" transform="translate(259.25 684.7) rotate(-100.92)">#</text><text class="cls-1" transform="translate(255.95 667.59) rotate(-99.52)">3</text><text class="cls-1" transform="translate(253.07 650.43) rotate(-98.12)">3</text><text class="cls-1" transform="matrix(-0.12, -0.99, 0.99, -0.12, 250.6, 633.16)">;</text><text class="cls-1" transform="translate(248.56 615.87) rotate(-95.35)">&lt;</text><text class="cls-1" transform="translate(246.94 598.51) rotate(-93.96)">/</text><text class="cls-1" transform="translate(245.73 581.14) rotate(-92.59)">s</text><text class="cls-1" transform="translate(244.95 563.73) rotate(-91.21)">p</text><text class="cls-1" transform="translate(244.57 546.34) rotate(-89.84)">a</text><text class="cls-1" transform="matrix(0.03, -1, 1, 0.03, 244.62, 528.9)">n</text><text class="cls-1" transform="translate(245.08 511.5) rotate(-87.11)">&gt;</text><text class="cls-1" transform="translate(421.35 1001.55) rotate(-129.9)">&lt;</text><text class="cls-1" transform="translate(410.18 988.19) rotate(-128.5)">a</text><text class="cls-1" transform="translate(399.33 974.56) rotate(-127.1)"> </text><text class="cls-1" transform="translate(388.82 960.65) rotate(-125.69)">c</text><text class="cls-1" transform="translate(378.65 946.5) rotate(-124.29)">l</text><text class="cls-1" transform="matrix(-0.54, -0.84, 0.84, -0.54, 368.85, 932.12)">a</text><text class="cls-1" transform="matrix(-0.52, -0.85, 0.85, -0.52, 359.38, 917.49)">s</text><text class="cls-1" transform="matrix(-0.5, -0.86, 0.87, -0.5, 350.29, 902.64)">s</text><text class="cls-1" transform="translate(341.56 887.58) rotate(-118.67)">=</text><text class="cls-1" transform="translate(333.2 872.28) rotate(-117.25)">&quot;</text><text class="cls-1" transform="matrix(-0.43, -0.9, 0.9, -0.44, 325.23, 856.81)">b</text><text class="cls-1" transform="matrix(-0.41, -0.91, 0.91, -0.41, 317.63, 841.12)">e</text><text class="cls-1" transform="translate(310.43 825.27) rotate(-113.02)">s</text><text class="cls-1" transform="translate(303.62 809.25) rotate(-111.6)">t</text><text class="cls-1" transform="translate(297.2 793.05) rotate(-110.19)">_</text><text class="cls-1" transform="translate(291.18 776.69) rotate(-108.77)">d</text><text class="cls-1" transform="translate(285.58 760.23) rotate(-107.36)">a</text><text class="cls-1" transform="translate(280.38 743.58) rotate(-105.94)">y</text><text class="cls-1" transform="translate(275.6 726.86) rotate(-104.53)">&quot;</text><text class="cls-1" transform="matrix(-0.23, -0.97, 0.97, -0.23, 271.23, 709.99)"> </text><text class="cls-1" transform="translate(224.09 649.8) rotate(-97.76)">.</text><text class="cls-1" transform="matrix(-0.11, -0.99, 0.99, -0.11, 221.73, 632.55)">h</text><text class="cls-1" transform="translate(219.78 615.22) rotate(-95.09)">o</text><text class="cls-1" transform="translate(218.24 597.86) rotate(-93.76)">m</text><text class="cls-1" transform="matrix(-0.04, -1, 1, -0.04, 217.09, 580.48)">e</text><text class="cls-1" transform="translate(216.35 563.06) rotate(-91.12)"> </text><text class="cls-1" transform="matrix(0.01, -1, 1, 0.01, 215.98, 545.66)">{</text><text class="cls-1" transform="translate(216.07 528.22) rotate(-88.49)"> </text><text class="cls-1" transform="translate(216.53 510.8) rotate(-87.17)">c</text><text class="cls-1" transform="matrix(0.07, -0.99, 1, 0.07, 217.39, 493.4)">o</text><text class="cls-1" transform="matrix(0.1, -0.99, 1, 0.1, 218.65, 476.03)">l</text><text class="cls-1" transform="matrix(0.12, -0.99, 0.99, 0.12, 220.31, 458.66)">o</text><text class="cls-1" transform="translate(222.38 441.38) rotate(-81.84)">r</text><text class="cls-1" transform="translate(224.85 424.12) rotate(-80.5)">:</text><text class="cls-1" transform="translate(227.72 406.95) rotate(-79.16)">#</text><text class="cls-1" transform="translate(231 389.82) rotate(-77.81)">2</text><text class="cls-1" transform="translate(234.68 372.79) rotate(-76.46)">3</text><text class="cls-1" transform="matrix(0.26, -0.96, 0.97, 0.26, 238.76, 355.85)">2</text><text class="cls-1" transform="translate(243.23 339.02) rotate(-73.77)">3</text><text class="cls-1" transform="translate(248.1 322.29) rotate(-72.42)">2</text><text class="cls-1" transform="translate(253.36 305.69) rotate(-71.07)">3</text><text class="cls-1" transform="matrix(0.35, -0.94, 0.94, 0.35, 259.01, 289.2)">;</text><text class="cls-1" transform="translate(265.05 272.85) rotate(-68.37)"> </text><text class="cls-1" transform="matrix(0.39, -0.92, 0.92, 0.39, 271.48, 256.66)">f</text><text class="cls-1" transform="matrix(0.41, -0.91, 0.91, 0.41, 278.28, 240.62)">o</text><text class="cls-1" transform="matrix(0.43, -0.9, 0.9, 0.43, 285.45, 224.74)">n</text><text class="cls-1" transform="translate(293 209.04) rotate(-62.98)">t</text><text class="cls-1" transform="matrix(0.47, -0.88, 0.88, 0.48, 300.92, 193.51)">-</text><text class="cls-1" transform="translate(309.2 178.17) rotate(-60.29)">s</text><text class="cls-1" transform="translate(317.83 163.05) rotate(-58.95)">i</text><text class="cls-1" transform="translate(326.81 148.12) rotate(-57.61)">z</text><text class="cls-1" transform="translate(336.14 133.42) rotate(-56.27)">e</text><text class="cls-1" transform="matrix(0.57, -0.82, 0.82, 0.57, 345.81, 118.93)">:</text><text class="cls-1" transform="translate(355.83 104.65) rotate(-53.59)">1</text><text class="cls-1" transform="matrix(0.61, -0.79, 0.79, 0.61, 366.17, 90.63)">e</text><text class="cls-1" transform="translate(376.83 76.86) rotate(-50.92)">m</text><text class="cls-1" transform="matrix(0.65, -0.76, 0.76, 0.65, 387.83, 63.32)">;</text><text class="cls-1" transform="matrix(0.66, -0.75, 0.75, 0.66, 399.16, 50.06)"> </text><text class="cls-1" transform="translate(257.55 481.84) rotate(-84.68)">.</text><text class="cls-1" transform="translate(259.17 464.5) rotate(-83.27)">b</text><text class="cls-1" transform="matrix(0.14, -0.99, 0.99, 0.14, 261.21, 447.18)">o</text><text class="cls-1" transform="matrix(0.17, -0.98, 0.99, 0.17, 263.68, 429.93)">x</text><text class="cls-1" transform="translate(266.57 412.77) rotate(-79.02)">_</text><text class="cls-1" transform="translate(269.88 395.68) rotate(-77.6)">i</text><text class="cls-1" transform="translate(273.62 378.67) rotate(-76.18)">m</text><text class="cls-1" transform="matrix(0.26, -0.96, 0.96, 0.26, 277.78, 361.74)">a</text><text class="cls-1" transform="translate(282.36 344.95) rotate(-73.33)">g</text><text class="cls-1" transform="translate(287.35 328.26) rotate(-71.91)">e</text><text class="cls-1" transform="translate(292.75 311.72) rotate(-70.48)"> </text><text class="cls-1" transform="matrix(0.36, -0.93, 0.93, 0.36, 298.57, 295.3)">{</text><text class="cls-1" transform="translate(304.8 279.03) rotate(-67.63)"> </text><text class="cls-1" transform="matrix(0.4, -0.91, 0.92, 0.4, 311.43, 262.91)">w</text><text class="cls-1" transform="matrix(0.42, -0.9, 0.9, 0.43, 318.45, 246.98)">i</text><text class="cls-1" transform="translate(325.87 231.21) rotate(-63.37)">d</text><text class="cls-1" transform="translate(333.67 215.65) rotate(-61.95)">t</text><text class="cls-1" transform="translate(341.86 200.29) rotate(-60.53)">h</text><text class="cls-1" transform="translate(350.43 185.13) rotate(-59.11)"> </text><text class="cls-1" transform="translate(359.37 170.17) rotate(-57.7)">:</text><text class="cls-1" transform="translate(368.68 155.45) rotate(-56.28)"> </text><text class="cls-1" transform="matrix(0.57, -0.82, 0.82, 0.58, 378.33, 140.97)">2</text><text class="cls-1" transform="matrix(0.59, -0.8, 0.8, 0.6, 388.37, 126.71)">4</text><text class="cls-1" transform="matrix(0.61, -0.79, 0.79, 0.62, 398.74, 112.71)">p</text><text class="cls-1" transform="matrix(0.63, -0.77, 0.77, 0.63, 409.44, 98.98)">x</text><text class="cls-1" transform="translate(420.5 85.5) rotate(-49.23)"> </text><text class="cls-1" transform="matrix(-0.51, -0.85, 0.86, -0.51, 387.6, 893.4)">.</text><text class="cls-1" transform="matrix(-0.49, -0.87, 0.87, -0.49, 378.63, 878.47)">b</text><text class="cls-1" transform="translate(370.05 863.31) rotate(-118.02)">o</text><text class="cls-1" transform="translate(361.87 847.95) rotate(-116.53)">x</text><text class="cls-1" transform="translate(354.1 832.37) rotate(-115.04)">_</text><text class="cls-1" transform="matrix(-0.4, -0.91, 0.92, -0.4, 346.73, 816.6)">i</text><text class="cls-1" transform="translate(339.76 800.64) rotate(-112.06)">m</text><text class="cls-1" transform="translate(333.22 784.5) rotate(-110.57)">a</text><text class="cls-1" transform="translate(327.11 768.22) rotate(-109.08)">g</text><text class="cls-1" transform="translate(321.4 751.74) rotate(-107.59)">e</text><text class="cls-1" transform="matrix(-0.28, -0.96, 0.96, -0.28, 316.14, 735.15)"> </text><text class="cls-1" transform="matrix(-0.25, -0.96, 0.97, -0.25, 311.32, 718.42)">&gt;</text><text class="cls-1" transform="translate(306.93 701.58) rotate(-103.11)"> </text><text class="cls-1" transform="translate(302.97 684.62) rotate(-101.62)">i</text><text class="cls-1" transform="translate(299.46 667.58) rotate(-100.14)">m</text><text class="cls-1" transform="matrix(-0.15, -0.99, 0.99, -0.15, 296.4, 650.43)">g</text><text class="cls-1" transform="matrix(-0.12, -0.99, 0.99, -0.12, 293.78, 633.22)">{</text><text class="cls-1" transform="matrix(-0.1, -0.99, 1, -0.1, 291.6, 615.94)"> </text><text class="cls-1" transform="translate(289.87 598.62) rotate(-94.23)">w</text><text class="cls-1" transform="translate(288.59 581.26) rotate(-92.76)">i</text><text class="cls-1" transform="translate(287.75 563.85) rotate(-91.3)">d</text><text class="cls-1" transform="matrix(0.01, -1, 1, 0.01, 287.32, 546.46)">t</text><text class="cls-1" transform="matrix(0.03, -1, 1, 0.03, 287.39, 529.05)">h</text><text class="cls-1" transform="translate(287.88 511.63) rotate(-86.94)"> </text><text class="cls-1" transform="matrix(0.08, -0.99, 1, 0.08, 288.81, 494.25)">:</text><text class="cls-1" transform="translate(290.18 476.89) rotate(-84)"> </text><text class="cls-1" transform="matrix(0.13, -0.99, 0.99, 0.13, 292, 459.57)">1</text><text class="cls-1" transform="matrix(0.16, -0.99, 0.99, 0.16, 294.26, 442.3)">0</text><text class="cls-1" transform="translate(296.98 425.09) rotate(-79.55)">0</text><text class="cls-1" transform="matrix(0.21, -0.98, 0.98, 0.21, 300.13, 407.99)">%</text><text class="cls-1" transform="matrix(0.23, -0.97, 0.97, 0.23, 303.72, 390.95)">;</text><text class="cls-1" transform="matrix(0.26, -0.96, 0.97, 0.26, 307.76, 374.03)"> </text><text class="cls-1" transform="translate(312.24 357.19) rotate(-73.6)">}</text><text class="cls-1" transform="translate(419.88 1032.21) rotate(-131.66)">.</text><text class="cls-1" transform="translate(408.31 1019.2) rotate(-130.3)">b</text><text class="cls-1" transform="matrix(-0.63, -0.78, 0.78, -0.63, 397.03, 1005.91)">e</text><text class="cls-1" transform="translate(386.08 992.36) rotate(-127.58)">s</text><text class="cls-1" transform="translate(375.46 978.56) rotate(-126.22)">t</text><text class="cls-1" transform="translate(365.16 964.5) rotate(-124.85)">_</text><text class="cls-1" transform="translate(355.21 950.21) rotate(-123.49)">d</text><text class="cls-1" transform="translate(345.59 935.68) rotate(-122.13)">a</text><text class="cls-1" transform="matrix(-0.51, -0.86, 0.86, -0.51, 336.33, 920.94)">y</text><text class="cls-1" transform="translate(327.41 905.96) rotate(-119.4)"> </text><text class="cls-1" transform="translate(318.86 890.78) rotate(-118.03)">{</text><text class="cls-1" transform="translate(310.67 875.4) rotate(-116.66)"> </text><text class="cls-1" transform="translate(302.86 859.84) rotate(-115.29)">f</text><text class="cls-1" transform="matrix(-0.4, -0.91, 0.91, -0.41, 295.41, 844.09)">o</text><text class="cls-1" transform="translate(288.35 828.17) rotate(-112.55)">n</text><text class="cls-1" transform="translate(281.67 812.08) rotate(-111.17)">t</text><text class="cls-1" transform="translate(275.38 795.83) rotate(-109.8)">-</text><text class="cls-1" transform="translate(269.47 779.43) rotate(-108.42)">s</text><text class="cls-1" transform="matrix(-0.29, -0.95, 0.96, -0.29, 263.96, 762.91)">i</text><text class="cls-1" transform="translate(258.86 746.26) rotate(-105.68)">z</text><text class="cls-1" transform="translate(254.14 729.47) rotate(-104.3)">e</text><text class="cls-1" transform="translate(249.84 712.6) rotate(-102.93)"> </text><text class="cls-1" transform="translate(245.94 695.61) rotate(-101.56)">:</text><text class="cls-1" transform="matrix(-0.18, -0.98, 0.98, -0.18, 242.45, 678.56)"> </text><text class="cls-1" transform="translate(239.37 661.42) rotate(-98.82)">1</text><text class="cls-1" transform="translate(236.69 644.2) rotate(-97.46)">.</text><text class="cls-1" transform="translate(234.43 626.91) rotate(-96.1)">2</text><text class="cls-1" transform="translate(232.58 609.6) rotate(-94.74)">e</text><text class="cls-1" transform="translate(231.14 592.24) rotate(-93.39)">m</text><text class="cls-1" transform="matrix(-0.04, -1, 1, -0.04, 230.11, 574.83)">;</text><text class="cls-1" transform="matrix(-0.01, -1, 1, -0.01, 229.48, 557.41)"> </text><text class="cls-1" transform="translate(229.27 540.02) rotate(-89.37)">c</text><text class="cls-1" transform="translate(229.46 522.58) rotate(-88.03)">o</text><text class="cls-1" transform="translate(230.06 505.18) rotate(-86.68)">l</text><text class="cls-1" transform="translate(231.06 487.77) rotate(-85.33)">o</text><text class="cls-1" transform="matrix(0.1, -0.99, 0.99, 0.1, 232.48, 470.41)">r</text><text class="cls-1" transform="translate(234.31 453.1) rotate(-82.62)"> </text><text class="cls-1" transform="matrix(0.15, -0.99, 0.99, 0.15, 236.55, 435.81)">:</text><text class="cls-1" transform="translate(239.2 418.58) rotate(-79.88)"> </text><text class="cls-1" transform="matrix(0.2, -0.98, 0.98, 0.2, 242.25, 401.45)">#</text><text class="cls-1" transform="translate(245.72 384.36) rotate(-77.14)">2</text><text class="cls-1" transform="translate(249.59 367.38) rotate(-75.77)">3</text><text class="cls-1" transform="translate(253.87 350.5) rotate(-74.4)">2</text><text class="cls-1" transform="translate(258.56 333.7) rotate(-73.02)">3</text><text class="cls-1" transform="translate(263.65 317.04) rotate(-71.65)">2</text><text class="cls-1" transform="translate(269.12 300.52) rotate(-70.28)">3</text><text class="cls-1" transform="matrix(0.36, -0.93, 0.93, 0.36, 275.01, 284.12)">;</text><text class="cls-1" transform="translate(281.27 267.86) rotate(-67.53)"> </text><text class="cls-1" transform="matrix(-0.6, -0.76, 0.79, -0.62, 375.75, 1041.05)">$</text><text class="cls-1" transform="translate(365.31 1027.78) rotate(-126.95) scale(0.97 1)">(</text><text class="cls-1" transform="matrix(-0.56, -0.78, 0.81, -0.58, 355.17, 1014.3)">d</text><text class="cls-1" transform="matrix(-0.55, -0.8, 0.82, -0.57, 345.31, 1000.58)">o</text><text class="cls-1" transform="translate(335.75 986.67) rotate(-123.26) scale(0.97 1)">c</text><text class="cls-1" transform="matrix(-0.51, -0.82, 0.85, -0.53, 326.5, 972.56)">u</text><text class="cls-1" transform="translate(317.56 958.27) rotate(-120.81) scale(0.97 1)">m</text><text class="cls-1" transform="translate(308.91 943.76) rotate(-119.58) scale(0.97 1)">e</text><text class="cls-1" transform="translate(300.57 929.08) rotate(-118.36) scale(0.97 1)">n</text><text class="cls-1" transform="translate(292.56 914.24) rotate(-117.14) scale(0.97 1)">t</text><text class="cls-1" transform="translate(284.86 899.23) rotate(-115.92) scale(0.97 1)">)</text><text class="cls-1" transform="translate(277.48 884.05) rotate(-114.7) scale(0.97 1)">.</text><text class="cls-1" transform="translate(270.43 868.71) rotate(-113.48) scale(0.97 1)">r</text><text class="cls-1" transform="translate(263.7 853.23) rotate(-112.26) scale(0.97 1)">e</text><text class="cls-1" transform="translate(257.31 837.61) rotate(-111.05) scale(0.97 1)">a</text><text class="cls-1" transform="matrix(-0.33, -0.91, 0.94, -0.34, 251.24, 821.86)">d</text><text class="cls-1" transform="translate(245.52 805.99) rotate(-108.62) scale(0.97 1)">y</text><text class="cls-1" transform="translate(240.13 790) rotate(-107.41) scale(0.97 1)">(</text><text class="cls-1" transform="translate(235.07 773.88) rotate(-106.2) scale(0.97 1)">f</text><text class="cls-1" transform="translate(230.37 757.68) rotate(-104.99) scale(0.97 1)">u</text><text class="cls-1" transform="translate(226 741.37) rotate(-103.78) scale(0.97 1)">n</text><text class="cls-1" transform="matrix(-0.21, -0.94, 0.98, -0.22, 221.98, 724.98)">c</text><text class="cls-1" transform="translate(218.3 708.5) rotate(-101.37) scale(0.97 1)">t</text><text class="cls-1" transform="translate(214.97 691.95) rotate(-100.17) scale(0.97 1)">i</text><text class="cls-1" transform="translate(212 675.35) rotate(-98.97) scale(0.97 1)">o</text><text class="cls-1" transform="translate(209.36 658.67) rotate(-97.77) scale(0.97 1)">n</text><text class="cls-1" transform="matrix(-0.11, -0.96, 0.99, -0.11, 207.08, 641.97)">(</text><text class="cls-1" transform="translate(205.15 625.2) rotate(-95.39) scale(0.97 1)"> </text><text class="cls-1" transform="translate(203.56 608.4) rotate(-94.21) scale(0.97 1)">)</text><text class="cls-1" transform="matrix(-0.05, -0.96, 1, -0.05, 202.32, 591.55)"> </text><text class="cls-1" transform="translate(201.42 574.69) rotate(-91.85) scale(0.97 1)">{</text><text class="cls-1" transform="matrix(-0.01, -0.97, 1, -0.01, 200.88, 557.83)"> </text><text class="cls-1" transform="matrix(0.01, -0.97, 1, 0.01, 200.68, 540.95)">l</text><text class="cls-1" transform="translate(200.82 524.06) rotate(-88.34) scale(0.97 1)">e</text><text class="cls-1" transform="translate(201.3 507.18) rotate(-87.17) scale(0.97 1)">t</text><text class="cls-1" transform="translate(202.14 490.33) rotate(-85.99) scale(0.97 1)"> </text><text class="cls-1" transform="translate(203.32 473.49) rotate(-84.81) scale(0.97 1)">t</text><text class="cls-1" transform="translate(204.84 456.69) rotate(-83.62) scale(0.97 1)">o</text><text class="cls-1" transform="translate(206.72 439.9) rotate(-82.42) scale(0.97 1)">d</text><text class="cls-1" transform="translate(208.94 423.17) rotate(-81.23) scale(0.97 1)">a</text><text class="cls-1" transform="translate(211.51 406.5) rotate(-80.03) scale(0.97 1)">y</text><text class="cls-1" transform="translate(214.44 389.86) rotate(-78.83) scale(0.97 1)"> </text><text class="cls-1" transform="matrix(0.21, -0.94, 0.98, 0.21, 217.7, 373.31)">=</text><text class="cls-1" transform="translate(221.32 356.82) rotate(-76.42) scale(0.97 1)"> </text><text class="cls-1" transform="translate(225.28 340.41) rotate(-75.22) scale(0.97 1)">n</text><text class="cls-1" transform="translate(229.58 324.11) rotate(-74.01) scale(0.97 1)">e</text><text class="cls-1" transform="translate(234.24 307.87) rotate(-72.79) scale(0.97 1)">w</text><text class="cls-1" transform="translate(239.23 291.74) rotate(-71.58) scale(0.97 1)"> </text><text class="cls-1" transform="translate(244.56 275.73) rotate(-70.37) scale(0.97 1)">D</text><text class="cls-1" transform="matrix(0.34, -0.9, 0.93, 0.36, 250.22, 259.85)">a</text><text class="cls-1" transform="translate(256.23 244.07) rotate(-67.94) scale(0.97 1)">t</text><text class="cls-1" transform="matrix(0.38, -0.89, 0.92, 0.4, 262.57, 228.42)">e</text><text class="cls-1" transform="translate(269.24 212.92) rotate(-65.5) scale(0.97 1)">.</text><text class="cls-1" transform="translate(276.23 197.56) rotate(-64.28) scale(0.97 1)">g</text><text class="cls-1" transform="translate(283.55 182.36) rotate(-63.06) scale(0.97 1)">e</text><text class="cls-1" transform="matrix(0.46, -0.85, 0.88, 0.47, 291.2, 167.32)">t</text><text class="cls-1" transform="translate(299.16 152.44) rotate(-60.62) scale(0.97 1)">D</text><text class="cls-1" transform="matrix(0.49, -0.83, 0.86, 0.51, 307.44, 137.73)">a</text><text class="cls-1" transform="translate(316.03 123.2) rotate(-58.17) scale(0.97 1)">t</text><text class="cls-1" transform="matrix(0.53, -0.81, 0.84, 0.55, 324.94, 108.85)">e</text><text class="cls-1" transform="matrix(0.54, -0.8, 0.83, 0.56, 334.13, 94.71)">,</text><text class="cls-1" transform="translate(343.64 80.77) rotate(-54.49) scale(0.97 1)"> </text><text class="cls-1" transform="translate(284.27 740.58) rotate(-105.79)">&lt;</text><text class="cls-1" transform="matrix(-0.25, -0.97, 0.97, -0.25, 279.52, 723.81)"> </text><text class="cls-1" transform="translate(275.2 706.95) rotate(-102.95)">u</text><text class="cls-1" transform="translate(271.3 689.97) rotate(-101.53)">l</text><text class="cls-1" transform="translate(267.81 672.9) rotate(-100.11)"> </text><text class="cls-1" transform="translate(264.76 655.76) rotate(-98.69)">c</text><text class="cls-1" transform="translate(262.13 638.56) rotate(-97.28)">l</text><text class="cls-1" transform="translate(259.92 621.29) rotate(-95.87)">a</text><text class="cls-1" transform="translate(258.14 603.94) rotate(-94.46)">s</text><text class="cls-1" transform="translate(256.78 586.56) rotate(-93.06)">s</text><text class="cls-1" transform="translate(255.85 569.18) rotate(-91.67)"> </text><text class="cls-1" transform="translate(255.34 551.78) rotate(-90.28)">=</text><text class="cls-1" transform="matrix(0.02, -1, 1, 0.02, 255.25, 534.36)"> </text><text class="cls-1" transform="matrix(0.04, -1, 1, 0.04, 255.59, 516.94)">&quot;</text><text class="cls-1" transform="translate(256.35 499.53) rotate(-86.11)">c</text><text class="cls-1" transform="translate(257.53 482.16) rotate(-84.7)">o</text><text class="cls-1" transform="translate(259.13 464.81) rotate(-83.29)">l</text><text class="cls-1" transform="translate(261.16 447.52) rotate(-81.88)">o</text><text class="cls-1" transform="translate(263.62 430.27) rotate(-80.47)">r</text><text class="cls-1" transform="translate(266.51 413.1) rotate(-79.05)">_</text><text class="cls-1" transform="translate(269.81 396) rotate(-77.63)">w</text><text class="cls-1" transform="matrix(0.24, -0.97, 0.97, 0.24, 273.54, 378.99)">h</text><text class="cls-1" transform="translate(277.69 362.08) rotate(-74.78)">i</text><text class="cls-1" transform="matrix(0.29, -0.96, 0.96, 0.29, 282.27, 345.25)">t</text><text class="cls-1" transform="matrix(0.31, -0.95, 0.95, 0.31, 287.26, 328.56)">e</text><text class="cls-1" transform="translate(292.65 312.02) rotate(-70.51)">&quot;</text><text class="cls-1" transform="translate(298.46 295.6) rotate(-69.08)"> </text><text class="cls-1" transform="translate(304.67 279.34) rotate(-67.66)">&gt;</text><text class="cls-1" transform="translate(311.29 263.23) rotate(-66.24)"> </text><text class="cls-1" transform="translate(318.31 247.29) rotate(-64.82)">&lt;</text><text class="cls-1" transform="translate(325.72 231.52) rotate(-63.39)"> </text><text class="cls-1" transform="translate(333.53 215.94) rotate(-61.97)">l</text><text class="cls-1" transform="translate(341.7 200.58) rotate(-60.56)">i</text><text class="cls-1" transform="translate(350.27 185.39) rotate(-59.14)"> </text><text class="cls-1" transform="translate(359.19 170.47) rotate(-57.73)">&gt;</text><text class="cls-1" transform="matrix(0.55, -0.83, 0.83, 0.55, 368.5, 155.72)"> </text><text class="cls-1" transform="translate(378.16 141.23) rotate(-54.9)">&lt;</text><text class="cls-1" transform="matrix(0.59, -0.8, 0.8, 0.6, 388.16, 126.99)"> </text><text class="cls-1" transform="translate(398.53 112.99) rotate(-52.08)">a</text><text class="cls-1" transform="translate(409.23 99.25) rotate(-50.67)"> </text><text class="cls-1" transform="translate(420.28 85.76) rotate(-49.25)">h</text><text class="cls-1" transform="translate(431.63 72.58) rotate(-47.85)">r</text><text class="cls-1" transform="translate(443.33 59.66) rotate(-46.44)">e</text><text class="cls-1" transform="translate(455.33 47.04) rotate(-45.03)">f</text><text class="cls-1" transform="translate(467.69 34.72) rotate(-43.87)"> </text><text class="cls-1" transform="matrix(-0.7, -0.71, 0.71, -0.7, 473, 1034.5)">.</text><text class="cls-1" transform="matrix(-0.68, -0.73, 0.73, -0.69, 460.74, 1022.12)">v</text><text class="cls-1" transform="translate(448.79 1009.43) rotate(-131.85)">i</text><text class="cls-1" transform="translate(437.19 996.48) rotate(-130.42)">e</text><text class="cls-1" transform="matrix(-0.63, -0.78, 0.78, -0.63, 425.89, 983.21)">w</text><text class="cls-1" transform="matrix(-0.61, -0.79, 0.79, -0.61, 414.93, 969.67)">_</text><text class="cls-1" transform="translate(404.31 955.87) rotate(-126.12)">p</text><text class="cls-1" transform="matrix(-0.57, -0.82, 0.82, -0.57, 394.05, 941.8)">c</text><text class="cls-1" transform="matrix(-0.55, -0.83, 0.84, -0.55, 384.14, 927.48)"> </text><text class="cls-1" transform="matrix(-0.53, -0.85, 0.85, -0.53, 374.58, 912.91)">{</text><text class="cls-1" transform="matrix(-0.5, -0.86, 0.86, -0.51, 365.4, 898.11)"> </text><text class="cls-1" transform="translate(356.59 883.09) rotate(-118.94)">d</text><text class="cls-1" transform="translate(348.17 867.86) rotate(-117.5)">i</text><text class="cls-1" transform="matrix(-0.44, -0.9, 0.9, -0.44, 340.12, 852.4)">s</text><text class="cls-1" transform="translate(332.48 836.77) rotate(-114.61)">p</text><text class="cls-1" transform="matrix(-0.39, -0.92, 0.92, -0.39, 325.22, 820.93)">l</text><text class="cls-1" transform="translate(318.37 804.93) rotate(-111.72)">a</text><text class="cls-1" transform="matrix(-0.35, -0.94, 0.94, -0.35, 311.92, 788.76)">y</text><text class="cls-1" transform="translate(305.89 772.42) rotate(-108.83)"> </text><text class="cls-1" transform="translate(300.26 755.92) rotate(-107.38)">:</text><text class="cls-1" transform="matrix(-0.27, -0.96, 0.96, -0.27, 295.05, 739.31)"> </text><text class="cls-1" transform="matrix(-0.25, -0.97, 0.97, -0.25, 290.27, 722.57)">n</text><text class="cls-1" transform="translate(285.91 705.71) rotate(-103.05)">o</text><text class="cls-1" transform="translate(281.98 688.74) rotate(-101.6)">n</text><text class="cls-1" transform="translate(278.47 671.68) rotate(-100.16)">e</text><text class="cls-1" transform="translate(275.4 654.53) rotate(-98.72)"> </text><text class="cls-1" transform="translate(272.75 637.33) rotate(-97.29)">!</text><text class="cls-1" transform="translate(270.54 620.06) rotate(-95.86)">i</text><text class="cls-1" transform="translate(268.77 602.74) rotate(-94.43)">m</text><text class="cls-1" transform="matrix(-0.05, -1, 1, -0.05, 267.42, 585.37)">p</text><text class="cls-1" transform="translate(266.5 567.98) rotate(-91.6)">o</text><text class="cls-1" transform="matrix(-0.01, -1, 1, -0.01, 266.06, 550.54)">r</text><text class="cls-1" transform="matrix(0.02, -1, 1, 0.02, 265.96, 533.15)">t</text><text class="cls-1" transform="translate(266.33 515.73) rotate(-87.37)">a</text><text class="cls-1" transform="translate(267.12 498.34) rotate(-85.95)">n</text><text class="cls-1" transform="translate(268.35 480.96) rotate(-84.52)">t</text><text class="cls-1" transform="matrix(0.12, -0.99, 0.99, 0.12, 270.01, 463.62)">;</text><text class="cls-1" transform="translate(272.11 446.35) rotate(-81.66)"> </text><text class="cls-1" transform="translate(274.63 429.1) rotate(-80.22)">o</text><text class="cls-1" transform="matrix(0.19, -0.98, 0.98, 0.19, 277.59, 411.95)">v</text><text class="cls-1" transform="translate(280.98 394.86) rotate(-77.34)">e</text><text class="cls-1" transform="translate(284.79 377.89) rotate(-75.89)">r</text><text class="cls-1" transform="translate(289.04 360.98) rotate(-74.45)">f</text><text class="cls-1" transform="translate(293.7 344.21) rotate(-73)">l</text><text class="cls-1" transform="matrix(0.32, -0.95, 0.95, 0.32, 298.79, 327.57)">o</text><text class="cls-1" transform="matrix(0.34, -0.94, 0.94, 0.34, 304.3, 311.03)">w</text><text class="cls-1" transform="translate(310.23 294.66) rotate(-68.66)"> </text><text class="cls-1" transform="translate(316.56 278.44) rotate(-67.22)">:</text><text class="cls-1" transform="matrix(0.41, -0.91, 0.91, 0.41, 323.31, 262.37)"> </text><text class="cls-1" transform="matrix(0.43, -0.9, 0.9, 0.43, 330.45, 246.5)">h</text><text class="cls-1" transform="translate(337.99 230.81) rotate(-62.89)">i</text><text class="cls-1" transform="translate(345.94 215.29) rotate(-61.44)">d</text><text class="cls-1" transform="translate(354.26 200) rotate(-60)">d</text><text class="cls-1" transform="matrix(0.52, -0.85, 0.85, 0.52, 362.96, 184.92)">e</text><text class="cls-1" transform="matrix(0.54, -0.84, 0.84, 0.54, 372.04, 170.06)">n</text><text class="cls-1" transform="translate(381.49 155.43) rotate(-55.7)">;</text><text class="cls-1" transform="matrix(0.58, -0.81, 0.81, 0.58, 391.31, 141.03)"> </text><text class="cls-1" transform="translate(401.48 126.9) rotate(-52.83)">}</text><text class="cls-1" transform="translate(297.8 628.77) rotate(-96.84)"> </text><text class="cls-1" transform="matrix(-0.09, -0.99, 1, -0.09, 295.72, 611.51)">.</text><text class="cls-1" transform="translate(294.1 594.17) rotate(-93.88)">b</text><text class="cls-1" transform="translate(292.92 576.8) rotate(-92.4)">o</text><text class="cls-1" transform="translate(292.19 559.4) rotate(-90.94)">x</text><text class="cls-1" transform="translate(291.9 541.99) rotate(-89.48)">_</text><text class="cls-1" transform="translate(292.06 524.57) rotate(-88.01)">s</text><text class="cls-1" transform="translate(292.66 507.17) rotate(-86.54)">e</text><text class="cls-1" transform="matrix(0.09, -0.99, 1, 0.09, 293.71, 489.78)">c</text><text class="cls-1" transform="matrix(0.11, -0.99, 0.99, 0.11, 295.21, 472.44)">t</text><text class="cls-1" transform="matrix(0.14, -0.99, 0.99, 0.14, 297.15, 455.15)">i</text><text class="cls-1" transform="translate(299.55 437.88) rotate(-80.59)">o</text><text class="cls-1" transform="translate(302.39 420.72) rotate(-79.1)">n</text><text class="cls-1" transform="matrix(0.21, -0.97, 0.98, 0.21, 305.68, 403.64)">{</text><text class="cls-1" transform="translate(309.42 386.62) rotate(-76.1)"> </text><text class="cls-1" transform="translate(313.6 369.74) rotate(-74.6)">p</text><text class="cls-1" transform="matrix(0.29, -0.95, 0.96, 0.29, 318.22, 352.93)">a</text><text class="cls-1" transform="translate(323.28 336.27) rotate(-71.59)">d</text><text class="cls-1" transform="translate(328.78 319.76) rotate(-70.09)">d</text><text class="cls-1" transform="matrix(0.36, -0.93, 0.93, 0.37, 334.71, 303.38)">i</text><text class="cls-1" transform="translate(341.06 287.18) rotate(-67.09)">n</text><text class="cls-1" transform="translate(347.83 271.16) rotate(-65.59)">g</text><text class="cls-1" transform="matrix(0.44, -0.9, 0.9, 0.44, 355.02, 255.3)">-</text><text class="cls-1" transform="translate(362.63 239.64) rotate(-62.59)">t</text><text class="cls-1" transform="translate(370.65 224.17) rotate(-61.1)">o</text><text class="cls-1" transform="translate(379.05 208.94) rotate(-59.6)">p</text><text class="cls-1" transform="translate(387.86 193.93) rotate(-58.11)"> </text><text class="cls-1" transform="matrix(0.55, -0.83, 0.84, 0.55, 397.06, 179.14)">:</text><text class="cls-1" transform="matrix(0.57, -0.82, 0.82, 0.57, 406.64, 164.59)"> </text><text class="cls-1" transform="translate(416.59 150.32) rotate(-53.64)">c</text><text class="cls-1" transform="translate(426.91 136.3) rotate(-52.15)">a</text><text class="cls-1" transform="translate(437.6 122.54) rotate(-50.66)">l</text><text class="cls-1" transform="matrix(0.65, -0.75, 0.76, 0.65, 448.64, 109.07)">c</text><text class="cls-1" transform="matrix(0.67, -0.74, 0.74, 0.67, 460.02, 95.89)">(</text><text class="cls-1" transform="matrix(0.69, -0.72, 0.72, 0.69, 471.74, 83.02)"> </text><text class="cls-1" transform="matrix(0.71, -0.7, 0.7, 0.71, 483.78, 70.45)">(</text><text class="cls-1" transform="translate(496.14 58.21) rotate(-43.23)"> </text><text class="cls-1" transform="translate(447.84 998.13) rotate(-131.1)"> </text><text class="cls-1" transform="translate(436.4 985.03) rotate(-129.65)">.</text><text class="cls-1" transform="translate(425.29 971.62) rotate(-128.21)">b</text><text class="cls-1" transform="translate(414.52 957.94) rotate(-126.76)">o</text><text class="cls-1" transform="translate(404.09 943.97) rotate(-125.31)">x</text><text class="cls-1" transform="matrix(-0.56, -0.83, 0.83, -0.56, 394.02, 929.76)">_</text><text class="cls-1" transform="translate(384.32 915.31) rotate(-122.41)">s</text><text class="cls-1" transform="translate(374.98 900.6) rotate(-120.96)">e</text><text class="cls-1" transform="matrix(-0.49, -0.87, 0.87, -0.49, 366.03, 885.69)">c</text><text class="cls-1" transform="translate(357.45 870.54) rotate(-118.06)">t</text><text class="cls-1" transform="matrix(-0.45, -0.89, 0.89, -0.45, 349.25, 855.15)">i</text><text class="cls-1" transform="matrix(-0.42, -0.9, 0.91, -0.42, 341.45, 839.59)">o</text><text class="cls-1" transform="matrix(-0.4, -0.91, 0.92, -0.4, 334.05, 823.82)">n</text><text class="cls-1" transform="matrix(-0.38, -0.92, 0.93, -0.38, 327.05, 807.87)"> </text><text class="cls-1" transform="translate(320.47 791.76) rotate(-110.77)">&gt;</text><text class="cls-1" transform="translate(314.3 775.49) rotate(-109.3)"> </text><text class="cls-1" transform="matrix(-0.31, -0.95, 0.95, -0.31, 308.54, 759.04)">.</text><text class="cls-1" transform="translate(303.2 742.46) rotate(-106.38)">b</text><text class="cls-1" transform="matrix(-0.26, -0.96, 0.97, -0.26, 298.29, 725.76)">o</text><text class="cls-1" transform="matrix(-0.23, -0.97, 0.97, -0.23, 293.8, 708.94)">x</text><text class="cls-1" transform="translate(289.75 692.02) rotate(-102.01)">_</text><text class="cls-1" transform="matrix(-0.18, -0.98, 0.98, -0.18, 286.12, 674.97)">b</text><text class="cls-1" transform="translate(282.93 657.85) rotate(-99.09)">g</text><text class="cls-1" transform="matrix(-0.13, -0.99, 0.99, -0.13, 280.18, 640.67)">d</text><text class="cls-1" transform="translate(277.86 623.39) rotate(-96.2)">e</text><text class="cls-1" transform="translate(275.98 606.1) rotate(-94.76)">c</text><text class="cls-1" transform="translate(274.54 588.74) rotate(-93.32)">o</text><text class="cls-1" transform="matrix(-0.03, -1, 1, -0.03, 273.53, 571.36)">r</text><text class="cls-1" transform="translate(272.95 553.96) rotate(-90.47)">a</text><text class="cls-1" transform="translate(272.81 536.53) rotate(-89.04)">t</text><text class="cls-1" transform="translate(273.1 519.12) rotate(-87.62)">i</text><text class="cls-1" transform="matrix(0.07, -0.99, 1, 0.07, 273.82, 501.7)">o</text><text class="cls-1" transform="translate(274.98 484.33) rotate(-84.75)">n</text><text class="cls-1" transform="matrix(0.12, -0.99, 0.99, 0.12, 276.57, 467)"> </text><text class="cls-1" transform="matrix(0.14, -0.99, 0.99, 0.14, 278.6, 449.72)">{</text><text class="cls-1" transform="translate(281.06 432.46) rotate(-80.4)"> </text><text class="cls-1" transform="translate(283.96 415.3) rotate(-78.95)">t</text><text class="cls-1" transform="translate(287.3 398.2) rotate(-77.49)">o</text><text class="cls-1" transform="translate(291.07 381.2) rotate(-76.03)">p</text><text class="cls-1" transform="translate(295.27 364.31) rotate(-74.57)"> </text><text class="cls-1" transform="translate(299.9 347.53) rotate(-73.11)">:</text><text class="cls-1" transform="matrix(0.31, -0.95, 0.95, 0.31, 304.96, 330.85)"> </text><text class="cls-1" transform="translate(310.44 314.33) rotate(-70.19)">c</text><text class="cls-1" transform="matrix(0.36, -0.93, 0.93, 0.36, 316.34, 297.95)">a</text><text class="cls-1" transform="matrix(0.39, -0.92, 0.92, 0.39, 322.66, 281.7)">l</text><text class="cls-1" transform="translate(329.38 265.66) rotate(-65.81)">c</text><text class="cls-1" transform="translate(336.52 249.76) rotate(-64.35)">(</text><text class="cls-1" transform="translate(344.05 234.07) rotate(-62.9)"> </text><text class="cls-1" transform="matrix(0.48, -0.88, 0.88, 0.48, 351.98, 218.58)">(</text><text class="cls-1" transform="translate(360.3 203.28) rotate(-59.99)"> </text><text class="cls-1" transform="matrix(0.52, -0.85, 0.85, 0.52, 369.02, 188.19)">1</text><text class="cls-1" transform="matrix(0.54, -0.84, 0.84, 0.54, 378.1, 173.35)">0</text><text class="cls-1" transform="matrix(0.56, -0.82, 0.83, 0.56, 387.56, 158.72)">0</text><text class="cls-1" transform="matrix(0.58, -0.81, 0.81, 0.59, 397.39, 144.34)">v</text><text class="cls-1" transform="matrix(0.6, -0.79, 0.8, 0.61, 407.58, 130.23)">w</text><text class="cls-1" transform="matrix(0.62, -0.78, 0.78, 0.63, 418.12, 116.37)"> </text><text class="cls-1" transform="translate(429.02 102.76) rotate(-49.85)">/</text><text class="cls-1" transform="translate(440.23 89.47) rotate(-48.4)"> </text><text class="cls-1" transform="translate(451.79 76.44) rotate(-46.96)">3</text><text class="cls-1" transform="translate(463.68 63.71) rotate(-45.51)">7</text><text class="cls-1" transform="translate(475.88 51.28) rotate(-44.07)">5</text><text class="cls-1" transform="translate(488.4 39.17) rotate(-42.62)"> </text><text class="cls-1" transform="translate(434.03 1021.62) rotate(-131.78)">$</text><text class="cls-1" transform="matrix(-0.65, -0.76, 0.76, -0.65, 422.44, 1008.65)">(</text><text class="cls-1" transform="translate(411.15 995.39) rotate(-129)">&quot;</text><text class="cls-1" transform="matrix(-0.61, -0.79, 0.79, -0.61, 400.17, 981.83)">.</text><text class="cls-1" transform="translate(389.56 968.05) rotate(-126.21)">b</text><text class="cls-1" transform="matrix(-0.57, -0.82, 0.82, -0.57, 379.27, 954)">o</text><text class="cls-1" transform="translate(369.32 939.69) rotate(-123.42)">x</text><text class="cls-1" transform="matrix(-0.53, -0.85, 0.85, -0.53, 359.73, 925.16)">_</text><text class="cls-1" transform="matrix(-0.51, -0.86, 0.86, -0.51, 350.48, 910.38)">o</text><text class="cls-1" transform="translate(341.61 895.38) rotate(-119.22)">u</text><text class="cls-1" transform="translate(333.11 880.18) rotate(-117.82)">t</text><text class="cls-1" transform="translate(324.98 864.78) rotate(-116.41)">e</text><text class="cls-1" transform="translate(317.23 849.19) rotate(-115.01)">r</text><text class="cls-1" transform="translate(309.87 833.41) rotate(-113.61)">l</text><text class="cls-1" transform="translate(302.88 817.43) rotate(-112.2)">i</text><text class="cls-1" transform="translate(296.31 801.31) rotate(-110.79)">n</text><text class="cls-1" transform="translate(290.12 785.04) rotate(-109.38)">k</text><text class="cls-1" transform="translate(284.34 768.61) rotate(-107.98)">&quot;</text><text class="cls-1" transform="translate(278.96 752.04) rotate(-106.57)">)</text><text class="cls-1" transform="translate(274 735.35) rotate(-105.16)">.</text><text class="cls-1" transform="translate(269.44 718.53) rotate(-103.75)">c</text><text class="cls-1" transform="matrix(-0.21, -0.97, 0.98, -0.21, 265.29, 701.6)">l</text><text class="cls-1" transform="translate(261.57 684.61) rotate(-100.94)">i</text><text class="cls-1" transform="translate(258.26 667.5) rotate(-99.54)">c</text><text class="cls-1" transform="translate(255.37 650.32) rotate(-98.14)">k</text><text class="cls-1" transform="translate(252.91 633.09) rotate(-96.75)">(</text><text class="cls-1" transform="matrix(-0.09, -0.99, 1, -0.09, 250.86, 615.77)">f</text><text class="cls-1" transform="translate(249.23 598.45) rotate(-93.97)">u</text><text class="cls-1" transform="translate(248.02 581.04) rotate(-92.59)">n</text><text class="cls-1" transform="translate(247.24 563.66) rotate(-91.21)">c</text><text class="cls-1" transform="translate(246.82 546.25) rotate(-89.56)">t</text><text class="cls-1" transform="translate(246.91 528.83) rotate(-88.47)">i</text><text class="cls-1" transform="matrix(0.05, -1, 1, 0.05, 247.37, 511.4)">o</text><text class="cls-1" transform="translate(248.26 494.01) rotate(-85.71)">n</text><text class="cls-1" transform="translate(249.56 476.63) rotate(-84.32)">(</text><text class="cls-1" transform="translate(251.28 459.3) rotate(-82.93)"> </text><text class="cls-1" transform="translate(253.42 442.01) rotate(-81.53)">)</text><text class="cls-1" transform="translate(255.98 424.78) rotate(-80.13)">{</text><text class="cls-1" transform="matrix(0.19, -0.98, 0.98, 0.2, 258.97, 407.61)"> </text><text class="cls-1" transform="matrix(0.22, -0.97, 0.98, 0.22, 262.37, 390.54)">v</text><text class="cls-1" transform="matrix(0.24, -0.97, 0.97, 0.24, 266.18, 373.56)">a</text><text class="cls-1" transform="translate(270.42 356.65) rotate(-74.51)">r</text><text class="cls-1" transform="translate(275.07 339.87) rotate(-73.11)"> </text><text class="cls-1" transform="translate(280.13 323.2) rotate(-71.7)">t</text><text class="cls-1" transform="translate(285.6 306.67) rotate(-70.29)">e</text><text class="cls-1" transform="matrix(0.36, -0.93, 0.93, 0.36, 291.47, 290.27)">s</text><text class="cls-1" transform="translate(297.74 274.03) rotate(-67.48)">t</text><text class="cls-1" transform="matrix(0.4, -0.91, 0.91, 0.41, 304.42, 257.92)"> </text><text class="cls-1" transform="translate(311.47 242.02) rotate(-64.67)">=</text><text class="cls-1" transform="translate(318.93 226.26) rotate(-63.26)"> </text><text class="cls-1" transform="matrix(-0.62, -0.78, 0.79, -0.62, 431.98, 966.51)">c</text><text class="cls-1" transform="translate(421.21 952.84) rotate(-126.75)">o</text><text class="cls-1" transform="translate(410.79 938.89) rotate(-125.29)">n</text><text class="cls-1" transform="translate(400.73 924.69) rotate(-123.82)">s</text><text class="cls-1" transform="translate(391.04 910.22) rotate(-122.35)">t</text><text class="cls-1" transform="matrix(-0.51, -0.86, 0.86, -0.51, 381.7, 895.49)"> </text><text class="cls-1" transform="translate(372.77 880.56) rotate(-119.41)">s</text><text class="cls-1" transform="translate(364.21 865.38) rotate(-117.94)">w</text><text class="cls-1" transform="translate(356.07 850.03) rotate(-116.47)">i</text><text class="cls-1" transform="translate(348.3 834.43) rotate(-114.99)">p</text><text class="cls-1" transform="translate(340.94 818.65) rotate(-113.52)">e</text><text class="cls-1" transform="translate(333.99 802.68) rotate(-112.04)">r</text><text class="cls-1" transform="translate(327.45 786.54) rotate(-110.56)"> </text><text class="cls-1" transform="matrix(-0.33, -0.94, 0.95, -0.33, 321.34, 770.24)">=</text><text class="cls-1" transform="matrix(-0.3, -0.95, 0.95, -0.3, 315.65, 753.8)"> </text><text class="cls-1" transform="translate(310.38 737.2) rotate(-106.13)">n</text><text class="cls-1" transform="translate(305.54 720.47) rotate(-104.65)">e</text><text class="cls-1" transform="translate(301.13 703.62) rotate(-103.17)">w</text><text class="cls-1" transform="matrix(-0.2, -0.98, 0.98, -0.2, 297.16, 686.67)"> </text><text class="cls-1" transform="translate(293.63 669.62) rotate(-100.22)">S</text><text class="cls-1" transform="matrix(-0.15, -0.99, 0.99, -0.15, 290.55, 652.5)">w</text><text class="cls-1" transform="translate(287.89 635.28) rotate(-97.28)">i</text><text class="cls-1" transform="translate(285.69 618.01) rotate(-95.82)">p</text><text class="cls-1" transform="matrix(-0.08, -0.99, 1, -0.08, 283.92, 600.66)">e</text><text class="cls-1" transform="translate(282.59 583.32) rotate(-92.91)">r</text><text class="cls-1" transform="translate(281.71 565.93) rotate(-91.46)">(</text><text class="cls-1" transform="translate(281.33 548.52) rotate(-90.46)">&quot;</text><text class="cls-1" transform="matrix(0.02, -1, 1, 0.02, 281.25, 531.1)">.</text><text class="cls-1" transform="translate(281.68 513.7) rotate(-87.14)">s</text><text class="cls-1" transform="translate(282.55 496.28) rotate(-85.68)">w</text><text class="cls-1" transform="translate(283.86 478.95) rotate(-84.23)">i</text><text class="cls-1" transform="translate(285.61 461.61) rotate(-82.76)">p</text><text class="cls-1" transform="translate(287.8 444.34) rotate(-81.3)">e</text><text class="cls-1" transform="translate(290.43 427.14) rotate(-79.83)">r</text><text class="cls-1" transform="translate(293.51 409.99) rotate(-78.35)">&quot;</text><text class="cls-1" transform="translate(297.02 392.93) rotate(-76.87)">,</text><text class="cls-1" transform="translate(300.98 375.97) rotate(-75.4)"> </text><text class="cls-1" transform="translate(305.36 359.14) rotate(-73.92)">{</text><text class="cls-1" transform="translate(310.18 342.39) rotate(-72.44)"> </text><text class="cls-1" transform="translate(315.43 325.8) rotate(-70.96)">l</text><text class="cls-1" transform="translate(321.12 309.33) rotate(-69.48)">o</text><text class="cls-1" transform="translate(327.22 293.03) rotate(-68)">o</text><text class="cls-1" transform="translate(333.73 276.89) rotate(-66.53)">p</text><text class="cls-1" transform="matrix(0.42, -0.9, 0.91, 0.42, 340.67, 260.91)">:</text><text class="cls-1" transform="matrix(0.44, -0.89, 0.9, 0.45, 348.01, 245.12)">t</text><text class="cls-1" transform="translate(355.76 229.53) rotate(-62.1)">r</text><text class="cls-1" transform="translate(363.91 214.13) rotate(-60.63)">u</text><text class="cls-1" transform="translate(372.44 198.97) rotate(-59.16)">e</text><text class="cls-1" transform="translate(381.37 184.01) rotate(-57.69)">,</text><text class="cls-1" transform="matrix(0.55, -0.83, 0.83, 0.56, 390.68, 169.29)"> </text><text class="cls-1" transform="translate(431.31 1034.45) rotate(-132.39)">$</text><text class="cls-1" transform="matrix(-0.65, -0.75, 0.75, -0.66, 419.58, 1021.6)">(</text><text class="cls-1" transform="matrix(-0.64, -0.77, 0.77, -0.64, 408.14, 1008.45)">&quot;</text><text class="cls-1" transform="translate(397.03 995.04) rotate(-128.27)">.</text><text class="cls-1" transform="translate(386.23 981.36) rotate(-126.9)">w</text><text class="cls-1" transform="translate(375.77 967.42) rotate(-125.52)">r</text><text class="cls-1" transform="matrix(-0.56, -0.83, 0.83, -0.56, 365.65, 953.25)">a</text><text class="cls-1" transform="matrix(-0.54, -0.84, 0.84, -0.54, 355.86, 938.82)">p</text><text class="cls-1" transform="matrix(-0.52, -0.85, 0.85, -0.52, 346.43, 924.18)">_</text><text class="cls-1" transform="matrix(-0.5, -0.86, 0.87, -0.5, 337.36, 909.32)">f</text><text class="cls-1" transform="translate(328.64 894.23) rotate(-118.63)">u</text><text class="cls-1" transform="translate(320.29 878.94) rotate(-117.25)">l</text><text class="cls-1" transform="translate(312.31 863.46) rotate(-115.87)">l</text><text class="cls-1" transform="translate(304.71 847.79) rotate(-114.49)">p</text><text class="cls-1" transform="translate(297.49 831.94) rotate(-113.1)">a</text><text class="cls-1" transform="translate(290.66 815.92) rotate(-111.72)">g</text><text class="cls-1" transform="translate(284.21 799.73) rotate(-110.33)">e</text><text class="cls-1" transform="translate(278.15 783.39) rotate(-108.94)">&quot;</text><text class="cls-1" transform="matrix(-0.3, -0.95, 0.95, -0.3, 272.5, 766.92)">)</text><text class="cls-1" transform="translate(267.24 750.31) rotate(-106.17)">.</text><text class="cls-1" transform="matrix(-0.25, -0.96, 0.97, -0.26, 262.39, 733.59)">f</text><text class="cls-1" transform="matrix(-0.23, -0.97, 0.97, -0.23, 257.94, 716.73)">u</text><text class="cls-1" transform="translate(253.91 699.78) rotate(-102.01)">l</text><text class="cls-1" transform="translate(250.28 682.75) rotate(-100.63)">l</text><text class="cls-1" transform="translate(247.07 665.63) rotate(-99.25)">p</text><text class="cls-1" transform="translate(244.27 648.44) rotate(-97.87)">a</text><text class="cls-1" transform="translate(241.88 631.18) rotate(-96.49)">g</text><text class="cls-1" transform="translate(239.91 613.86) rotate(-95.12)">e</text><text class="cls-1" transform="translate(238.35 596.53) rotate(-93.76)">(</text><text class="cls-1" transform="translate(237.21 579.14) rotate(-92.4)"> </text><text class="cls-1" transform="matrix(-0.02, -1, 1, -0.02, 236.48, 561.75)">{</text><text class="cls-1" transform="matrix(0.01, -1, 1, 0.01, 236.13, 544.31)"> </text><text class="cls-1" transform="translate(236.25 526.88) rotate(-88.34)">n</text><text class="cls-1" transform="translate(236.75 509.47) rotate(-86.99)">a</text><text class="cls-1" transform="translate(237.66 492.09) rotate(-85.62)">v</text><text class="cls-1" transform="translate(238.99 474.71) rotate(-84.26)">i</text><text class="cls-1" transform="matrix(0.12, -0.99, 0.99, 0.12, 240.73, 457.38)">g</text><text class="cls-1" transform="translate(242.89 440.09) rotate(-81.51)">a</text><text class="cls-1" transform="translate(245.46 422.86) rotate(-80.13)">t</text><text class="cls-1" transform="translate(248.44 405.7) rotate(-78.75)">i</text><text class="cls-1" transform="translate(251.84 388.62) rotate(-77.36)">o</text><text class="cls-1" transform="translate(255.65 371.62) rotate(-75.98)">n</text><text class="cls-1" transform="translate(259.88 354.7) rotate(-74.59)"> </text><text class="cls-1" transform="matrix(0.29, -0.95, 0.96, 0.29, 264.5, 337.91)">:</text><text class="cls-1" transform="matrix(0.31, -0.95, 0.95, 0.31, 269.53, 321.25)"> </text><text class="cls-1" transform="matrix(0.33, -0.94, 0.94, 0.33, 274.96, 304.7)">t</text><text class="cls-1" transform="translate(280.79 288.29) rotate(-69.04)">r</text><text class="cls-1" transform="translate(287.03 272) rotate(-67.66)">u</text><text class="cls-1" transform="translate(293.64 255.91) rotate(-66.27)">e</text><text class="cls-1" transform="translate(300.66 239.95) rotate(-64.89)">,</text><text class="cls-1" transform="translate(308.04 224.19) rotate(-63.51)"> </text><text class="cls-1" transform="translate(315.82 208.58) rotate(-62.12)">a</text><text class="cls-1" transform="matrix(0.49, -0.87, 0.87, 0.49, 323.96, 193.19)">f</text><text class="cls-1" transform="matrix(0.51, -0.86, 0.86, 0.51, 332.48, 177.98)">t</text><text class="cls-1" transform="matrix(0.53, -0.85, 0.85, 0.53, 341.35, 163)">e</text><text class="cls-1" transform="translate(350.59 148.22) rotate(-56.6)">r</text><text class="cls-1" transform="matrix(0.57, -0.82, 0.82, 0.57, 360.17, 133.69)">L</text><text class="cls-1" transform="matrix(0.59, -0.81, 0.81, 0.59, 370.12, 119.36)">o</text><text class="cls-1" transform="translate(380.38 105.31) rotate(-52.48)">a</text><text class="cls-1" transform="matrix(0.63, -0.78, 0.78, 0.63, 390.99, 91.49)">d</text><text class="cls-1" transform="translate(401.92 77.93) rotate(-49.73)"> </text><text class="cls-1" transform="translate(413.19 64.62) rotate(-48.36)">:</text><text class="cls-1" transform="matrix(0.68, -0.73, 0.73, 0.68, 424.75, 51.62)"> </text><rect class="cls-2" width="960" height="1080"/></g></g></g></svg>